<svg version="1.1" xmlns="http://www.w3.org/2000/svg" style="display: block;" viewBox="0 0 2048 2048" width="512" height="512">
<defs>
	<linearGradient id="Gradient1" gradientUnits="userSpaceOnUse" x1="1034.74" y1="934.567" x2="1520.92" y2="431.913">
		<stop class="stop0" offset="0" stop-opacity="1" stop-color="rgb(33,20,41)"/>
		<stop class="stop1" offset="1" stop-opacity="1" stop-color="rgb(70,51,73)"/>
	</linearGradient>
	<linearGradient id="Gradient2" gradientUnits="userSpaceOnUse" x1="1071.39" y1="433.387" x2="1078.23" y2="465.212">
		<stop class="stop0" offset="0" stop-opacity="1" stop-color="rgb(32,12,43)"/>
		<stop class="stop1" offset="1" stop-opacity="1" stop-color="rgb(0,0,0)"/>
	</linearGradient>
	<linearGradient id="Gradient3" gradientUnits="userSpaceOnUse" x1="1148.4" y1="742.195" x2="1177.57" y2="747.407">
		<stop class="stop0" offset="0" stop-opacity="1" stop-color="rgb(47,38,45)"/>
		<stop class="stop1" offset="1" stop-opacity="1" stop-color="rgb(46,28,51)"/>
	</linearGradient>
	<linearGradient id="Gradient4" gradientUnits="userSpaceOnUse" x1="796.662" y1="607.967" x2="841.418" y2="636.671">
		<stop class="stop0" offset="0" stop-opacity="1" stop-color="rgb(63,33,54)"/>
		<stop class="stop1" offset="1" stop-opacity="1" stop-color="rgb(96,65,82)"/>
	</linearGradient>
	<linearGradient id="Gradient5" gradientUnits="userSpaceOnUse" x1="1040.17" y1="2058.59" x2="1005.35" y2="1136.95">
		<stop class="stop0" offset="0" stop-opacity="1" stop-color="rgb(223,222,232)"/>
		<stop class="stop1" offset="1" stop-opacity="1" stop-color="rgb(255,255,255)"/>
	</linearGradient>
</defs>
<path transform="translate(0,0)" fill="rgb(13,8,17)" d="M 556.13 461.86 C 556.866 466.305 557.441 470.847 558.462 475.233 C 555.612 475.699 555.107 475.57 553.088 477.566 C 552.701 480.492 552.791 483.2 552.945 486.129 C 551.781 480.582 551.605 474.449 551.055 468.785 C 552.106 465.783 553.962 464.07 556.13 461.86 z"/>
<path transform="translate(0,0)" fill="rgb(13,8,17)" d="M 560.667 377.185 C 560.725 377.506 560.787 377.826 560.841 378.148 C 561.557 382.406 559.916 387.073 561.253 390.885 C 562.509 391.386 563.541 391.755 564.876 392.025 C 562.811 398.655 561.138 405.173 559.78 411.983 C 558.411 409.691 556.54 408.133 554.622 406.305 C 556.786 396.645 558.551 386.867 560.667 377.185 z"/>
<path transform="translate(0,0)" fill="rgb(0,0,0)" d="M 554.622 406.305 C 556.54 408.133 558.411 409.691 559.78 411.983 C 555.612 426.772 553.475 446.582 556.13 461.86 C 553.962 464.07 552.106 465.783 551.055 468.785 C 549.196 448.218 551.859 426.719 554.622 406.305 z"/>
<path transform="translate(0,0)" fill="rgb(179,179,207)" d="M 1236.67 1120.44 C 1249.27 1117.35 1261.31 1114.78 1274.34 1116.18 C 1272.91 1123.68 1271.42 1131.03 1269.25 1138.36 C 1258.71 1133.84 1244.78 1128.64 1236.67 1120.44 z"/>
<path transform="translate(0,0)" fill="rgb(46,30,51)" d="M 1467.94 838.332 L 1468.71 835.112 C 1470.93 834.932 1471.32 834.802 1473.17 836.278 C 1487.99 848.155 1496.58 867.979 1507.18 883.335 C 1508.12 884.697 1509.27 886.395 1510.93 886.712 A 881.922 881.922 0 0 0 1511.24 876.616 C 1513.12 897.903 1512.1 919.615 1504.81 939.889 C 1498.01 958.809 1487.2 975.178 1472.52 988.78 C 1470.05 991.072 1467.38 994.112 1464.33 995.549 C 1469.31 984.264 1478.11 977.103 1483.06 963.847 C 1498.48 922.534 1485.42 876.659 1467.94 838.332 z"/>
<path transform="translate(0,0)" fill="rgb(146,144,174)" d="M 364.72 1696.29 C 396.63 1692.07 423.486 1697.16 453.404 1708.99 C 450.08 1724.81 442.956 1781.2 437.459 1791.02 C 416.788 1775.29 370.278 1737.02 362.834 1712.34 C 361.106 1706.61 361.873 1701.48 364.72 1696.29 z"/>
<path transform="translate(0,0)" fill="rgb(146,144,174)" d="M 1586.2 1697.89 C 1616.89 1683.08 1653.78 1673.43 1687.6 1680.68 C 1688.97 1684.21 1690.32 1687.6 1691.1 1691.31 C 1682.73 1728.09 1626.98 1771.04 1597.16 1793.52 C 1589.87 1766.47 1590.47 1727.09 1586.2 1697.89 z"/>
<path transform="translate(0,0)" fill="rgb(136,115,133)" d="M 1292.59 133.94 C 1327.86 176.408 1356.32 227.387 1369.72 281.285 C 1356.73 287.568 1342.12 268.111 1329.05 267.061 C 1313.83 265.839 1306.05 277.752 1295.92 286.465 C 1290.62 291.021 1284.49 294.096 1277.34 293.267 C 1264.31 291.755 1253.26 281.001 1245.65 271.211 C 1243.87 266.571 1240.96 261.813 1238.71 257.343 C 1268.19 234.244 1289.04 201.761 1291.87 163.73 C 1292.49 155.353 1289.62 143.107 1292.06 135.45 C 1292.22 134.942 1292.41 134.443 1292.59 133.94 z"/>
<path transform="translate(0,0)" fill="rgb(46,30,51)" d="M 552.945 486.129 C 552.791 483.2 552.701 480.492 553.088 477.566 C 555.107 475.57 555.612 475.699 558.462 475.233 C 565.993 495.784 576.511 511.715 597.121 520.973 C 598.763 521.711 598.247 521.491 600.125 521.911 C 608.224 549.248 615.762 575.365 628.246 601.18 A 418.587 418.587 0 0 0 641.057 625.664 C 645.361 633.104 665.975 661.758 666.722 667.856 C 673.095 673.088 678.065 681.137 683.043 687.719 A 1562.77 1562.77 0 0 1 695.376 700.656 C 705.337 710.255 715.585 719.323 726.102 728.305 L 721.75 731.822 L 722.493 734.081 C 725.82 744.322 730.114 757.42 730.879 768.112 C 756.511 846.804 798.304 877.492 866.138 918.855 C 878.126 926.164 903.222 938.646 912.782 947.193 C 912.742 953.662 913.59 961.748 915.524 967.89 C 919.334 1006.56 924.641 1044.6 898.22 1076.8 C 896.008 1079.49 894.618 1080.38 891.215 1081.03 C 883.637 1079.73 875.924 1076.1 869.079 1072.67 C 838.446 1057.31 824.673 1035.97 804.473 1009.67 C 809.335 1039.35 830.116 1071.9 851.135 1092.85 C 833.027 1090.03 816.274 1083.89 800.309 1074.9 C 740.887 1041.43 695.98 981.084 677.763 915.947 C 673.347 954.719 675.602 1007 690.742 1042.8 C 694.834 1052.47 700.323 1060.63 706.522 1069.07 C 661.329 1060.69 622.079 1042.73 593.882 1004.99 C 550.579 947.044 546.272 874.093 556.496 804.969 C 540.891 833.807 530.153 875.324 530.109 907.756 C 530.061 943.445 536.757 962.335 561.716 987.309 C 552.477 982.595 544.915 977.6 538.497 969.278 C 526.228 953.371 519.81 932.052 517.016 912.423 C 504.26 822.808 554.163 756.524 582.049 676.744 C 595.122 639.345 601.498 601.279 606.253 562.082 C 599.448 559.296 593.028 556.243 587.049 551.912 C 565.113 536.02 557.02 511.803 552.945 486.129 z"/>
<path transform="translate(0,0)" fill="rgb(253,199,188)" d="M 666.722 667.856 C 673.095 673.088 678.065 681.137 683.043 687.719 A 1562.77 1562.77 0 0 1 695.376 700.656 C 705.337 710.255 715.585 719.323 726.102 728.305 L 721.75 731.822 L 722.493 734.081 C 725.82 744.322 730.114 757.42 730.879 768.112 L 727.933 767.515 C 721.417 764.676 715.179 761.364 709.436 757.148 C 681.461 736.615 671.478 700.424 666.722 667.856 z"/>
<path transform="translate(0,0)" fill="rgb(225,104,114)" d="M 683.043 687.719 A 1562.77 1562.77 0 0 1 695.376 700.656 C 705.337 710.255 715.585 719.323 726.102 728.305 L 721.75 731.822 L 722.493 734.081 C 725.82 744.322 730.114 757.42 730.879 768.112 L 727.933 767.515 C 727.184 758.802 721.473 748.299 719.621 738.958 C 715.655 735.107 709.401 732.148 704.763 728.974 A 38.3896 38.3896 0 0 1 697.756 723.248 C 689.951 714.998 682.446 699.146 683.043 687.719 z"/>
<path transform="translate(0,0)" fill="rgb(245,140,142)" d="M 695.376 700.656 C 705.337 710.255 715.585 719.323 726.102 728.305 L 721.75 731.822 C 716.503 730.595 712.736 730.066 707.751 727.616 C 701.481 722.756 694.072 716.329 692.812 708.056 C 692.281 704.572 693.403 703.257 695.376 700.656 z"/>
<path transform="translate(0,0)" fill="url(#Gradient1)" d="M 1245.65 271.211 C 1253.26 281.001 1264.31 291.755 1277.34 293.267 C 1284.49 294.096 1290.62 291.021 1295.92 286.465 C 1306.05 277.752 1313.83 265.839 1329.05 267.061 C 1342.12 268.111 1356.73 287.568 1369.72 281.285 C 1394.45 362.184 1389.58 430.465 1395.54 512.664 A 602.964 602.964 0 0 0 1414.34 626.188 A 576.181 576.181 0 0 0 1448.73 718.646 C 1469.24 761.768 1496.52 799.461 1507.25 846.902 C 1509.4 856.395 1511.49 866.842 1511.24 876.616 A 881.922 881.922 0 0 1 1510.93 886.712 C 1509.27 886.395 1508.12 884.697 1507.18 883.335 C 1496.58 867.979 1487.99 848.155 1473.17 836.278 C 1471.32 834.802 1470.93 834.932 1468.71 835.112 L 1467.94 838.332 C 1454.79 814.943 1439.89 792.922 1420.1 774.543 C 1439.99 846.092 1440.22 938.947 1402.74 1004.66 C 1381.78 1041.42 1347.88 1070.35 1306.73 1081.56 C 1300.56 1083.23 1294.28 1084.25 1287.94 1085.01 C 1311.18 1061.99 1315.56 1023.26 1315.77 992.128 C 1315.83 984.245 1315.66 976.102 1314.53 968.291 C 1302.13 1015.28 1282.82 1054.12 1239.34 1079.83 C 1233.66 1083.19 1211.28 1094.8 1205.62 1095.19 C 1205.21 1093.02 1205.4 1092.89 1206.63 1091.13 C 1209.5 1087.04 1213.9 1084.06 1216.91 1080.03 C 1226.73 1066.87 1232.29 1049.37 1236.29 1033.65 C 1220.39 1052.17 1205.33 1068.55 1183.81 1080.85 C 1181.54 1080.09 1182.24 1080.6 1180.52 1078.89 C 1162.74 1061.28 1162.98 1018.74 1162.89 995.077 C 1164.8 989.506 1170.7 984.031 1174.53 979.534 C 1195.07 955.38 1211.18 929.419 1224.82 900.812 A 582.927 582.927 0 0 0 1261.74 803.365 C 1265.29 790.887 1270.64 761.282 1275.38 751.28 C 1276.01 739.441 1280.39 720.312 1283.72 708.686 C 1284.16 699.314 1286.04 689.615 1287.22 680.271 C 1289.55 661.907 1291.83 643.454 1293.45 625.014 C 1294.46 613.482 1294.16 576.57 1298.1 568.762 C 1294.94 561.336 1296.34 521.197 1295.93 510.421 C 1294.36 469.146 1290.07 426.72 1281.43 386.29 A 409.059 409.059 0 0 0 1262.43 323.644 C 1259.3 315.624 1251.56 302.215 1252.17 293.837 C 1247.15 286.699 1245.41 277.783 1241.26 270.078 L 1241.31 267.402 C 1242.68 268.849 1243.72 270.381 1244.82 272.038 L 1245.65 271.211 z"/>
<path transform="translate(0,0)" fill="rgb(46,30,51)" d="M 1252.17 293.837 C 1256.83 299.432 1259.6 310.005 1262.53 316.909 A 1188.74 1188.74 0 0 1 1299.08 412.96 C 1307.71 438.654 1315.26 464.699 1323.84 490.411 C 1328.97 505.772 1348.17 551.731 1347.71 564.934 C 1340.15 559.815 1334.24 557.264 1325 557.353 C 1314.08 557.88 1306.82 562.834 1298.1 568.762 C 1294.94 561.336 1296.34 521.197 1295.93 510.421 C 1294.36 469.146 1290.07 426.72 1281.43 386.29 A 409.059 409.059 0 0 0 1262.43 323.644 C 1259.3 315.624 1251.56 302.215 1252.17 293.837 z"/>
<path transform="translate(0,0)" fill="rgb(254,216,196)" d="M 1325 557.353 C 1334.24 557.264 1340.15 559.815 1347.71 564.934 C 1363.84 579.146 1368.43 595.621 1369.67 616.456 C 1371.78 651.979 1361.03 683.114 1337.27 709.795 C 1320.36 728.777 1299.15 742.533 1275.38 751.28 C 1276.01 739.441 1280.39 720.312 1283.72 708.686 C 1284.16 699.314 1286.04 689.615 1287.22 680.271 C 1289.55 661.907 1291.83 643.454 1293.45 625.014 C 1294.46 613.482 1294.16 576.57 1298.1 568.762 C 1306.82 562.834 1314.08 557.88 1325 557.353 z"/>
<path transform="translate(0,0)" fill="rgb(225,104,114)" d="M 1303.97 596.407 C 1308.98 592.179 1314.59 588.018 1321.51 588.549 C 1327.17 588.984 1333.25 595.379 1336.25 599.724 C 1347.2 615.569 1349.37 639.205 1345.64 657.679 C 1342.51 673.147 1333.54 683.478 1320.67 691.839 C 1310.81 698.243 1299.12 703.949 1287.93 707.485 L 1287.64 705.811 C 1292.58 701.23 1299.41 700.375 1304.83 696.543 C 1322.27 688.111 1333.79 679.743 1340.56 660.757 C 1341.6 654.445 1341.76 647.509 1341.87 641.106 C 1342.11 627.476 1339.42 607.456 1329.26 597.521 C 1325.67 594.01 1322.4 592.337 1317.38 592.465 C 1316.76 592.732 1316.13 592.99 1315.52 593.266 C 1309 596.178 1304.3 601.425 1299.18 606.22 C 1298.78 604.268 1299.58 602.67 1300.59 600.985 C 1301.49 599.493 1303.32 597.926 1303.97 596.407 z"/>
<path transform="translate(0,0)" fill="rgb(250,160,154)" d="M 1298.1 568.762 C 1306.82 562.834 1314.08 557.88 1325 557.353 C 1316.7 566.894 1302.19 578.68 1303.3 592.992 C 1303.43 594.654 1303.57 594.946 1303.97 596.407 C 1303.32 597.926 1301.49 599.493 1300.59 600.985 C 1299.58 602.67 1298.78 604.268 1299.18 606.22 C 1304.3 601.425 1309 596.178 1315.52 593.266 C 1316.13 592.99 1316.76 592.732 1317.38 592.465 C 1322.4 592.337 1325.67 594.01 1329.26 597.521 C 1339.42 607.456 1342.11 627.476 1341.87 641.106 C 1341.76 647.509 1341.6 654.445 1340.56 660.757 C 1333.79 679.743 1322.27 688.111 1304.83 696.543 C 1299.41 700.375 1292.58 701.23 1287.64 705.811 L 1287.93 707.485 C 1286.54 707.886 1285.13 708.331 1283.72 708.686 C 1284.16 699.314 1286.04 689.615 1287.22 680.271 C 1289.55 661.907 1291.83 643.454 1293.45 625.014 C 1294.46 613.482 1294.16 576.57 1298.1 568.762 z"/>
<path transform="translate(0,0)" fill="rgb(245,140,142)" d="M 1315.75 635.275 L 1314.03 633.323 C 1313.97 625.687 1311.93 603.367 1315.44 597.247 L 1318.12 596.694 C 1318.15 606.253 1320.58 626.305 1317.18 634.575 L 1315.75 635.275 z"/>
<path transform="translate(0,0)" fill="rgb(254,216,196)" d="M 1317.18 634.575 C 1324.77 635.898 1331.42 639.609 1335.99 645.895 C 1338.75 649.689 1340.04 652.432 1340.3 657.085 C 1340.36 658.308 1340.48 659.534 1340.56 660.757 C 1333.79 679.743 1322.27 688.111 1304.83 696.543 C 1305.21 693.288 1307.7 691.206 1309.65 688.748 C 1314.03 683.224 1321.73 674.6 1320.53 667.033 C 1319.2 658.679 1311.49 652.971 1305.17 648.306 C 1308.43 643.728 1311.45 638.941 1315.75 635.275 L 1317.18 634.575 z"/>
<path transform="translate(0,0)" fill="rgb(65,47,68)" d="M 684.668 158.06 C 693.237 145.516 706.876 134.223 717.989 123.867 C 775.436 70.3331 844.399 26.5525 921.884 9.70333 C 961.028 1.19155 1002.74 0.487298 1037.48 22.807 L 1037.98 22.5623 C 1061.39 10.9241 1090.06 11.6768 1115.13 16.4972 C 1177.63 28.5113 1256.67 80.9549 1292.59 133.94 C 1292.41 134.443 1292.22 134.942 1292.06 135.45 C 1289.62 143.107 1292.49 155.353 1291.87 163.73 C 1289.04 201.761 1268.19 234.244 1238.71 257.343 C 1240.96 261.813 1243.87 266.571 1245.65 271.211 L 1244.82 272.038 C 1243.72 270.381 1242.68 268.849 1241.31 267.402 L 1241.26 270.078 C 1245.41 277.783 1247.15 286.699 1252.17 293.837 C 1251.56 302.215 1259.3 315.624 1262.43 323.644 A 409.059 409.059 0 0 1 1281.43 386.29 C 1290.07 426.72 1294.36 469.146 1295.93 510.421 C 1296.34 521.197 1294.94 561.336 1298.1 568.762 C 1294.16 576.57 1294.46 613.482 1293.45 625.014 C 1291.83 643.454 1289.55 661.907 1287.22 680.271 C 1286.04 689.615 1284.16 699.314 1283.72 708.686 C 1280.39 720.312 1276.01 739.441 1275.38 751.28 C 1270.64 761.282 1265.29 790.887 1261.74 803.365 A 582.927 582.927 0 0 1 1224.82 900.812 C 1211.18 929.419 1195.07 955.38 1174.53 979.534 C 1170.7 984.031 1164.8 989.506 1162.89 995.077 C 1157.36 996.806 1135.33 1016.97 1127.37 1021.8 C 1112.29 1030.94 1094.37 1036.06 1077.6 1041.07 C 1117.52 1017.25 1139.57 957.747 1152.74 914.825 C 1143.44 916.034 1124.76 932.263 1115.99 937.705 C 1102.71 945.956 1088.91 954.312 1075.36 962.115 C 1048.8 977.414 1014.21 996.741 984.759 1005.58 C 960.674 997.146 942.201 979.743 919.831 968.473 C 918.284 967.694 917.242 967.297 915.524 967.89 C 913.59 961.748 912.742 953.662 912.782 947.193 C 903.222 938.646 878.126 926.164 866.138 918.855 C 798.304 877.492 756.511 846.804 730.879 768.112 C 730.114 757.42 725.82 744.322 722.493 734.081 L 721.75 731.822 L 726.102 728.305 C 715.585 719.323 705.337 710.255 695.376 700.656 A 1562.77 1562.77 0 0 0 683.043 687.719 C 678.065 681.137 673.095 673.088 666.722 667.856 C 665.975 661.758 645.361 633.104 641.057 625.664 A 418.587 418.587 0 0 1 628.246 601.18 C 615.762 575.365 608.224 549.248 600.125 521.911 C 598.247 521.491 598.763 521.711 597.121 520.973 C 576.511 511.715 565.993 495.784 558.462 475.233 C 557.441 470.847 556.866 466.305 556.13 461.86 C 553.475 446.582 555.612 426.772 559.78 411.983 C 561.138 405.173 562.811 398.655 564.876 392.025 C 563.541 391.755 562.509 391.386 561.253 390.885 C 559.916 387.073 561.557 382.406 560.841 378.148 C 560.787 377.826 560.725 377.506 560.667 377.185 C 573.688 327.32 594.257 283.424 621.427 239.774 C 641.291 210.922 659.798 183.04 684.668 158.06 z M 560.667 377.185 C 560.725 377.506 560.787 377.826 560.841 378.148 C 561.557 382.406 559.916 387.073 561.253 390.885 C 562.509 391.386 563.541 391.755 564.876 392.025 C 562.811 398.655 561.138 405.173 559.78 411.983 C 555.612 426.772 553.475 446.582 556.13 461.86 C 556.866 466.305 557.441 470.847 558.462 475.233 C 565.993 495.784 576.511 511.715 597.121 520.973 C 598.763 521.711 598.247 521.491 600.125 521.911 C 608.224 549.248 615.762 575.365 628.246 601.18 A 418.587 418.587 0 0 0 641.057 625.664 C 645.361 633.104 665.975 661.758 666.722 667.856 C 673.095 673.088 678.065 681.137 683.043 687.719 A 1562.77 1562.77 0 0 1 695.376 700.656 C 705.337 710.255 715.585 719.323 726.102 728.305 C 736.899 736.376 748.099 743.271 759.756 749.997 C 753.148 742.548 746.093 734.843 740.758 726.409 C 724.16 700.169 711.494 660.357 703.417 630.221 C 702.025 625.028 698.631 616.014 701.393 611.234 L 700.921 609.862 L 698.935 609.193 C 694.197 601.64 694.581 586.277 693.751 577.302 L 691.753 563.422 C 690.367 555.082 688.889 546.054 689.252 537.607 C 685.77 528.047 686.871 514.519 686.853 504.494 C 686.765 458.214 692.583 414.136 703.868 369.228 C 706.527 358.646 709.961 348.275 712.761 337.731 C 714.31 331.9 716.11 328.366 712.853 322.762 C 711.322 325.273 710.928 326.227 708.327 327.73 L 706.55 326.93 C 702.334 318.558 704.326 307.376 705.847 298.499 L 699.44 298.625 C 691.557 295.351 688.144 281.376 683.114 274.431 L 682.28 273.299 C 674.281 272.544 666.195 273.398 658.205 272.29 C 640.491 269.835 631.176 252.988 621.427 239.774 C 594.257 283.424 573.688 327.32 560.667 377.185 z"/>
<path transform="translate(0,0)" fill="rgb(46,30,51)" d="M 1241.26 270.078 C 1239.16 268.931 1237.03 263.898 1235.91 261.814 C 1216.26 225.443 1195.27 193.168 1166.6 163.29 A 310.244 310.244 0 0 0 1132.2 131.871 C 1125.5 126.637 1103.17 113.472 1100.15 107.698 L 1101.38 106.63 C 1107.14 108.017 1116.36 116.463 1121.42 120.077 C 1158 146.187 1189.6 182.595 1214.7 219.599 C 1222.24 230.71 1230.12 246 1237.64 255.964 C 1237.99 256.428 1238.35 256.883 1238.71 257.343 C 1240.96 261.813 1243.87 266.571 1245.65 271.211 L 1244.82 272.038 C 1243.72 270.381 1242.68 268.849 1241.31 267.402 L 1241.26 270.078 z"/>
<path transform="translate(0,0)" fill="rgb(136,115,133)" d="M 896.525 317.445 C 908.937 319.206 921.652 320.738 934.183 321.084 C 941.181 321.278 948.175 320.755 955.166 321.107 L 955.907 322.352 C 952.78 327.228 945.596 330.051 940.441 332.516 C 939.275 331.512 936.997 329.33 935.446 329.093 C 930.28 328.303 918.165 344.846 908.61 343.236 C 905.3 342.679 903 340.347 901.233 337.679 C 897.215 331.616 895.003 324.687 896.525 317.445 z"/>
<path transform="translate(0,0)" fill="rgb(136,115,133)" d="M 763.048 285.411 C 784.944 299.219 806.348 307.588 831.2 314.55 C 826.602 319.314 821.762 322.898 816.006 326.13 C 813.495 326.981 809.686 328.345 807.055 327.987 C 803.811 327.546 801.108 324.78 799.02 322.536 C 796.539 319.869 793.994 317.536 791.205 315.198 C 783.343 317.659 771.378 322.878 763.296 320.321 C 760.579 319.461 758.847 317.909 757.665 315.298 C 754.157 307.545 760.172 292.806 763.048 285.411 z"/>
<path transform="translate(0,0)" fill="rgb(254,216,196)" d="M 797.874 451.693 C 796.554 450.8 797.226 451.431 796.159 449.523 C 796.278 449.174 796.363 448.813 796.515 448.478 C 798.168 444.838 832.027 407.047 837.04 400.913 C 840.757 396.366 850.008 382.658 854.506 379.889 C 855.402 379.338 856.485 379.176 857.475 378.82 C 850.53 406.697 839.825 431.863 827.932 457.899 C 818.246 454.392 808.191 452.164 797.874 451.693 z"/>
<path transform="translate(0,0)" fill="rgb(136,115,133)" d="M 1131.05 308.556 C 1137.27 303.712 1168.85 294.114 1178.63 289.517 C 1193.79 282.386 1206.4 272.867 1220.13 263.532 C 1221.1 270.013 1222.14 276.355 1222 282.927 C 1220.92 287.432 1220.18 293.164 1216.14 296.043 C 1208.86 301.226 1197.04 296.048 1188.83 299.574 C 1174.17 305.875 1179.13 331.871 1155.66 324.855 C 1145.55 321.834 1139.87 313.164 1131.05 308.556 z"/>
<path transform="translate(0,0)" fill="rgb(250,160,154)" d="M 765.245 454.799 C 807.926 411.668 844.879 354.446 873.946 301.399 C 868.46 327.156 865.111 353.58 857.475 378.82 C 856.485 379.176 855.402 379.338 854.506 379.889 C 850.008 382.658 840.757 396.366 837.04 400.913 C 832.027 407.047 798.168 444.838 796.515 448.478 C 796.363 448.813 796.278 449.174 796.159 449.523 C 797.226 451.431 796.554 450.8 797.874 451.693 C 787.063 451.865 775.892 452.956 765.245 454.799 z"/>
<path transform="translate(0,0)" fill="rgb(46,30,51)" d="M 735.426 272.592 L 735.953 271.833 C 742.432 262.36 747.427 251.872 753.623 242.195 C 759.738 232.644 792.873 183.66 801.204 179.803 C 800.985 182.667 784.38 204.606 781.487 209.179 C 769.537 228.063 759.347 248.285 750.354 268.735 C 722.184 332.797 709.329 398.481 704.256 468.018 C 703.419 479.492 698.303 512.987 704.331 522.518 C 699.339 527.545 694.452 532.802 689.252 537.607 C 685.77 528.047 686.871 514.519 686.853 504.494 C 686.765 458.214 692.583 414.136 703.868 369.228 C 706.527 358.646 709.961 348.275 712.761 337.731 C 714.31 331.9 716.11 328.366 712.853 322.762 C 720.367 305.984 727.28 289.097 735.426 272.592 z"/>
<path transform="translate(0,0)" fill="rgb(46,30,51)" d="M 1017.66 173.855 C 1062.5 206.049 1095.07 248.417 1121.88 296.195 C 1123.8 299.603 1127.21 308.053 1131.05 308.556 C 1130.61 317.611 1151.62 359.577 1156.27 372.573 A 497.213 497.213 0 0 1 1186.21 522.98 C 1186.75 533.969 1188.81 548.498 1183.45 558.487 L 1182.33 557.924 C 1180.63 529.584 1177.22 501.188 1170 473.678 L 1160.67 469.072 L 1146.67 461.38 L 1151.08 459.28 L 1156.06 461.612 C 1160.62 464.986 1165.37 468.087 1170.08 471.231 C 1165.94 455.498 1162.48 439.703 1157.86 424.074 C 1139.14 360.697 1110.67 300.958 1066.76 251.022 C 1051.35 233.504 1034.85 216.909 1015.06 204.392 C 1014.03 195.151 1017.01 183.322 1017.66 173.855 z"/>
<path transform="translate(0,0)" fill="rgb(136,115,133)" d="M 684.668 158.06 C 684.812 158.611 684.967 159.159 685.099 159.713 C 687.085 168.054 684.232 178.66 684.988 187.425 C 687.71 218.975 710.671 253.756 735.426 272.592 C 727.28 289.097 720.367 305.984 712.853 322.762 C 711.322 325.273 710.928 326.227 708.327 327.73 L 706.55 326.93 C 702.334 318.558 704.326 307.376 705.847 298.499 L 699.44 298.625 C 691.557 295.351 688.144 281.376 683.114 274.431 L 682.28 273.299 C 674.281 272.544 666.195 273.398 658.205 272.29 C 640.491 269.835 631.176 252.988 621.427 239.774 C 641.291 210.922 659.798 183.04 684.668 158.06 z"/>
<path transform="translate(0,0)" fill="rgb(254,216,196)" d="M 774.054 463.499 C 789.195 459.719 808.853 461.33 824.066 464.729 C 814.337 484.507 798.847 509.813 781.47 523.981 C 776.06 528.391 769.426 531.85 763.52 535.629 C 750.416 543.67 729.225 554.751 721.478 568.132 C 721.538 569.402 721.852 570.686 721.659 571.944 C 721.263 574.529 717.458 579.857 716.132 582.398 C 713.856 586.76 713.152 590.197 711.761 594.776 L 714.382 595.767 L 714.306 597.553 L 715.554 598.999 C 711.349 605.349 706.822 606.058 700.921 609.862 L 698.935 609.193 C 694.197 601.64 694.581 586.277 693.751 577.302 L 691.753 563.422 C 690.367 555.082 688.889 546.054 689.252 537.607 C 694.452 532.802 699.339 527.545 704.331 522.518 C 717.798 509.906 748.777 471.839 761.244 465.811 C 765.096 463.949 769.846 463.855 774.054 463.499 z"/>
<path transform="translate(0,0)" fill="rgb(253,199,188)" d="M 696.037 551.74 C 697.001 560.886 695.45 568.405 693.751 577.302 L 691.753 563.422 C 692.065 558.513 692.848 555.59 696.037 551.74 z"/>
<path transform="translate(0,0)" fill="rgb(250,160,154)" d="M 721.478 568.132 C 721.538 569.402 721.852 570.686 721.659 571.944 C 721.263 574.529 717.458 579.857 716.132 582.398 C 713.856 586.76 713.152 590.197 711.761 594.776 L 706.794 594.181 L 705.666 592.64 C 706.678 584.002 716.161 574.784 721.478 568.132 z"/>
<path transform="translate(0,0)" fill="rgb(250,160,154)" d="M 704.331 522.518 C 717.798 509.906 748.777 471.839 761.244 465.811 C 765.096 463.949 769.846 463.855 774.054 463.499 C 765.148 483.817 705.434 523.001 696.83 543.104 C 695.682 545.786 695.923 548.888 696.037 551.74 C 692.848 555.59 692.065 558.513 691.753 563.422 C 690.367 555.082 688.889 546.054 689.252 537.607 C 694.452 532.802 699.339 527.545 704.331 522.518 z"/>
<path transform="translate(0,0)" fill="rgb(250,160,154)" d="M 1015.06 204.392 C 1034.85 216.909 1051.35 233.504 1066.76 251.022 C 1110.67 300.958 1139.14 360.697 1157.86 424.074 C 1162.48 439.703 1165.94 455.498 1170.08 471.231 C 1165.37 468.087 1160.62 464.986 1156.06 461.612 C 1157.38 456.475 1153.72 446.54 1152.39 441.216 C 1142.27 400.87 1128.9 361.206 1107.62 325.262 C 1095.07 304.053 1080.13 284.941 1064.33 266.08 C 1054.35 254.178 1042.75 242.214 1034.69 228.901 C 1019.97 335.116 956.975 434.208 872.21 498.525 C 859.28 508.336 843.523 517.987 828.526 524.219 C 827.026 524.842 827.674 524.535 826.066 525.569 C 819.805 524.909 810.072 523.562 804.304 521.558 C 813.562 515.242 823.638 509.812 833.156 503.859 C 912.385 454.299 971.463 360.777 999.161 272.908 C 1006.3 250.258 1009.78 227.406 1015.06 204.392 z"/>
<path transform="translate(0,0)" fill="rgb(65,47,68)" d="M 560.667 377.185 C 573.688 327.32 594.257 283.424 621.427 239.774 C 631.176 252.988 640.491 269.835 658.205 272.29 C 666.195 273.398 674.281 272.544 682.28 273.299 L 683.114 274.431 C 688.144 281.376 691.557 295.351 699.44 298.625 L 705.847 298.499 C 704.326 307.376 702.334 318.558 706.55 326.93 L 708.327 327.73 C 710.928 326.227 711.322 325.273 712.853 322.762 C 716.11 328.366 714.31 331.9 712.761 337.731 C 709.961 348.275 706.527 358.646 703.868 369.228 C 692.583 414.136 686.765 458.214 686.853 504.494 C 686.871 514.519 685.77 528.047 689.252 537.607 C 688.889 546.054 690.367 555.082 691.753 563.422 L 693.751 577.302 C 694.581 586.277 694.197 601.64 698.935 609.193 L 700.921 609.862 L 701.393 611.234 C 698.631 616.014 702.025 625.028 703.417 630.221 C 711.494 660.357 724.16 700.169 740.758 726.409 C 746.093 734.843 753.148 742.548 759.756 749.997 C 748.099 743.271 736.899 736.376 726.102 728.305 C 715.585 719.323 705.337 710.255 695.376 700.656 A 1562.77 1562.77 0 0 0 683.043 687.719 C 678.065 681.137 673.095 673.088 666.722 667.856 C 665.975 661.758 645.361 633.104 641.057 625.664 A 418.587 418.587 0 0 1 628.246 601.18 C 615.762 575.365 608.224 549.248 600.125 521.911 C 598.247 521.491 598.763 521.711 597.121 520.973 C 576.511 511.715 565.993 495.784 558.462 475.233 C 557.441 470.847 556.866 466.305 556.13 461.86 C 553.475 446.582 555.612 426.772 559.78 411.983 C 561.138 405.173 562.811 398.655 564.876 392.025 C 563.541 391.755 562.509 391.386 561.253 390.885 C 559.916 387.073 561.557 382.406 560.841 378.148 C 560.787 377.826 560.725 377.506 560.667 377.185 z M 564.876 392.025 C 562.811 398.655 561.138 405.173 559.78 411.983 C 555.612 426.772 553.475 446.582 556.13 461.86 C 556.866 466.305 557.441 470.847 558.462 475.233 C 565.993 495.784 576.511 511.715 597.121 520.973 C 598.763 521.711 598.247 521.491 600.125 521.911 C 599.334 510.269 594.929 498.513 593.372 486.842 A 372.464 372.464 0 0 1 596.722 369.809 C 599.749 353.764 604.019 338.057 608.707 322.425 C 610.905 315.097 614.938 307.071 615.623 299.562 L 614.685 298.622 C 599.902 306.925 570.53 373.535 564.876 392.025 z"/>
<path transform="translate(0,0)" fill="rgb(254,216,196)" d="M 826.066 525.569 C 827.674 524.535 827.026 524.842 828.526 524.219 C 843.523 517.987 859.28 508.336 872.21 498.525 C 956.975 434.208 1019.97 335.116 1034.69 228.901 C 1042.75 242.214 1054.35 254.178 1064.33 266.08 C 1080.13 284.941 1095.07 304.053 1107.62 325.262 C 1128.9 361.206 1142.27 400.87 1152.39 441.216 C 1153.72 446.54 1157.38 456.475 1156.06 461.612 L 1151.08 459.28 L 1146.67 461.38 L 1160.67 469.072 L 1170 473.678 C 1177.22 501.188 1180.63 529.584 1182.33 557.924 C 1182.91 567.946 1184.41 578.774 1183.48 588.749 C 1185.99 591.462 1188.26 595.188 1188.09 599.04 C 1187.91 602.92 1186.57 606.338 1184.7 609.651 C 1184.35 610.276 1183.8 611.147 1183.79 611.894 C 1185.04 634.872 1181.13 658.324 1178.98 681.154 C 1180.48 681.938 1180.52 681.558 1181 682.95 C 1183.46 689.954 1181.28 726.692 1180.63 736.142 C 1180.31 740.878 1179.07 746.256 1179.28 750.933 C 1180.25 760.696 1177.69 771.615 1176.94 781.453 C 1174.57 802.883 1172.58 831.47 1166.35 851.778 C 1164.57 872.835 1158.17 894.442 1152.74 914.825 C 1143.44 916.034 1124.76 932.263 1115.99 937.705 C 1102.71 945.956 1088.91 954.312 1075.36 962.115 C 1048.8 977.414 1014.21 996.741 984.759 1005.58 C 960.674 997.146 942.201 979.743 919.831 968.473 C 918.284 967.694 917.242 967.297 915.524 967.89 C 913.59 961.748 912.742 953.662 912.782 947.193 C 903.222 938.646 878.126 926.164 866.138 918.855 C 798.304 877.492 756.511 846.804 730.879 768.112 C 730.114 757.42 725.82 744.322 722.493 734.081 L 721.75 731.822 L 726.102 728.305 C 736.899 736.376 748.099 743.271 759.756 749.997 C 753.148 742.548 746.093 734.843 740.758 726.409 C 724.16 700.169 711.494 660.357 703.417 630.221 C 702.025 625.028 698.631 616.014 701.393 611.234 L 700.921 609.862 C 706.822 606.058 711.349 605.349 715.554 598.999 L 714.306 597.553 L 714.382 595.767 L 711.761 594.776 C 713.152 590.197 713.856 586.76 716.132 582.398 C 717.458 579.857 721.263 574.529 721.659 571.944 C 721.852 570.686 721.538 569.402 721.478 568.132 C 729.225 554.751 750.416 543.67 763.52 535.629 L 763.636 536.891 C 767.926 534.222 771.745 531.864 776.679 530.5 C 787.121 526.686 793.176 527.514 804.304 521.558 C 810.072 523.562 819.805 524.909 826.066 525.569 z"/>
<path transform="translate(0,0)" fill="rgb(245,140,142)" d="M 1160.31 688.471 C 1160.58 688.688 1160.88 688.863 1161.11 689.121 C 1161.9 690.014 1162.41 690.928 1162.3 692.123 C 1161.66 698.581 1155.43 706.388 1150.86 710.725 C 1149.18 709.365 1149.74 710.243 1149.26 708.043 C 1151.85 700.977 1155.72 694.426 1160.31 688.471 z"/>
<path transform="translate(0,0)" fill="rgb(245,140,142)" d="M 1073.21 689.469 L 1075.3 691.3 C 1076.58 699.056 1070.73 711.465 1066.97 718.25 L 1065.76 717.91 L 1065.04 716.021 A 103.172 103.172 0 0 1 1073.21 689.469 z"/>
<path transform="translate(0,0)" fill="rgb(245,140,142)" d="M 766.998 700.42 L 769.892 701.185 C 771.664 707.455 765.23 717.934 762.28 723.56 C 761.213 723.989 760.118 724.073 758.986 724.247 L 757.914 722.631 C 759.179 714.618 763.269 707.514 766.998 700.42 z"/>
<path transform="translate(0,0)" fill="rgb(245,140,142)" d="M 1099.82 688.167 C 1102.27 688.854 1101.16 688.301 1103.18 689.818 C 1104.62 698.027 1099.49 709.18 1096.16 716.623 C 1094.96 716.455 1093.92 716.073 1092.77 715.687 C 1090.7 709.491 1097.61 694.547 1099.82 688.167 z"/>
<path transform="translate(0,0)" fill="rgb(245,140,142)" d="M 1146.07 688.607 C 1146.37 688.804 1146.72 688.946 1146.98 689.197 C 1147.83 690.021 1148.3 690.94 1148.2 692.112 C 1147.53 699.57 1140.39 712.918 1134.46 717.393 C 1133.82 716.26 1133.47 715.419 1133.48 714.046 C 1133.54 706.138 1141.3 694.583 1146.07 688.607 z"/>
<path transform="translate(0,0)" fill="rgb(245,140,142)" d="M 1090.11 685.531 L 1091.88 686.807 C 1092.36 691.601 1081.26 718.337 1078.99 724.53 L 1077.16 722.444 C 1077.82 708.843 1082.17 696.617 1090.11 685.531 z"/>
<path transform="translate(0,0)" fill="rgb(245,140,142)" d="M 755.233 698.357 C 756.416 698.563 757.428 699.029 758.539 699.472 C 760.036 704.274 751.859 725.503 750.481 732.157 C 749.41 732.032 749.956 732.147 748.627 731.669 C 747.439 731.242 747.493 731.526 747.093 730.276 C 744.451 722.025 751.136 705.952 755.233 698.357 z"/>
<path transform="translate(0,0)" fill="rgb(225,104,114)" d="M 885.782 693.75 C 888.955 689.086 892.232 685.121 896.202 681.113 C 894.594 686.664 892.74 692.267 891.484 697.902 C 890.434 710.761 892.506 721.233 896.944 733.282 L 895.952 733.924 L 894.042 732.709 C 890.443 720.562 885.579 712.922 886.043 699.575 L 885.782 693.75 z"/>
<path transform="translate(0,0)" fill="rgb(253,199,188)" d="M 1179.28 750.933 C 1180.25 760.696 1177.69 771.615 1176.94 781.453 C 1174.06 784.983 1173.38 789.645 1172.14 793.949 L 1172.03 792.703 C 1171.24 799.802 1170.8 804.035 1166.9 810.16 C 1168.19 802.308 1173.16 783.625 1170.39 776.927 C 1169.79 775.479 1168.19 775.418 1166.83 774.923 C 1171.42 767.145 1175.31 759.039 1179.28 750.933 z"/>
<path transform="translate(0,0)" fill="rgb(250,160,154)" d="M 894.042 732.709 C 891.058 731.149 887.756 729.662 885.115 727.553 C 880.764 724.077 877.677 718.295 877.396 712.72 C 877.001 704.862 880.805 699.31 885.782 693.75 L 886.043 699.575 C 885.579 712.922 890.443 720.562 894.042 732.709 z"/>
<path transform="translate(0,0)" fill="rgb(245,140,142)" d="M 1132.23 687.537 C 1134.4 688.556 1133.58 687.753 1134.61 690.019 C 1133.8 696.121 1131.71 704.595 1127.93 709.486 C 1126.6 710.087 1125.99 710.823 1124.52 710.207 C 1120.45 708.494 1118.26 702.083 1116.49 698.281 C 1112.79 706 1110.54 714.233 1106.23 721.696 C 1104.36 720.975 1105.29 721.516 1103.57 719.898 C 1103.52 719.224 1103.4 718.191 1103.44 717.47 C 1103.8 711.247 1108.33 695.958 1112.93 691.912 C 1114.72 690.334 1115.33 690.575 1117.58 690.671 C 1121.17 693.038 1122.77 696.855 1125.06 700.371 C 1128.11 698.497 1128.85 690.967 1132.23 687.537 z"/>
<path transform="translate(0,0)" fill="rgb(225,104,114)" d="M 1005.98 788.581 C 1007.99 785.383 1016.24 784.548 1020.01 783.682 C 1025.07 782.52 1030.12 781.318 1035.2 780.215 C 1030.08 796.058 1021.63 818.054 1007.71 828.346 L 1006.66 828.538 C 1012.42 819.902 1017.02 810.672 1023.16 802.265 C 1017.91 797.087 1012.66 791.86 1005.98 788.581 z"/>
<path transform="translate(0,0)" fill="rgb(225,104,114)" d="M 852.432 788.41 C 861.505 790.922 872.142 791.004 880.757 794.163 C 874.966 799.308 872.501 802.458 870.114 810.05 C 874.414 819.774 880.538 828.731 886.516 837.498 C 886.146 837.425 885.764 837.4 885.407 837.279 C 873.641 833.268 857.741 799.766 852.432 788.41 z"/>
<path transform="translate(0,0)" fill="rgb(245,140,142)" d="M 804.304 521.558 C 810.072 523.562 819.805 524.909 826.066 525.569 C 830.692 528.054 841.259 532.737 843.589 537.51 L 842.216 538 C 832.007 532.335 823.219 525.765 810.945 529.045 C 801.658 531.527 793.452 536.208 783.898 538.333 C 779.232 538.247 772.607 541.22 767.826 542.368 C 771.004 539.237 776.115 535.139 776.679 530.5 C 787.121 526.686 793.176 527.514 804.304 521.558 z"/>
<path transform="translate(0,0)" fill="rgb(250,160,154)" d="M 1166.9 810.16 C 1170.8 804.035 1171.24 799.802 1172.03 792.703 L 1172.14 793.949 C 1173.38 789.645 1174.06 784.983 1176.94 781.453 C 1174.57 802.883 1172.58 831.47 1166.35 851.778 C 1157.19 857.838 1148.57 866.187 1138.79 871.058 C 1138.77 870.741 1138.75 870.425 1138.74 870.109 C 1138.72 869.68 1138.73 869.25 1138.72 868.821 C 1138.62 863.968 1151.51 848.377 1154.58 842.601 C 1159.99 832.404 1164.03 821.334 1166.9 810.16 z"/>
<path transform="translate(0,0)" fill="rgb(242,241,246)" d="M 1153.31 605.837 C 1158.76 607.084 1166.2 612.713 1169.25 617.356 C 1171.01 620.035 1170.43 623.476 1170.28 626.547 C 1169.46 629.267 1168.74 632.021 1167.56 634.611 C 1163.45 645.197 1151.43 652.432 1141.42 657.028 C 1136.79 659.151 1127.55 662.853 1122.67 661.191 C 1122.14 661.009 1121.65 660.708 1121.16 660.438 C 1126.19 658.187 1130.43 654.666 1134.25 650.752 C 1140.36 644.534 1144.29 638.391 1148.17 630.672 C 1151.32 622.8 1152.27 614.185 1153.31 605.837 z"/>
<path transform="translate(0,0)" fill="url(#Gradient2)" d="M 1146.67 461.38 A 178.163 178.163 0 0 0 1040.67 448.483 C 1032.09 450.111 1012.28 458.165 1004.73 455.851 L 1004.93 454.276 C 1012.93 446.938 1023.28 443.137 1033.63 440.469 C 1074.08 430.042 1115.63 438.134 1151.08 459.28 L 1146.67 461.38 z"/>
<path transform="translate(0,0)" fill="url(#Gradient3)" d="M 1178.98 681.154 C 1180.48 681.938 1180.52 681.558 1181 682.95 C 1183.46 689.954 1181.28 726.692 1180.63 736.142 C 1180.31 740.878 1179.07 746.256 1179.28 750.933 C 1175.31 759.039 1171.42 767.145 1166.83 774.923 C 1154.11 794.999 1135.24 818.583 1115.11 831.501 C 1153.47 788.938 1167.58 735.888 1178.98 681.154 z"/>
<path transform="translate(0,0)" fill="rgb(250,160,154)" d="M 1160.67 469.072 L 1170 473.678 C 1177.22 501.188 1180.63 529.584 1182.33 557.924 C 1182.91 567.946 1184.41 578.774 1183.48 588.749 C 1181.21 586.657 1179.54 584.097 1177.74 581.604 C 1178.1 580.631 1178.34 580.124 1178.47 579.017 C 1179.37 571.617 1174.07 563.805 1169.33 558.666 C 1148.4 535.961 1113.47 516.783 1082.15 515.663 C 1070.7 515.254 1045.43 518.593 1036.92 526.632 C 1035.47 528.002 1033.86 529.033 1032.23 530.168 L 1030.84 529.853 L 1030.92 527.526 C 1033.36 524.648 1036.09 523.17 1039.44 521.5 C 1053.48 514.506 1078.94 508.584 1094.13 513.933 C 1102.48 516.876 1111.42 518.102 1119.77 521.178 C 1142.44 529.524 1153.39 543.143 1171.91 556.39 L 1172.94 557.111 C 1169.73 544.477 1169.19 530.925 1167.16 518.025 C 1164.97 504.143 1161.63 490.145 1160.25 476.168 C 1160.01 473.765 1160.21 471.44 1160.67 469.072 z"/>
<path transform="translate(0,0)" fill="rgb(242,241,246)" d="M 728.589 630.3 C 735.103 621.337 747.502 603.989 758.602 601.346 L 760.444 602.713 C 758.99 613.395 758.879 623.503 761.593 634.024 A 482.544 482.544 0 0 0 766.198 647.817 C 772.813 659.288 780.554 666.776 793.076 671.695 C 792.777 672.067 792.524 672.481 792.179 672.81 C 789.073 675.769 777.191 674.185 773.442 673.32 C 758.052 669.771 741.898 660.367 733.55 646.8 C 730.749 641.398 729.436 636.274 728.589 630.3 z"/>
<path transform="translate(0,0)" fill="rgb(46,30,51)" d="M 763.52 535.629 L 763.636 536.891 C 767.926 534.222 771.745 531.864 776.679 530.5 C 776.115 535.139 771.004 539.237 767.826 542.368 C 772.607 541.22 779.232 538.247 783.898 538.333 C 782.953 539.385 782.85 539.778 781.46 540.201 C 777.685 541.351 774.466 542.878 771.018 544.776 C 775.126 544.65 777.634 544.518 781.487 543.079 C 785.828 541.459 796.267 542.199 800.66 543.832 C 820.164 546.597 834.608 552.049 851.034 562.831 C 844.883 562.07 838.711 561.394 832.597 560.37 C 836.944 566.002 841.547 571.575 845.425 577.538 C 838.703 572.532 832.636 568.11 824.963 564.675 L 824.418 563.846 C 815.983 559.044 805.813 556.502 796.141 558.037 C 795.694 558.259 795.25 558.485 794.802 558.702 C 786.378 562.774 771.993 563.813 767.498 573.426 C 767.061 574.359 767.107 574.561 767.034 575.454 C 766.3 577.313 765.58 579.166 764.794 581.003 C 763.097 584.968 762.653 588.211 762.502 592.484 C 761.937 595.904 761.506 599.409 760.444 602.713 L 758.602 601.346 C 747.502 603.989 735.103 621.337 728.589 630.3 C 729.436 636.274 730.749 641.398 733.55 646.8 L 731.882 646.564 C 722.612 639.891 718.797 626.333 712.105 617.382 C 708.897 613.092 706.644 612.098 701.393 611.234 L 700.921 609.862 C 706.822 606.058 711.349 605.349 715.554 598.999 L 714.306 597.553 L 714.382 595.767 L 711.761 594.776 C 713.152 590.197 713.856 586.76 716.132 582.398 C 717.458 579.857 721.263 574.529 721.659 571.944 C 721.852 570.686 721.538 569.402 721.478 568.132 C 729.225 554.751 750.416 543.67 763.52 535.629 z"/>
<path transform="translate(0,0)" fill="rgb(253,199,188)" d="M 763.52 535.629 L 763.636 536.891 C 767.926 534.222 771.745 531.864 776.679 530.5 C 776.115 535.139 771.004 539.237 767.826 542.368 C 772.607 541.22 779.232 538.247 783.898 538.333 C 782.953 539.385 782.85 539.778 781.46 540.201 C 777.685 541.351 774.466 542.878 771.018 544.776 C 775.126 544.65 777.634 544.518 781.487 543.079 C 785.828 541.459 796.267 542.199 800.66 543.832 C 775.345 545.103 752.51 550.963 734.764 570.309 C 726.697 579.103 721.93 589.151 715.554 598.999 L 714.306 597.553 L 714.382 595.767 L 711.761 594.776 C 713.152 590.197 713.856 586.76 716.132 582.398 C 717.458 579.857 721.263 574.529 721.659 571.944 C 721.852 570.686 721.538 569.402 721.478 568.132 C 729.225 554.751 750.416 543.67 763.52 535.629 z"/>
<path transform="translate(0,0)" fill="rgb(179,179,207)" d="M 796.141 558.037 C 795.694 558.259 795.25 558.485 794.802 558.702 C 786.378 562.774 771.993 563.813 767.498 573.426 C 767.061 574.359 767.107 574.561 767.034 575.454 C 766.3 577.313 765.58 579.166 764.794 581.003 C 763.097 584.968 762.653 588.211 762.502 592.484 C 761.937 595.904 761.506 599.409 760.444 602.713 L 758.602 601.346 C 747.502 603.989 735.103 621.337 728.589 630.3 C 728.184 628.231 727.777 626.11 727.692 623.999 C 727.036 607.774 736.562 590.003 747.718 578.809 C 760.88 565.602 777.462 558.011 796.141 558.037 z"/>
<path transform="translate(0,0)" fill="rgb(46,30,51)" d="M 796.141 558.037 C 805.813 556.502 815.983 559.044 824.418 563.846 L 824.963 564.675 C 834.702 577.154 845.668 587.788 846.073 604.882 C 848.473 618.627 845.725 634.289 838.719 646.377 C 833.284 657.469 823.096 666.064 811.507 670.263 C 805.196 672.55 799.579 673.532 793.076 671.695 C 780.554 666.776 772.813 659.288 766.198 647.817 A 482.544 482.544 0 0 1 761.593 634.024 C 758.879 623.503 758.99 613.395 760.444 602.713 C 761.506 599.409 761.937 595.904 762.502 592.484 C 762.653 588.211 763.097 584.968 764.794 581.003 C 765.58 579.166 766.3 577.313 767.034 575.454 C 767.107 574.561 767.061 574.359 767.498 573.426 C 771.993 563.813 786.378 562.774 794.802 558.702 C 795.25 558.485 795.694 558.259 796.141 558.037 z"/>
<path transform="translate(0,0)" fill="rgb(100,65,80)" d="M 796.331 610.931 A 256.764 256.764 0 0 0 794.902 621.167 C 782.423 625.234 776.429 640.808 766.198 647.817 A 482.544 482.544 0 0 1 761.593 634.024 C 773 625.812 784.805 618.866 796.331 610.931 z"/>
<path transform="translate(0,0)" fill="rgb(242,241,246)" d="M 767.034 575.454 C 771.913 573.501 776.179 572.08 781.321 574.046 C 784.394 575.221 786.771 577.574 788.065 580.592 C 789.795 584.625 789.503 589.493 787.668 593.436 C 786.236 596.513 783.963 598.793 780.804 600.094 C 777.487 601.46 773.02 600.735 769.985 598.989 C 767.213 597.393 764.774 594.716 762.502 592.484 C 762.653 588.211 763.097 584.968 764.794 581.003 C 765.58 579.166 766.3 577.313 767.034 575.454 z"/>
<path transform="translate(0,0)" fill="url(#Gradient4)" d="M 796.331 610.931 C 796.731 608.472 797.826 607.17 799.68 605.61 C 805.576 600.647 811.672 600.596 818.912 601.059 C 827.658 607.172 835.432 611.568 845.52 615.204 L 845.608 611.582 L 845.57 612.368 L 846.073 604.882 C 848.473 618.627 845.725 634.289 838.719 646.377 C 834.386 639.34 829.242 632.81 826.059 625.132 C 823.397 630.581 820.206 635.815 814.05 637.698 C 810.873 638.67 807.486 638.353 804.589 636.708 C 798.52 633.262 796.597 627.534 794.902 621.167 A 256.764 256.764 0 0 1 796.331 610.931 z"/>
<path transform="translate(0,0)" fill="rgb(171,130,140)" d="M 766.198 647.817 C 776.429 640.808 782.423 625.234 794.902 621.167 C 796.597 627.534 798.52 633.262 804.589 636.708 C 807.486 638.353 810.873 638.67 814.05 637.698 C 820.206 635.815 823.397 630.581 826.059 625.132 C 829.242 632.81 834.386 639.34 838.719 646.377 C 833.284 657.469 823.096 666.064 811.507 670.263 C 805.196 672.55 799.579 673.532 793.076 671.695 C 780.554 666.776 772.813 659.288 766.198 647.817 z"/>
<path transform="translate(0,0)" fill="rgb(242,241,246)" d="M 1005.98 788.581 C 1012.66 791.86 1017.91 797.087 1023.16 802.265 C 1017.02 810.672 1012.42 819.902 1006.66 828.538 C 993.888 846.123 972.218 859.249 950.686 862.492 C 934.921 864.866 916.173 861.593 903.128 852.048 C 897.397 847.855 892.31 841.141 886.516 837.498 C 880.538 828.731 874.414 819.774 870.114 810.05 C 872.501 802.458 874.966 799.308 880.757 794.163 C 890.369 791.674 917.802 795.169 930.08 794.905 A 626.953 626.953 0 0 0 1005.98 788.581 z"/>
<path transform="translate(0,0)" fill="rgb(225,104,114)" d="M 1138.79 871.058 C 1148.57 866.187 1157.19 857.838 1166.35 851.778 C 1164.57 872.835 1158.17 894.442 1152.74 914.825 C 1143.44 916.034 1124.76 932.263 1115.99 937.705 C 1102.71 945.956 1088.91 954.312 1075.36 962.115 C 1048.8 977.414 1014.21 996.741 984.759 1005.58 C 960.674 997.146 942.201 979.743 919.831 968.473 C 918.284 967.694 917.242 967.297 915.524 967.89 C 913.59 961.748 912.742 953.662 912.782 947.193 C 929.524 953.61 944.207 963.889 961.594 969.176 C 1013.7 952.878 1063.2 924.154 1108.32 893.843 C 1118.57 886.962 1127.56 878.288 1137.92 871.609 L 1138.79 871.058 z"/>
<path transform="translate(0,0)" fill="rgb(46,30,51)" d="M 1028.21 547.393 C 1055.16 532.061 1085.19 527.288 1115.39 535.697 C 1142.59 543.272 1160.25 560.485 1177.74 581.604 C 1179.54 584.097 1181.21 586.657 1183.48 588.749 C 1185.99 591.462 1188.26 595.188 1188.09 599.04 C 1187.91 602.92 1186.57 606.338 1184.7 609.651 C 1184.35 610.276 1183.8 611.147 1183.79 611.894 C 1179.29 619.321 1175.02 627.9 1169.14 634.275 L 1167.56 634.611 C 1168.74 632.021 1169.46 629.267 1170.28 626.547 C 1170.43 623.476 1171.01 620.035 1169.25 617.356 C 1166.2 612.713 1158.76 607.084 1153.31 605.837 C 1152.27 614.185 1151.32 622.8 1148.17 630.672 C 1144.29 638.391 1140.36 644.534 1134.25 650.752 C 1130.43 654.666 1126.19 658.187 1121.16 660.438 C 1107.86 663.855 1097.61 664.074 1084.84 658.636 C 1081.31 659.975 1079.11 659.248 1075.68 657.809 C 1062.37 652.228 1050.66 638.689 1045.54 625.315 C 1039.39 609.274 1040.96 592.583 1047.57 577.076 C 1047.53 570.124 1046.79 565.437 1043.91 559.022 L 1042.1 559.005 C 1039.25 558.999 1036.46 559.364 1033.64 559.706 C 1034.52 558.76 1035.35 558.085 1036.37 557.307 L 1035.57 557.057 C 1041.73 551.424 1048.42 546.384 1054.52 540.779 C 1045.49 542.357 1037.09 545.397 1028.21 547.393 z"/>
<path transform="translate(0,0)" fill="rgb(179,179,207)" d="M 1043.91 559.022 C 1054.57 553.321 1071.72 547.396 1083.93 548.674 C 1077.79 553.324 1064.63 557.897 1062.92 566.169 C 1062.86 566.498 1062.88 566.84 1062.85 567.176 C 1061.93 569.827 1061.09 571.869 1059.53 574.238 A 227.485 227.485 0 0 1 1059.68 568.65 L 1058.16 568.102 C 1054.52 570.978 1051.05 574.006 1047.57 577.076 C 1047.53 570.124 1046.79 565.437 1043.91 559.022 z"/>
<path transform="translate(0,0)" fill="rgb(100,65,80)" d="M 1091.88 607.675 C 1092.27 612.149 1092.67 616.612 1092.89 621.1 C 1084.61 628.311 1079.1 639.165 1072.67 647.98 C 1069.3 642.973 1066.67 637.763 1064 632.367 C 1071.05 622.021 1081.4 614.193 1091.88 607.675 z"/>
<path transform="translate(0,0)" fill="rgb(179,179,207)" d="M 1130.28 559.16 C 1145.54 566.913 1164.67 582.921 1169.88 599.786 C 1172.52 608.338 1171.9 617.833 1170.28 626.547 C 1170.43 623.476 1171.01 620.035 1169.25 617.356 C 1166.2 612.713 1158.76 607.084 1153.31 605.837 C 1153.13 602.154 1152.47 598.797 1151.66 595.203 C 1147.97 578.833 1141.53 570.854 1130.28 559.16 z"/>
<path transform="translate(0,0)" fill="rgb(100,65,80)" d="M 1108.74 590.937 C 1121.42 590.795 1132.86 591.088 1144.92 595.684 C 1146.88 596.434 1148.21 597.083 1150.34 597.016 L 1151.66 595.203 C 1152.47 598.797 1153.13 602.154 1153.31 605.837 C 1152.27 614.185 1151.32 622.8 1148.17 630.672 C 1144.29 638.391 1140.36 644.534 1134.25 650.752 C 1132.91 649.627 1133.14 650.115 1132.57 648.74 C 1128.66 639.313 1123.69 631.61 1118.01 623.218 C 1119.63 619.149 1120.89 615.004 1122.18 610.824 C 1118.54 602.058 1116.35 597.023 1108.74 590.937 z"/>
<path transform="translate(0,0)" fill="rgb(136,115,133)" d="M 1122.18 610.824 C 1131.66 616.839 1140.29 622.66 1148.17 630.672 C 1144.29 638.391 1140.36 644.534 1134.25 650.752 C 1132.91 649.627 1133.14 650.115 1132.57 648.74 C 1128.66 639.313 1123.69 631.61 1118.01 623.218 C 1119.63 619.149 1120.89 615.004 1122.18 610.824 z"/>
<path transform="translate(0,0)" fill="rgb(171,130,140)" d="M 1072.67 647.98 C 1079.1 639.165 1084.61 628.311 1092.89 621.1 C 1096.33 625.245 1099.83 628.654 1105.48 629.157 C 1109.41 629.507 1113 628.179 1115.82 625.483 C 1116.58 624.757 1117.29 623.982 1118.01 623.218 C 1123.69 631.61 1128.66 639.313 1132.57 648.74 C 1133.14 650.115 1132.91 649.627 1134.25 650.752 C 1130.43 654.666 1126.19 658.187 1121.16 660.438 C 1107.86 663.855 1097.61 664.074 1084.84 658.636 C 1080.27 655.367 1076.51 652.096 1072.67 647.98 z"/>
<path transform="translate(0,0)" fill="rgb(242,241,246)" d="M 1062.85 567.176 C 1066.61 564.347 1071.38 561.892 1076.29 562.96 C 1079.3 563.615 1081.47 565.28 1083 567.954 C 1085.33 572.021 1085.69 577.127 1084.46 581.607 C 1083.46 585.202 1081.43 588.917 1077.98 590.659 C 1074.36 592.486 1070.68 591.347 1067.25 589.758 C 1063.29 587.927 1060.77 584.697 1058.03 581.439 C 1057.17 599.345 1056.92 615.45 1064 632.367 C 1066.67 637.763 1069.3 642.973 1072.67 647.98 C 1076.51 652.096 1080.27 655.367 1084.84 658.636 C 1081.31 659.975 1079.11 659.248 1075.68 657.809 C 1062.37 652.228 1050.66 638.689 1045.54 625.315 C 1039.39 609.274 1040.96 592.583 1047.57 577.076 C 1051.05 574.006 1054.52 570.978 1058.16 568.102 L 1059.68 568.65 A 227.485 227.485 0 0 0 1059.53 574.238 C 1061.09 571.869 1061.93 569.827 1062.85 567.176 z"/>
<path transform="translate(0,0)" fill="url(#Gradient5)" d="M 984.759 1005.58 C 1014.21 996.741 1048.8 977.414 1075.36 962.115 C 1088.91 954.312 1102.71 945.956 1115.99 937.705 C 1124.76 932.263 1143.44 916.034 1152.74 914.825 C 1139.57 957.747 1117.52 1017.25 1077.6 1041.07 C 1094.37 1036.06 1112.29 1030.94 1127.37 1021.8 C 1135.33 1016.97 1157.36 996.806 1162.89 995.077 C 1162.98 1018.74 1162.74 1061.28 1180.52 1078.89 C 1182.24 1080.6 1181.54 1080.09 1183.81 1080.85 C 1189.46 1087.22 1194.73 1092.6 1201.95 1097.27 C 1209.69 1105.29 1218.36 1110.8 1228.03 1116.24 C 1230.63 1117.71 1234.52 1118.65 1236.67 1120.44 C 1244.78 1128.64 1258.71 1133.84 1269.25 1138.36 C 1271.42 1131.03 1272.91 1123.68 1274.34 1116.18 C 1295.11 1121.45 1312.35 1135.34 1333.17 1141.2 C 1348.07 1146.29 1363.55 1149.87 1378.68 1154.21 C 1439.41 1171.62 1502.71 1194.18 1532.44 1254.77 C 1552.31 1295.26 1567.54 1340.05 1578.99 1383.65 C 1583.62 1401.31 1585.47 1420.05 1591.65 1437.24 C 1599.5 1459.06 1610.55 1481.18 1619.62 1502.72 A 5097.95 5097.95 0 0 1 1664.21 1614 C 1672.59 1635.39 1683.5 1658.04 1687.6 1680.68 C 1653.78 1673.43 1616.89 1683.08 1586.2 1697.89 C 1590.47 1727.09 1589.87 1766.47 1597.16 1793.52 C 1594.88 1807.67 1600.74 1846.72 1601.03 1864.47 C 1602.74 1875.54 1603.31 1886.56 1604.49 1897.67 C 1607.35 1924.67 1609.71 1951.69 1612 1978.75 C 1613.73 1999.17 1617.15 2020.05 1617.65 2040.53 A 24.1732 24.1732 0 0 1 1616.66 2048 L 1459.72 2048 L 1440.57 2048 L 1381.34 2048 L 1351.51 2048 L 1080.41 2048 L 1045.84 2048 L 679.949 2048 L 635.21 2048 L 573.913 2048 L 560.924 2048 L 401.247 2048 C 400.284 2028.21 405.219 2005.99 407.989 1986.34 A 7747.47 7747.47 0 0 1 422.47 1888.2 C 425.316 1869.76 428.783 1851.3 430.98 1832.77 C 435.155 1820.11 436.037 1804.31 437.459 1791.02 C 442.956 1781.2 450.08 1724.81 453.404 1708.99 C 423.486 1697.16 396.63 1692.07 364.72 1696.29 C 367.927 1672.44 380.201 1647.55 388.981 1625.17 L 437.688 1501.99 C 442.633 1489.45 448.811 1477.29 453.358 1464.62 C 460.24 1445.46 461.677 1423.4 465.994 1403.38 C 475.78 1358.01 495.267 1294.51 517.608 1254.11 C 556.983 1182.91 643.743 1166.2 715.76 1145.3 C 730.897 1137.81 747.074 1127.84 763.678 1124.56 C 776.423 1121.73 794.423 1123.61 806.955 1127.02 C 827.592 1122.71 875.484 1095.33 891.215 1081.03 C 894.618 1080.38 896.008 1079.49 898.22 1076.8 C 924.641 1044.6 919.334 1006.56 915.524 967.89 C 917.242 967.297 918.284 967.694 919.831 968.473 C 942.201 979.743 960.674 997.146 984.759 1005.58 z M 1586.2 1697.89 C 1535.42 1719.91 1488.86 1751.19 1443.73 1782.92 C 1427.53 1794.3 1408.64 1806.69 1395.04 1821.12 C 1394.5 1829 1396.66 1849.52 1395.39 1854.17 C 1383.98 1876.96 1385.71 1901.82 1380.17 1925.97 C 1377.17 1943.83 1373.94 1961.88 1372.26 1979.91 C 1374.83 1992.29 1375.49 2004.87 1377.23 2017.37 C 1378.62 2027.38 1381.19 2037.91 1381.34 2048 L 1440.57 2048 L 1459.72 2048 L 1616.66 2048 A 24.1732 24.1732 0 0 0 1617.65 2040.53 C 1617.15 2020.05 1613.73 1999.17 1612 1978.75 C 1609.71 1951.69 1607.35 1924.67 1604.49 1897.67 C 1603.31 1886.56 1602.74 1875.54 1601.03 1864.47 C 1600.74 1846.72 1594.88 1807.67 1597.16 1793.52 C 1589.87 1766.47 1590.47 1727.09 1586.2 1697.89 z M 453.404 1708.99 C 450.08 1724.81 442.956 1781.2 437.459 1791.02 C 436.037 1804.31 435.155 1820.11 430.98 1832.77 C 428.783 1851.3 425.316 1869.76 422.47 1888.2 A 7747.47 7747.47 0 0 0 407.989 1986.34 C 405.219 2005.99 400.284 2028.21 401.247 2048 L 560.924 2048 L 573.913 2048 L 635.21 2048 C 635.454 2033.69 640.45 2018.27 642.459 2003.99 C 644.346 1990.58 643.746 1976.69 646.537 1963.46 C 648.487 1951.67 642.766 1929.5 640.959 1916.79 C 640.852 1902.94 633.87 1871.73 629.849 1857.75 C 629.026 1855.98 628.987 1856.52 629.061 1854.92 C 629.596 1843.32 629.618 1832.34 626.187 1821.15 C 608.876 1801.85 578.714 1785.46 557.872 1768.75 A 533.726 533.726 0 0 0 453.404 1708.99 z"/>
<path transform="translate(0,0)" fill="rgb(146,144,174)" d="M 641.588 1417.26 C 642.604 1404.22 644.811 1390.59 644.872 1377.57 C 644.874 1377.2 644.854 1376.82 644.845 1376.44 L 646.271 1376.64 L 646.285 1374.94 L 645.47 1374.66 L 646.26 1372.93 C 647.049 1387.18 646.156 1401.93 646.004 1416.22 L 644.235 1417.77 C 643.856 1415.93 643.82 1414.36 643.88 1412.49 C 642.744 1414.73 643.181 1416.92 643.269 1419.38 L 642.429 1419.46 L 641.588 1417.26 z"/>
<path transform="translate(0,0)" fill="rgb(146,144,174)" d="M 632.662 1518.2 L 634.044 1519.83 C 633.399 1522.06 632.438 1523.92 632.973 1526.22 C 634.573 1523.48 634.916 1520.92 635.407 1517.85 L 636.449 1519.65 C 633.709 1532.39 631.461 1545.72 627.781 1558.19 C 626.164 1556.37 625.688 1555.46 625.319 1553.05 A 543.47 543.47 0 0 1 632.662 1518.2 z"/>
<path transform="translate(0,0)" fill="rgb(179,179,207)" d="M 1351.48 2043.87 C 1351.37 2042.7 1351.29 2042.3 1351.43 2040.98 C 1352.41 2031.53 1373.93 1930.33 1375.83 1926.79 C 1376.18 1926.13 1376.93 1925.79 1377.48 1925.29 L 1380.17 1925.97 C 1377.17 1943.83 1373.94 1961.88 1372.26 1979.91 C 1372.17 1979.43 1372.07 1978.95 1371.99 1978.47 C 1371.67 1976.37 1371.76 1974.6 1371.87 1972.49 C 1367.74 1975.12 1355 2033.85 1351.48 2043.87 z"/>
<path transform="translate(0,0)" fill="rgb(179,179,207)" d="M 640.959 1916.79 C 641.893 1918.48 642.507 1920.37 644.134 1921.37 C 645.689 1922.32 646.276 1923.31 647.025 1924.97 C 653.167 1938.58 658.617 1968.92 662.724 1984.76 C 666.705 2000.11 672.231 2015.35 675.548 2030.83 C 664.625 2018.72 660.393 1974.59 649.856 1960.09 C 648.586 1961.16 647.558 1962.15 646.537 1963.46 C 648.487 1951.67 642.766 1929.5 640.959 1916.79 z"/>
<path transform="translate(0,0)" fill="rgb(179,179,207)" d="M 1370.4 1504.03 C 1365.21 1518.05 1379.14 1540.88 1379.84 1556.38 L 1378.38 1557.63 L 1377.09 1557.37 L 1377.21 1557.82 C 1374.63 1539.71 1367.45 1522.26 1363.02 1504.49 C 1356.45 1478.08 1342.39 1397.04 1345 1372.15 C 1347.74 1376.91 1347.91 1389.2 1348.72 1394.94 C 1351.81 1416.68 1355.53 1438.27 1358.88 1459.97 C 1360.57 1470.89 1360.97 1485.68 1365.17 1495.77 L 1366.52 1496.17 L 1368.05 1491.93 C 1368.15 1496.34 1367.66 1500.3 1370.4 1504.03 z"/>
<path transform="translate(0,0)" fill="rgb(179,179,207)" d="M 1368.05 1491.93 C 1368.74 1480.57 1379.08 1462.2 1384.29 1451.51 A 1139.75 1139.75 0 0 1 1459.31 1319.03 C 1468.84 1304.63 1478.22 1289.87 1490.06 1277.24 C 1446.68 1343.06 1391.85 1428.03 1370.4 1504.03 C 1367.66 1500.3 1368.15 1496.34 1368.05 1491.93 z"/>
<path transform="translate(0,0)" fill="rgb(179,179,207)" d="M 623.374 1560.69 L 625.319 1553.05 C 625.688 1555.46 626.164 1556.37 627.781 1558.19 L 627.593 1559.99 C 625.635 1577.81 620.429 1595.22 618.675 1613.19 C 617.568 1624.53 617.557 1636.12 617.065 1647.51 C 614.63 1703.87 617.81 1758.89 626.074 1814.7 L 625.094 1814.59 C 622.665 1812.06 622.43 1805.01 621.734 1801.29 C 613.529 1757.46 611.906 1712.38 609.96 1667.93 C 612.847 1631.73 617.915 1596.57 623.374 1560.69 z"/>
<path transform="translate(0,0)" fill="rgb(242,241,246)" d="M 1351.48 2043.87 C 1355 2033.85 1367.74 1975.12 1371.87 1972.49 C 1371.76 1974.6 1371.67 1976.37 1371.99 1978.47 C 1372.07 1978.95 1372.17 1979.43 1372.26 1979.91 C 1374.83 1992.29 1375.49 2004.87 1377.23 2017.37 C 1378.62 2027.38 1381.19 2037.91 1381.34 2048 L 1351.51 2048 L 1351.48 2043.87 z"/>
<path transform="translate(0,0)" fill="rgb(65,47,68)" d="M 1131.68 1586.11 C 1135.99 1585.98 1138.93 1585.88 1142.51 1588.63 C 1144.59 1594.3 1144.97 1658.06 1143.49 1664.77 C 1142.8 1667.9 1140.2 1668.95 1137.76 1670.55 C 1134.21 1670.17 1130.61 1670 1128.12 1667.1 C 1124.95 1663.4 1125.6 1602.4 1126.8 1593.47 C 1127.35 1589.37 1128.57 1588.46 1131.68 1586.11 z"/>
<path transform="translate(0,0)" fill="rgb(179,179,207)" d="M 579.544 1343.65 A 1629.27 1629.27 0 0 0 562.297 1305.5 C 558.297 1297.05 553.221 1288.3 550.308 1279.48 C 575.29 1316.2 603.053 1381.7 617.785 1424.16 C 623.635 1441.02 626.614 1459.64 633.905 1475.8 C 634.782 1464.88 637.629 1425.34 641.588 1417.26 L 642.429 1419.46 L 643.269 1419.38 C 643.181 1416.92 642.744 1414.73 643.88 1412.49 C 643.82 1414.36 643.856 1415.93 644.235 1417.77 L 646.004 1416.22 C 645.695 1447.38 646.516 1478.46 639.311 1508.98 C 638.576 1512.1 637.946 1516.89 636.449 1519.65 L 635.407 1517.85 C 634.916 1520.92 634.573 1523.48 632.973 1526.22 C 632.438 1523.92 633.399 1522.06 634.044 1519.83 L 632.662 1518.2 C 633.44 1512.62 634.18 1506.94 633.692 1501.3 C 632.635 1489.11 628.876 1477.05 625.643 1465.3 C 614.176 1423.59 599.584 1382.07 579.544 1343.65 z"/>
<path transform="translate(0,0)" fill="rgb(65,47,68)" d="M 1016.32 1586.06 C 1020.78 1585.82 1024.38 1585.61 1028.21 1588.19 C 1031.9 1593.61 1030.05 1643.11 1030.02 1653.18 C 1036.87 1653.26 1044.02 1652.34 1050.78 1652.76 C 1054.59 1653 1060.46 1654.64 1062.72 1657.9 C 1063.94 1659.65 1064.49 1661.83 1063.8 1663.87 C 1063 1666.25 1061.14 1668.02 1059.05 1669.25 C 1051.57 1669.29 1019.01 1671.33 1014.83 1667.74 C 1013.29 1662.93 1012.73 1658.1 1012.65 1653.06 C 1012.49 1642.31 1010.85 1598.36 1013.05 1591.02 C 1013.74 1588.72 1014.7 1587.73 1016.32 1586.06 z"/>
<path transform="translate(0,0)" fill="rgb(242,241,246)" d="M 646.537 1963.46 C 647.558 1962.15 648.586 1961.16 649.856 1960.09 C 660.393 1974.59 664.625 2018.72 675.548 2030.83 C 677.788 2035.74 677.912 2038.69 678.178 2043.9 C 678.261 2045.53 679.13 2046.66 679.949 2048 L 635.21 2048 C 635.454 2033.69 640.45 2018.27 642.459 2003.99 C 644.346 1990.58 643.746 1976.69 646.537 1963.46 z"/>
<path transform="translate(0,0)" fill="rgb(65,47,68)" d="M 975.417 1613.79 C 979.225 1605.87 984.848 1589.42 993.311 1586.29 C 995.533 1585.47 999.137 1585.47 1001.26 1586.79 C 1003.35 1588.08 1004.41 1589.63 1004.74 1592.11 C 1005.93 1600.98 991.284 1620.59 986.45 1628.8 C 980.367 1640.14 988.435 1657.58 981.137 1667.13 C 979.662 1669.06 977.297 1670.13 974.889 1670.22 C 972.409 1670.31 970.52 1669.85 968.948 1667.82 C 964.747 1662.41 966.446 1637.37 963.255 1627.22 C 960.021 1616.93 944.257 1602.36 946.163 1591.49 C 946.671 1588.59 948.603 1587.73 950.743 1586.13 C 953.1 1585.94 956.168 1585.47 958.381 1586.5 C 965.707 1589.92 971.711 1606.66 975.417 1613.79 z"/>
<path transform="translate(0,0)" fill="rgb(65,47,68)" d="M 1087.5 1639.36 C 1091.79 1625.58 1096.97 1599.2 1103.95 1587.96 C 1105.84 1586.63 1107.21 1586.03 1109.58 1586.07 C 1112.79 1586.12 1115.24 1587 1117.46 1589.36 C 1120.61 1597.33 1114.9 1608.5 1112.33 1616.25 C 1107.89 1630.46 1103.5 1650.52 1096.89 1663.52 C 1095.03 1667.18 1093.2 1669.37 1089.24 1670.72 C 1086.31 1670.54 1084.52 1669.84 1082.38 1667.88 C 1079.89 1665.6 1078.16 1662.42 1076.79 1659.38 C 1072.76 1650.41 1054.97 1598.58 1055.9 1591.49 C 1056.27 1588.64 1058.59 1587.71 1060.69 1586.2 C 1064.02 1586.02 1066.93 1585.64 1070.07 1586.99 C 1075.91 1592.26 1084.43 1629.16 1087.5 1639.36 z"/>
<path transform="translate(0,0)" fill="rgb(242,241,246)" d="M 579.544 1343.65 C 599.584 1382.07 614.176 1423.59 625.643 1465.3 C 628.876 1477.05 632.635 1489.11 633.692 1501.3 C 634.18 1506.94 633.44 1512.62 632.662 1518.2 A 543.47 543.47 0 0 0 625.319 1553.05 L 623.374 1560.69 L 623.28 1556.46 C 623.014 1556.06 622.741 1555.67 622.483 1555.26 C 622.137 1554.72 621.81 1554.17 621.468 1553.63 C 621.162 1553.15 620.831 1552.68 620.539 1552.19 C 618.448 1548.68 613.554 1503.53 611.824 1493.71 A 1010.94 1010.94 0 0 0 598.489 1432.26 C 595.405 1420.01 577.217 1356.55 577.5 1350.08 C 577.577 1348.34 578.984 1345.42 579.544 1343.65 z"/>
<path transform="translate(0,0)" fill="rgb(65,47,68)" d="M 908.793 1585.38 C 911.891 1585.27 915.108 1585.1 918.195 1585.49 C 925.393 1586.41 934.11 1590.08 938.293 1596.29 C 940.773 1599.98 941.614 1605.99 940.122 1610.21 C 939.25 1612.68 938.63 1613.02 936.49 1614.18 C 927.091 1614.26 922.617 1605.55 914.698 1602.43 C 911.984 1601.36 908.409 1602.46 906.007 1603.89 C 903.305 1605.5 902.724 1607.36 902.129 1610.29 C 905.088 1621.17 926.47 1620.19 935.398 1626.75 C 939.175 1629.53 941.245 1633.14 941.842 1637.78 C 942.816 1645.35 940.768 1655.28 935.834 1661.22 C 930.198 1668.02 922.964 1669.76 914.692 1670.67 L 913.23 1670.63 C 903.312 1670.3 894.751 1668.61 887.82 1660.86 C 884.613 1657.27 882.325 1653.11 882.962 1648.12 C 883.362 1645 884.655 1642.32 887.29 1640.56 C 897.133 1638.48 900.868 1652.51 909.474 1653.94 C 912.994 1654.53 918.471 1652.94 921.258 1650.74 C 923.409 1649.05 923.757 1647.71 924.199 1645.12 C 920.421 1633.46 902.229 1635.6 893.061 1629.39 C 888.476 1626.28 886.059 1621.84 885.219 1616.42 C 884.12 1609.33 884.85 1601.22 889.308 1595.36 C 894.247 1588.86 901.013 1586.62 908.793 1585.38 z"/>
<path transform="translate(0,0)" fill="rgb(242,241,246)" d="M 1024.01 1761.77 C 1028.47 1765.19 1055.72 1823.62 1061.32 1834.73 A 2633.39 2633.39 0 0 0 1141.1 1980.79 C 1149.62 1995.29 1159.98 2008.68 1168.34 2023.27 C 1167.38 2022.86 1166.43 2022.38 1165.58 2021.77 C 1155.58 2014.64 1145.97 2001.29 1137.56 1992.1 C 1096.98 1947.74 1062.98 1894.32 1043.99 1837.03 C 1039.27 1822.79 1036.08 1808.45 1032.49 1793.92 C 1029.84 1783.2 1026.03 1772.63 1024.01 1761.77 z"/>
<path transform="translate(0,0)" fill="rgb(179,179,207)" d="M 1045.84 2048 C 1008.09 1969.37 985.992 1878.98 970.475 1793.47 C 966.831 1773.38 962.787 1753.31 960.41 1733.03 L 961.129 1731.36 C 965.143 1735.12 965.057 1747.55 966.246 1752.92 C 967.382 1758.06 969.468 1763.02 970.846 1768.11 C 975.392 1784.89 980.004 1801.5 985.475 1818.02 C 1001.79 1867.28 1017.47 1916.9 1038.61 1964.38 A 984.111 984.111 0 0 0 1065.88 2020.21 C 1070.67 2029.42 1076.14 2038.55 1080.41 2048 L 1045.84 2048 z"/>
<path transform="translate(0,0)" fill="rgb(242,241,246)" d="M 557.872 1768.75 C 554.307 1748.41 552.263 1727.71 549.419 1707.25 C 545.443 1678.64 540.925 1650.19 537.738 1621.48 C 535.886 1604.79 532.145 1587.21 532.145 1570.46 C 545.829 1622.24 565.705 1672.18 584.5 1722.18 C 587.848 1731.09 592.336 1749.86 598.024 1756.56 C 598.95 1755.16 602.194 1710.51 603.054 1704.14 C 604.703 1691.94 608.169 1680.11 609.96 1667.93 C 611.906 1712.38 613.529 1757.46 621.734 1801.29 C 622.43 1805.01 622.665 1812.06 625.094 1814.59 L 626.074 1814.7 C 627.271 1816.71 627.823 1817.24 626.95 1819.63 C 626.755 1820.16 626.441 1820.64 626.187 1821.15 C 608.876 1801.85 578.714 1785.46 557.872 1768.75 z"/>
<path transform="translate(0,0)" fill="rgb(242,241,246)" d="M 1129.37 1330.68 C 1130.69 1335.93 1109.48 1389.52 1105.85 1398.21 C 1092.27 1430.68 1058.67 1499.66 1024.6 1512.52 C 1020.21 1514.18 1015.84 1514.35 1011.54 1512.32 C 982.797 1498.75 942.12 1416.84 931.507 1387.23 C 926.231 1372.78 919.744 1357.56 916.09 1342.67 L 916.908 1341.78 C 921.507 1348.29 923.179 1356.65 926.895 1363.72 C 939.241 1387.21 963.255 1425.52 984.382 1440.64 C 996.023 1448.97 1008.4 1454.65 1022.98 1451.88 C 1030.03 1450.54 1036.45 1447.64 1042.25 1443.43 C 1065.88 1426.31 1101.4 1378.39 1117.31 1353.02 C 1121.48 1346.37 1123.86 1338.2 1128.45 1331.91 C 1128.75 1331.5 1129.06 1331.09 1129.37 1330.68 z"/>
<path transform="translate(0,0)" fill="rgb(242,241,246)" d="M 1274.34 1116.18 C 1295.11 1121.45 1312.35 1135.34 1333.17 1141.2 C 1329.6 1141.3 1325.78 1140.97 1322.72 1143.06 C 1316.7 1151.93 1312.23 1161.77 1307 1171.11 A 260.522 260.522 0 0 1 1284.43 1204.65 C 1241.96 1259.33 1178.14 1300.77 1113 1323.03 C 1104.35 1325.98 1094.77 1330.17 1085.93 1331.92 C 1056.17 1337.8 1027.25 1343.09 996.706 1343.63 C 992.217 1343.7 988.474 1342.54 984.127 1342.13 C 978.656 1341.62 973.046 1342.91 967.507 1342.4 C 917.904 1337.84 868.678 1321.84 827.368 1293.7 A 280.247 280.247 0 0 1 715.76 1145.3 C 730.897 1137.81 747.074 1127.84 763.678 1124.56 C 764.73 1131.08 764.547 1137.88 765.827 1144.29 C 771.717 1163.43 779.775 1182.26 791.926 1198.32 C 793.603 1200.18 795.113 1202.09 797.178 1203.52 C 805.365 1229.46 857.73 1266.19 881.417 1278.48 C 944.791 1311.34 1016.62 1313.11 1083.74 1291.47 C 1124.64 1278.29 1164.98 1256.56 1197.42 1228.33 C 1202.66 1223.77 1210.09 1218.1 1213.42 1211.91 C 1213.75 1211.3 1214.01 1210.66 1214.3 1210.03 C 1214.36 1209.89 1214.45 1209.76 1214.52 1209.62 C 1217.04 1208.56 1219.07 1206.97 1221.3 1205.41 C 1230.76 1198.11 1239.82 1184.84 1247.11 1175.29 C 1255.77 1168.53 1264.69 1148.46 1269.25 1138.36 C 1271.42 1131.03 1272.91 1123.68 1274.34 1116.18 z"/>
<path transform="translate(0,0)" fill="rgb(250,160,154)" d="M 453.404 1708.99 A 533.726 533.726 0 0 1 557.872 1768.75 C 578.714 1785.46 608.876 1801.85 626.187 1821.15 C 629.618 1832.34 629.596 1843.32 629.061 1854.92 C 628.987 1856.52 629.026 1855.98 629.849 1857.75 C 633.87 1871.73 640.852 1902.94 640.959 1916.79 C 642.766 1929.5 648.487 1951.67 646.537 1963.46 C 643.746 1976.69 644.346 1990.58 642.459 2003.99 C 640.45 2018.27 635.454 2033.69 635.21 2048 L 573.913 2048 L 560.924 2048 L 401.247 2048 C 400.284 2028.21 405.219 2005.99 407.989 1986.34 A 7747.47 7747.47 0 0 1 422.47 1888.2 C 425.316 1869.76 428.783 1851.3 430.98 1832.77 C 435.155 1820.11 436.037 1804.31 437.459 1791.02 C 442.956 1781.2 450.08 1724.81 453.404 1708.99 z M 573.913 2048 L 635.21 2048 C 635.454 2033.69 640.45 2018.27 642.459 2003.99 C 644.346 1990.58 643.746 1976.69 646.537 1963.46 C 648.487 1951.67 642.766 1929.5 640.959 1916.79 C 640.852 1902.94 633.87 1871.73 629.849 1857.75 C 623.42 1870.51 620.502 1886.86 616.716 1900.63 L 590.801 1994.26 C 585.91 2011.69 581.74 2031.67 573.913 2048 z"/>
<path transform="translate(0,0)" fill="rgb(254,216,196)" d="M 430.98 1832.77 C 433.548 1832.88 437.392 1832.67 439.702 1833.84 C 445.755 1836.9 452.826 1845.23 457.445 1850.23 C 470.755 1864.63 483.133 1880.11 495.713 1895.15 C 524.131 1929.14 551.646 1963.57 576.985 1999.96 C 571.766 2016 566.743 2032.16 560.924 2048 L 401.247 2048 C 400.284 2028.21 405.219 2005.99 407.989 1986.34 A 7747.47 7747.47 0 0 1 422.47 1888.2 C 425.316 1869.76 428.783 1851.3 430.98 1832.77 z"/>
<path transform="translate(0,0)" fill="rgb(250,160,154)" d="M 1586.2 1697.89 C 1590.47 1727.09 1589.87 1766.47 1597.16 1793.52 C 1594.88 1807.67 1600.74 1846.72 1601.03 1864.47 C 1602.74 1875.54 1603.31 1886.56 1604.49 1897.67 C 1607.35 1924.67 1609.71 1951.69 1612 1978.75 C 1613.73 1999.17 1617.15 2020.05 1617.65 2040.53 A 24.1732 24.1732 0 0 1 1616.66 2048 L 1459.72 2048 L 1440.57 2048 L 1381.34 2048 C 1381.19 2037.91 1378.62 2027.38 1377.23 2017.37 C 1375.49 2004.87 1374.83 1992.29 1372.26 1979.91 C 1373.94 1961.88 1377.17 1943.83 1380.17 1925.97 C 1385.71 1901.82 1383.98 1876.96 1395.39 1854.17 C 1396.66 1849.52 1394.5 1829 1395.04 1821.12 C 1408.64 1806.69 1427.53 1794.3 1443.73 1782.92 C 1488.86 1751.19 1535.42 1719.91 1586.2 1697.89 z M 1395.39 1854.17 C 1383.98 1876.96 1385.71 1901.82 1380.17 1925.97 C 1377.17 1943.83 1373.94 1961.88 1372.26 1979.91 C 1374.83 1992.29 1375.49 2004.87 1377.23 2017.37 C 1378.62 2027.38 1381.19 2037.91 1381.34 2048 L 1440.57 2048 C 1432.33 2005.99 1421.54 1964.44 1411.95 1922.71 C 1407.71 1904.24 1401.99 1870.29 1395.39 1854.17 z"/>
<path transform="translate(0,0)" fill="rgb(254,216,196)" d="M 1591.27 1857.21 C 1594.41 1859.82 1597.67 1862.15 1601.03 1864.47 C 1602.74 1875.54 1603.31 1886.56 1604.49 1897.67 C 1607.35 1924.67 1609.71 1951.69 1612 1978.75 C 1613.73 1999.17 1617.15 2020.05 1617.65 2040.53 A 24.1732 24.1732 0 0 1 1616.66 2048 L 1459.72 2048 C 1455.54 2037.14 1452.5 2025.29 1449.51 2014.04 C 1457.56 2001.16 1467.99 1989.29 1477.71 1977.64 A 1122.25 1122.25 0 0 1 1546.37 1902.12 C 1561.2 1887.15 1577.28 1872.95 1591.27 1857.21 z"/>
<path transform="translate(0,0)" fill="rgb(250,160,154)" d="M 984.759 1005.58 C 1014.21 996.741 1048.8 977.414 1075.36 962.115 C 1088.91 954.312 1102.71 945.956 1115.99 937.705 C 1124.76 932.263 1143.44 916.034 1152.74 914.825 C 1139.57 957.747 1117.52 1017.25 1077.6 1041.07 C 1094.37 1036.06 1112.29 1030.94 1127.37 1021.8 C 1135.33 1016.97 1157.36 996.806 1162.89 995.077 C 1162.98 1018.74 1162.74 1061.28 1180.52 1078.89 C 1182.24 1080.6 1181.54 1080.09 1183.81 1080.85 C 1189.46 1087.22 1194.73 1092.6 1201.95 1097.27 C 1209.69 1105.29 1218.36 1110.8 1228.03 1116.24 C 1230.63 1117.71 1234.52 1118.65 1236.67 1120.44 C 1244.78 1128.64 1258.71 1133.84 1269.25 1138.36 C 1264.69 1148.46 1255.77 1168.53 1247.11 1175.29 C 1239.82 1184.84 1230.76 1198.11 1221.3 1205.41 C 1219.07 1206.97 1217.04 1208.56 1214.52 1209.62 C 1214.45 1209.76 1214.36 1209.89 1214.3 1210.03 C 1214.01 1210.66 1213.75 1211.3 1213.42 1211.91 C 1210.09 1218.1 1202.66 1223.77 1197.42 1228.33 C 1164.98 1256.56 1124.64 1278.29 1083.74 1291.47 C 1016.62 1313.11 944.791 1311.34 881.417 1278.48 C 857.73 1266.19 805.365 1229.46 797.178 1203.52 C 795.113 1202.09 793.603 1200.18 791.926 1198.32 C 779.775 1182.26 771.717 1163.43 765.827 1144.29 C 764.547 1137.88 764.73 1131.08 763.678 1124.56 C 776.423 1121.73 794.423 1123.61 806.955 1127.02 C 827.592 1122.71 875.484 1095.33 891.215 1081.03 C 894.618 1080.38 896.008 1079.49 898.22 1076.8 C 924.641 1044.6 919.334 1006.56 915.524 967.89 C 917.242 967.297 918.284 967.694 919.831 968.473 C 942.201 979.743 960.674 997.146 984.759 1005.58 z"/>
<path transform="translate(0,0)" fill="rgb(146,144,174)" d="M 763.678 1124.56 C 776.423 1121.73 794.423 1123.61 806.955 1127.02 C 796.053 1135.72 779.044 1140.3 765.827 1144.29 C 764.547 1137.88 764.73 1131.08 763.678 1124.56 z"/>
<path transform="translate(0,0)" fill="rgb(254,216,196)" d="M 1201.95 1097.27 C 1209.69 1105.29 1218.36 1110.8 1228.03 1116.24 C 1230.63 1117.71 1234.52 1118.65 1236.67 1120.44 C 1244.78 1128.64 1258.71 1133.84 1269.25 1138.36 C 1264.69 1148.46 1255.77 1168.53 1247.11 1175.29 C 1239.82 1184.84 1230.76 1198.11 1221.3 1205.41 C 1219.07 1206.97 1217.04 1208.56 1214.52 1209.62 C 1214.45 1209.76 1214.36 1209.89 1214.3 1210.03 C 1214.01 1210.66 1213.75 1211.3 1213.42 1211.91 C 1210.09 1218.1 1202.66 1223.77 1197.42 1228.33 C 1164.98 1256.56 1124.64 1278.29 1083.74 1291.47 C 1016.62 1313.11 944.791 1311.34 881.417 1278.48 C 857.73 1266.19 805.365 1229.46 797.178 1203.52 C 795.113 1202.09 793.603 1200.18 791.926 1198.32 C 807.497 1195.44 858.368 1224.81 882.763 1218.96 C 850.87 1204.61 830.388 1191.66 803.561 1169.8 C 813.962 1172.59 824.073 1176.06 834.577 1178.6 A 510.557 510.557 0 0 0 972.703 1192.97 C 1053.49 1190.16 1145.91 1157.32 1201.95 1097.27 z"/>
<path transform="translate(0,0)" fill="rgb(250,160,154)" d="M 914.956 1227.79 C 929.94 1227.95 948.575 1228.52 959.739 1239.99 C 967.475 1247.95 971.303 1260.6 974.362 1271.11 L 963.702 1260.3 C 965.343 1260.49 964.442 1260.6 966.302 1259.5 L 966.14 1257.57 C 953.942 1241.51 932.552 1235.86 914.956 1227.79 z"/>
<path transform="translate(0,0)" fill="rgb(250,160,154)" d="M 1028.45 1271.97 C 1034.06 1261.64 1038.22 1248.15 1046.81 1239.92 C 1058.94 1228.28 1078.4 1228.22 1094.21 1228.9 C 1078.91 1234.46 1048.44 1245.32 1039 1258.66 C 1039.26 1260.98 1038.83 1259.96 1040.22 1261.73 C 1036.49 1265.35 1032.42 1268.62 1028.45 1271.97 z"/>
<path transform="translate(0,0)" fill="rgb(225,104,114)" d="M 791.926 1198.32 C 807.497 1195.44 858.368 1224.81 882.763 1218.96 C 893.076 1223.32 904.015 1225.63 914.956 1227.79 C 932.552 1235.86 953.942 1241.51 966.14 1257.57 L 966.302 1259.5 C 964.442 1260.6 965.343 1260.49 963.702 1260.3 C 957.022 1253.45 950.074 1247.21 941.282 1243.16 C 921.831 1234.21 891.224 1229.77 869.796 1223.87 C 848.184 1217.91 818.12 1206.69 797.178 1203.52 C 795.113 1202.09 793.603 1200.18 791.926 1198.32 z"/>
<path transform="translate(0,0)" fill="rgb(225,104,114)" d="M 1143.12 1218.11 C 1169.26 1221.5 1198.34 1202.27 1221.3 1205.41 C 1219.07 1206.97 1217.04 1208.56 1214.52 1209.62 C 1195.5 1210.93 1167.29 1220.05 1147.55 1224.46 C 1123.23 1229.89 1091.92 1233.41 1069.1 1242.43 C 1058.23 1246.73 1048.77 1253.89 1040.22 1261.73 C 1038.83 1259.96 1039.26 1260.98 1039 1258.66 C 1048.44 1245.32 1078.91 1234.46 1094.21 1228.9 C 1099.23 1227.48 1104.97 1227.06 1110.15 1226.01 A 390.797 390.797 0 0 0 1143.12 1218.11 z"/>
<path transform="translate(0,0)" fill="rgb(250,160,154)" d="M 1143.12 1218.11 C 1162.45 1206.76 1190.05 1199.83 1211.33 1190.66 C 1220.43 1186.74 1238.24 1176.05 1247.11 1175.29 C 1239.82 1184.84 1230.76 1198.11 1221.3 1205.41 C 1198.34 1202.27 1169.26 1221.5 1143.12 1218.11 z"/>
</svg>