<svg version="1.1" xmlns="http://www.w3.org/2000/svg" style="display: block;" viewBox="0 0 2048 2048" width="512" height="512">
<defs>
	<linearGradient id="Gradient1" gradientUnits="userSpaceOnUse" x1="705.83" y1="1347.27" x2="488.244" y2="725.384">
		<stop class="stop0" offset="0" stop-opacity="1" stop-color="rgb(16,12,43)"/>
		<stop class="stop1" offset="1" stop-opacity="1" stop-color="rgb(50,48,74)"/>
	</linearGradient>
	<linearGradient id="Gradient2" gradientUnits="userSpaceOnUse" x1="1302.24" y1="1973.55" x2="1285.66" y2="2025.74">
		<stop class="stop0" offset="0" stop-opacity="1" stop-color="rgb(30,34,69)"/>
		<stop class="stop1" offset="1" stop-opacity="1" stop-color="rgb(57,68,103)"/>
	</linearGradient>
	<linearGradient id="Gradient3" gradientUnits="userSpaceOnUse" x1="1337.15" y1="1996.24" x2="1327.27" y2="2023.7">
		<stop class="stop0" offset="0" stop-opacity="1" stop-color="rgb(1,3,12)"/>
		<stop class="stop1" offset="1" stop-opacity="1" stop-color="rgb(0,0,38)"/>
	</linearGradient>
</defs>
<path transform="translate(0,0)" fill="rgb(52,2,49)" d="M 639.332 469.035 C 641.763 468.455 644.723 466.569 647.123 465.537 C 647.337 472.504 647.905 479.459 648.092 486.419 A 79.3116 79.3116 0 0 1 639.332 469.035 z"/>
<path transform="translate(0,0)" fill="rgb(0,0,0)" fill-opacity="0.980392" d="M 492.458 873.655 C 496.376 880.81 501.68 887.032 505.558 894.12 C 499.677 890.929 493.522 887.639 488.715 882.896 C 490.554 879.934 491.449 876.978 492.458 873.655 z"/>
<path transform="translate(0,0)" fill="rgb(52,2,49)" d="M 1533.8 1468.87 C 1542.53 1467.29 1549.64 1463.52 1557.4 1459.38 C 1552.46 1466.4 1548.96 1471.55 1541.11 1475.54 L 1541.87 1472.98 L 1541 1471.73 C 1539.06 1471.25 1537.39 1470.67 1535.62 1469.79 L 1533.8 1468.87 z"/>
<path transform="translate(0,0)" fill="rgb(248,122,119)" d="M 1412.59 2004.33 C 1416.93 2018.2 1422.18 2033.51 1423.62 2048 L 1407.4 2048 L 1405.97 2041.94 L 1403.51 2036.06 C 1399.87 2025.18 1395.93 2014.3 1393.01 2003.2 C 1397.92 2004.17 1403.5 2005.95 1408.47 2006.09 C 1410.84 2006.15 1411.02 2005.9 1412.59 2004.33 z"/>
<path transform="translate(0,0)" fill="rgb(23,21,49)" d="M 1454.36 1439.36 C 1464.62 1434.64 1476.57 1427.62 1487.5 1425.1 A 37.5714 37.5714 0 0 0 1496.23 1453.39 C 1503.5 1462.09 1515.27 1467.93 1526.6 1468.65 A 135.526 135.526 0 0 0 1533.8 1468.87 L 1535.62 1469.79 C 1537.39 1470.67 1539.06 1471.25 1541 1471.73 L 1541.87 1472.98 L 1541.11 1475.54 C 1528.54 1485.93 1503.85 1487.96 1488.19 1486.42 C 1475.4 1485.16 1463.42 1481.64 1451.26 1477.7 C 1448.63 1472.4 1454.04 1447.18 1454.36 1439.36 z"/>
<path transform="translate(0,0)" fill="url(#Gradient1)" d="M 737.374 635.213 C 749.836 649.604 762.376 664.235 776.636 676.903 C 772.469 697.237 769.038 718.251 761.829 737.765 C 779.699 761.232 791.854 825.849 787.734 854.785 C 786.642 862.457 776.923 892.142 778.071 895.75 L 779.691 896.444 C 778.694 896.637 776.447 896.768 775.647 897.229 C 771.607 899.557 767.095 908.527 764.101 912.393 A 103.83 103.83 0 0 1 688.747 952.303 C 685.722 952.149 682.742 952.28 679.72 952.409 C 679.255 957.485 678.196 962.925 676.649 967.784 C 675.055 976.392 673.939 985.139 673.956 993.907 C 673.862 1022.84 675.55 1050.7 683.12 1078.79 C 684.958 1089.11 688.8 1099.25 692.405 1109.06 C 696.937 1124.14 704.469 1137.98 709.606 1152.79 C 707.491 1168.26 704.093 1182.78 699.846 1197.78 C 685.477 1189.07 675.493 1180.68 664.722 1167.87 C 665.957 1199.06 670.569 1228 679.164 1258.03 C 673.598 1272.68 665.96 1287.19 658.506 1300.99 C 658.842 1301.21 659.176 1301.43 659.515 1301.65 C 668.469 1307.29 693.967 1315.84 698.902 1322.73 C 697.222 1323.69 698.08 1323.59 696.119 1323.05 C 682.948 1319.45 669.878 1310.53 657.045 1305.52 C 652.471 1312.53 632.912 1353.4 627.601 1354.7 C 626.911 1354.87 625.654 1354.86 624.917 1354.87 C 614.451 1348.44 601.001 1337.99 588.717 1336.19 C 585.245 1357.04 583.627 1378.43 578.961 1399.03 C 567.164 1378.93 562.24 1354.4 561.531 1331.27 C 547.964 1347.78 530.927 1362.48 510.828 1370.29 C 485.429 1380.16 454.69 1379.8 429.852 1368.46 C 411.391 1360.03 398.87 1347.61 391.751 1328.57 C 400.478 1335.71 408.624 1342.04 420.099 1344.03 C 433.471 1346.35 447.062 1341.74 457.727 1333.66 C 469.775 1324.54 476.943 1310.33 478.525 1295.44 C 482.702 1256.12 452.728 1244.49 431.866 1219.07 C 420.25 1204.92 415.647 1189.15 417.47 1170.98 C 420.962 1136.16 443.5 1108.61 469.845 1087.36 C 452.542 1087.1 435.532 1086.49 418.542 1082.84 C 384.208 1075.47 352.069 1056.04 332.989 1026.05 A 107.336 107.336 0 0 1 319.197 945.178 C 323.75 925.209 335.589 902.567 353.561 891.633 C 358.338 888.727 364.818 883.909 370.509 885.258 L 370.113 887.226 L 369.721 886.562 A 132.716 132.716 0 0 0 365.799 891.582 C 357.88 902.327 353.901 915.203 356.284 928.53 C 358.775 942.466 368.954 954.364 380.313 962.292 C 398.362 974.889 422.278 978.511 443.694 974.684 C 499.694 964.677 507.677 918.415 532.581 876.742 A 146.544 146.544 0 0 1 572.061 833.254 C 604.276 809.457 660.875 797.722 683.45 765.413 L 682.879 763.051 C 683.002 762.788 683.096 762.509 683.248 762.263 C 686.313 757.31 697.116 751.892 701.844 745.61 C 724.208 715.892 734.333 671.551 737.374 635.213 z"/>
<path transform="translate(0,0)" fill="rgb(206,200,229)" d="M 659.223 948.999 C 666.07 950.54 672.741 951.659 679.72 952.409 C 679.255 957.485 678.196 962.925 676.649 967.784 C 676.423 966.916 676.553 965.863 675.973 965.179 C 674.878 963.89 657.85 960.695 652.725 956.191 L 659.223 948.999 z"/>
<path transform="translate(0,0)" fill="rgb(246,245,249)" d="M 743.499 901.209 C 744.151 901.163 744.774 901.5 745.402 901.681 L 744.971 903.795 C 727.495 923.087 704.54 931.603 679.221 933.704 L 677.507 933.791 L 676.466 932.765 C 676.656 932.465 676.82 932.147 677.038 931.866 C 687.483 918.36 726.897 904.841 743.499 901.209 z"/>
<path transform="translate(0,0)" fill="rgb(246,245,249)" d="M 534.815 1196.76 L 537.469 1192.93 C 549.241 1204.99 560.672 1223.81 572.893 1237.68 C 589.322 1254.66 606.089 1269.92 626.328 1282.36 C 636.841 1288.83 648.307 1294.11 658.506 1300.99 C 658.842 1301.21 659.176 1301.43 659.515 1301.65 C 668.469 1307.29 693.967 1315.84 698.902 1322.73 C 697.222 1323.69 698.08 1323.59 696.119 1323.05 C 682.948 1319.45 669.878 1310.53 657.045 1305.52 C 652.471 1312.53 632.912 1353.4 627.601 1354.7 C 626.911 1354.87 625.654 1354.86 624.917 1354.87 C 614.451 1348.44 601.001 1337.99 588.717 1336.19 L 588.495 1335.2 C 588.645 1334.87 588.813 1334.54 588.945 1334.2 C 590.509 1330.18 583.786 1325.81 580.905 1323.43 C 549.677 1297.58 520.681 1268.2 504.468 1230.31 C 514.735 1219.27 524.338 1207.59 534.815 1196.76 z"/>
<path transform="translate(0,0)" fill="rgb(164,152,207)" d="M 534.815 1196.76 L 537.469 1192.93 C 549.241 1204.99 560.672 1223.81 572.893 1237.68 C 589.322 1254.66 606.089 1269.92 626.328 1282.36 C 636.841 1288.83 648.307 1294.11 658.506 1300.99 C 658.842 1301.21 659.176 1301.43 659.515 1301.65 C 668.469 1307.29 693.967 1315.84 698.902 1322.73 C 697.222 1323.69 698.08 1323.59 696.119 1323.05 C 682.948 1319.45 669.878 1310.53 657.045 1305.52 C 649.14 1300.49 640.531 1296.38 632.497 1291.5 C 607.15 1276.11 584.735 1257.63 565.296 1235.16 C 553.781 1224.14 544.356 1209.54 534.815 1196.76 z"/>
<path transform="translate(0,0)" fill="rgb(246,245,249)" d="M 652.725 956.191 C 657.85 960.695 674.878 963.89 675.973 965.179 C 676.553 965.863 676.423 966.916 676.649 967.784 C 675.055 976.392 673.939 985.139 673.956 993.907 C 673.862 1022.84 675.55 1050.7 683.12 1078.79 C 684.958 1089.11 688.8 1099.25 692.405 1109.06 C 696.937 1124.14 704.469 1137.98 709.606 1152.79 C 707.491 1168.26 704.093 1182.78 699.846 1197.78 C 685.477 1189.07 675.493 1180.68 664.722 1167.87 C 665.957 1199.06 670.569 1228 679.164 1258.03 C 673.598 1272.68 665.96 1287.19 658.506 1300.99 C 648.307 1294.11 636.841 1288.83 626.328 1282.36 C 606.089 1269.92 589.322 1254.66 572.893 1237.68 C 560.672 1223.81 549.241 1204.99 537.469 1192.93 A 1610.65 1610.65 0 0 0 571.664 1146.09 C 575.06 1140.12 580.312 1135.17 583.421 1129.02 C 590.026 1115.96 598.474 1078.35 603.455 1062.26 C 607 1051.87 609.587 1041.08 613.022 1030.63 C 621.668 1004.31 634.724 977.4 652.725 956.191 z"/>
<path transform="translate(0,0)" fill="rgb(206,200,229)" d="M 603.455 1062.26 L 603.919 1063.91 C 604.305 1065.26 604.729 1066.05 605.309 1067.33 C 608.85 1075.12 605.719 1108.4 606.041 1119.47 C 606.745 1143.64 611.267 1169.84 616.495 1193.45 C 607.858 1183.19 582.735 1151.95 571.664 1146.09 C 575.06 1140.12 580.312 1135.17 583.421 1129.02 C 590.026 1115.96 598.474 1078.35 603.455 1062.26 z"/>
<path transform="translate(0,0)" fill="rgb(43,41,68)" d="M 831.743 138.933 C 816.094 121.316 805.632 105.142 807.094 80.7288 C 808.32 60.2502 817.956 44.5445 833.091 31.2722 C 854.04 12.9013 888.805 2.10998 916.457 4.21177 C 928.745 5.1458 948.249 7.9548 957.942 16.0919 L 958.785 18.3257 L 957.89 19.717 C 951.116 20.1238 944.425 18.9006 937.684 19.1998 C 918.566 20.0483 903.212 31.5696 891.006 45.4444 C 878.774 59.3483 872.029 82.388 872.801 100.801 C 872.928 103.839 873.552 105.285 875.575 107.519 C 879.557 108.295 884.675 104.329 887.998 102.332 C 904.529 92.3993 923.1 84.7427 941.519 79.1731 C 1093.65 33.1711 1258.99 84.9831 1348.91 218.037 C 1393.7 284.303 1410.31 357.827 1414.67 436.722 C 1416.93 477.723 1414.27 518.588 1411.51 559.49 C 1405.08 654.958 1395.15 762.201 1466.75 837.816 C 1488.11 860.375 1514.62 878.103 1545.48 884.291 C 1562.67 887.738 1581.74 887.887 1596.78 877.599 C 1605.75 871.465 1611.68 862.61 1613.34 851.826 C 1616.17 833.507 1605.4 825.494 1605.13 820.9 C 1605.1 820.357 1605.54 819.89 1605.74 819.385 C 1611.02 819.585 1617.3 825.59 1620.78 829.456 C 1631.74 841.604 1634.77 861.366 1633.46 877.169 C 1632.14 893.185 1624.88 907.231 1612.61 917.599 C 1600.34 927.955 1584.73 932.745 1569.29 936.065 C 1587.71 958.057 1598.52 987.149 1595.93 1015.98 C 1594.94 1027.02 1591.61 1037.67 1586.66 1047.56 C 1575.45 1069.99 1556.84 1087.89 1559.47 1114.98 C 1560.51 1125.61 1564.79 1134.83 1571.53 1143.01 C 1583.94 1158.09 1600.8 1167.75 1615.81 1179.85 C 1650.12 1207.53 1667.33 1250.19 1663.66 1294.02 C 1661.28 1322.42 1648.51 1352.94 1625.96 1371.27 C 1622.53 1374.06 1619.86 1375.47 1615.48 1376.02 L 1613.75 1375.26 C 1614.62 1369.15 1620.76 1362.11 1623.23 1356 C 1633.05 1331.67 1623.44 1303.31 1608.46 1283.26 C 1597.29 1268.32 1583.51 1257.67 1567.1 1249.07 C 1572.48 1277.48 1564.32 1296.7 1548.33 1320.12 L 1547.75 1320.96 L 1545.21 1319.69 L 1543.77 1314.75 C 1537.37 1296.25 1522.1 1243.82 1520.7 1225.31 C 1519.55 1210.13 1521.12 1194.21 1521 1178.94 C 1520.86 1160.58 1519.43 1142.12 1517.96 1123.84 C 1513.72 1071.05 1505.45 1014.33 1465.92 975.425 L 1462.58 972.03 C 1447.62 955.401 1422.66 945.694 1401.42 940.845 C 1370.91 933.168 1340.92 930.036 1311.75 917.233 L 1308.09 915.511 C 1294.52 909.299 1277.4 894.653 1262.42 894.817 C 1251.15 899.89 1236.95 898.729 1225.85 904.606 C 1222.75 903.315 1219.74 901.955 1216.88 900.184 C 1202.06 891.003 1198.06 875.974 1194.16 860.173 C 1184.62 808.133 1189.41 750.335 1198.1 698.47 C 1200.91 681.704 1206.61 664.721 1208.25 647.89 C 1208.29 647.569 1208.31 647.247 1208.34 646.925 L 1207.05 645.965 C 1201.77 650.492 1197.63 656.238 1192.84 661.283 A 425.733 425.733 0 0 1 1164.76 688.493 C 1158.38 694.203 1130.29 716.143 1126.76 721.165 C 1113.55 729.245 1100.83 738.098 1087.42 745.843 A 460.71 460.71 0 0 1 996.234 785.438 C 998.592 787.717 998.304 789.976 998.38 793.189 C 998.734 808.215 997.717 823.321 998.19 838.334 C 995.943 854.177 993.507 870.758 979.742 881.097 C 970.17 888.288 950.174 894.661 938.196 893.039 C 921.032 885.781 904.362 877.495 887.213 870.291 C 871.452 868.701 851.836 881.037 836.621 885.906 L 832.159 887.228 A 292.564 292.564 0 0 1 779.691 896.444 L 778.071 895.75 C 776.923 892.142 786.642 862.457 787.734 854.785 C 791.854 825.849 779.699 761.232 761.829 737.765 C 769.038 718.251 772.469 697.237 776.636 676.903 C 762.376 664.235 749.836 649.604 737.374 635.213 C 734.333 671.551 724.208 715.892 701.844 745.61 C 697.116 751.892 686.313 757.31 683.248 762.263 C 683.096 762.509 683.002 762.788 682.879 763.051 C 665.879 770.097 649.306 775.714 630.964 778.109 C 589.808 783.483 544.949 775.774 511.463 806.235 C 503.995 813.027 497.376 821.374 493.627 830.812 C 488.206 844.459 488.838 859.66 492.458 873.655 C 491.449 876.978 490.554 879.934 488.715 882.896 C 483.346 878.443 478.886 873.495 474.632 867.995 C 470.5 862.835 466.74 857.478 463.669 851.613 A 97.9397 97.9397 0 0 1 456.9 776.788 C 461.074 763.486 468.504 751.701 478.257 741.782 C 521.654 697.653 587.018 720.115 637.957 693.067 C 630.572 691.811 622.881 689.861 615.822 687.352 C 600.208 681.803 587.928 671.47 580.845 656.41 C 573.129 640.005 572.597 617.382 579.049 600.472 C 584.797 585.403 594.989 575.187 609.582 568.698 C 606.206 574.957 601.358 580.527 598.601 587.119 C 594.72 596.402 595 608.529 599.153 617.668 C 603.679 627.631 612.796 634.908 622.952 638.586 C 636.764 643.588 651.832 641.863 665.019 635.856 C 683.343 627.508 696.325 611.264 703.121 592.551 C 714.229 561.966 700.204 556.936 688.949 531.873 A 187.405 187.405 0 0 1 680.442 405.164 C 683.943 392.566 689.029 380.598 693.588 368.371 C 691.558 369.784 689.581 371.261 687.741 372.917 C 681.325 378.692 676.352 386.068 671.636 393.235 C 656.537 416.182 648.428 437.947 647.123 465.537 C 644.723 466.569 641.763 468.455 639.332 469.035 A 144.762 144.762 0 0 1 655.052 360.923 C 669.393 337.003 688.732 313.796 710.538 296.313 C 719.451 289.167 732.196 282.264 739.115 273.29 C 745.573 264.914 755.398 237.021 762.33 224.743 A 320.073 320.073 0 0 1 809.572 161.049 C 816.763 153.501 824.668 146.556 831.743 138.933 z"/>
<path transform="translate(0,0)" fill="rgb(254,205,184)" d="M 1097.54 317.79 C 1103.21 318.86 1111.51 326.876 1116.38 330.4 L 1116.38 331.795 L 1115.3 332.281 C 1111.34 332.069 1107.32 332.455 1103.38 332.672 C 1101.62 327.654 1099.51 322.729 1097.54 317.79 z"/>
<path transform="translate(0,0)" fill="rgb(246,245,249)" d="M 1170.5 523.77 L 1180.12 527.021 C 1176.33 536.92 1166.19 553.142 1156.2 557.584 C 1154.65 558.275 1154.45 558.227 1152.99 558.454 C 1152.3 557.941 1151.44 557.438 1150.88 556.783 C 1161.52 547.097 1166.08 537.167 1170.5 523.77 z"/>
<path transform="translate(0,0)" fill="rgb(23,21,49)" d="M 1234.75 481.078 C 1231.54 494.096 1224.67 520.882 1217.38 531.385 L 1215.43 531.919 C 1213.4 530.634 1214.08 531.527 1213.38 529.262 C 1214.13 525.271 1214.65 521.543 1214.66 517.478 L 1212.36 515.783 C 1212.46 513.877 1212.07 513.843 1213.51 512.433 C 1222.76 503.354 1229.34 492.746 1234.75 481.078 z"/>
<path transform="translate(0,0)" fill="rgb(23,21,49)" d="M 1069.6 143.99 L 1070.01 144.231 C 1069.07 148.408 1056.75 158.511 1053.25 162.197 C 1038.29 177.917 1024.11 195.241 1012.02 213.252 L 1011.37 213.046 C 1011.43 212.384 1011.38 211.704 1011.55 211.062 C 1012.2 208.54 1015 205.097 1016.33 202.672 C 1029.54 178.574 1048.29 160.92 1069.6 143.99 z"/>
<path transform="translate(0,0)" fill="rgb(248,122,119)" d="M 1171.48 376.086 C 1186.4 391.331 1201.77 407.258 1215.43 423.623 C 1215.22 427.452 1215.28 431.558 1214.41 435.296 C 1204.05 427.775 1173.76 388.04 1171.48 376.086 z"/>
<path transform="translate(0,0)" fill="rgb(23,21,49)" d="M 834.145 340.472 C 841.369 337.322 850.078 335.679 857.826 334.205 C 856.697 339.162 855.962 344.599 854.349 349.379 L 851.561 350.372 C 844.358 350.855 837.431 352.871 830.46 354.638 C 820.119 354.68 815.238 361.414 806.099 363.474 C 812.654 354.017 825.356 349.911 833.033 341.7 C 833.41 341.296 833.774 340.881 834.145 340.472 z"/>
<path transform="translate(0,0)" fill="rgb(248,122,119)" d="M 830.46 354.638 C 837.431 352.871 844.358 350.855 851.561 350.372 C 847.454 362.443 830.533 391.04 821.574 399.868 C 823.008 384.919 826.938 369.25 830.46 354.638 z"/>
<path transform="translate(0,0)" fill="rgb(236,51,49)" d="M 1155.19 513.19 C 1158.89 516.541 1163.48 519.885 1165.88 524.308 C 1166.3 533.18 1163.7 540.292 1157.63 546.879 C 1152.23 552.749 1144.49 557.375 1136.36 557.673 C 1129.96 557.907 1124.11 555.227 1119.5 550.883 C 1115.57 547.178 1111.52 540.635 1109.68 535.538 C 1114.74 535.515 1119.89 534.772 1124.92 534.282 C 1125.94 534.664 1126.44 534.887 1127.44 535.149 C 1132.43 536.461 1139.49 536.899 1144.01 533.878 C 1151.2 529.071 1153.35 521.101 1155.19 513.19 z"/>
<path transform="translate(0,0)" fill="rgb(248,122,119)" d="M 834.145 340.472 C 834.708 335.903 836.477 331.182 837.789 326.764 C 847.197 295.094 868.29 274.568 891.644 252.386 C 882.041 268.635 873.1 285.139 866.961 303.071 C 863.635 312.785 861.762 323.001 858.374 332.664 L 857.826 334.205 C 850.078 335.679 841.369 337.322 834.145 340.472 z"/>
<path transform="translate(0,0)" fill="rgb(248,122,119)" d="M 1086.05 248.76 C 1101.39 280.635 1118.31 310.84 1142.57 336.972 C 1133.76 334.873 1123.75 334.909 1115.3 332.281 L 1116.38 331.795 L 1116.38 330.4 C 1111.51 326.876 1103.21 318.86 1097.54 317.79 C 1089.3 295.154 1087.38 272.601 1086.05 248.76 z"/>
<path transform="translate(0,0)" fill="rgb(23,21,49)" d="M 967.617 223.763 C 984.188 237.27 990.173 247.775 994.328 268.614 C 1007.5 244.424 1017.45 233.185 1044.57 225.203 A 259.476 259.476 0 0 1 1047.37 224.394 C 1046.3 231.643 1047.41 248.961 1044.95 254.496 C 1025.43 257.353 1011.64 261.215 994.722 271.529 C 979.908 257.13 963.33 250.048 944.028 243.394 C 950.373 235.959 959.191 228.722 967.617 223.763 z"/>
<path transform="translate(0,0)" fill="rgb(254,185,166)" d="M 1214.66 517.478 C 1214.65 521.543 1214.13 525.271 1213.38 529.262 C 1208.38 548.41 1198.57 576.114 1181.84 588.401 C 1176.72 592.656 1171.76 595.998 1165.77 598.981 L 1163.44 600.171 L 1154.75 602.72 L 1150.25 603.845 L 1141.28 604.135 L 1140.07 603.91 L 1132.5 601.622 C 1128.91 599.985 1125.69 598.083 1122.39 595.936 L 1124.75 588.601 L 1124.1 586.961 C 1124.04 585.715 1123.98 584.461 1123.85 583.221 C 1123.44 579.23 1121.96 578.418 1119.12 576.178 L 1119.06 575.327 L 1114.56 574.862 C 1113 575.522 1112.43 575.916 1111.3 577.27 C 1110.98 577.655 1110.69 578.064 1110.38 578.461 L 1109.44 571.824 C 1111.67 569.819 1113.42 568.972 1116.38 568.779 C 1118.74 568.626 1120.2 568.348 1122.4 567.478 L 1121.83 566.74 C 1116.39 565.92 1109.03 563.1 1104.1 562.937 C 1101.11 562.838 1100.1 563.522 1097.98 565.481 C 1094.57 565.655 1091.99 564.988 1088.74 564.042 C 1091.51 562.929 1094.4 562.757 1097.12 561.485 C 1098.47 560.853 1099.41 560.519 1100.87 560.236 C 1108.7 562.573 1122.72 567.018 1130.3 563.234 C 1130.94 563.207 1131.57 563.172 1132.2 563.153 C 1140.07 562.91 1144.4 560.901 1150.88 556.783 C 1151.44 557.438 1152.3 557.941 1152.99 558.454 C 1154.45 558.227 1154.65 558.275 1156.2 557.584 C 1166.19 553.142 1176.33 536.92 1180.12 527.021 C 1193.91 529.406 1203.33 524.639 1214.66 517.478 z"/>
<path transform="translate(0,0)" fill="rgb(253,142,140)" d="M 1133.01 575.593 C 1134.71 574.522 1135.8 574.58 1137.76 574.543 C 1142.54 574.454 1144.26 573.138 1148.61 575.901 L 1146.77 577.816 C 1145.35 586.382 1144.59 596.086 1141.28 604.135 L 1140.07 603.91 L 1132.5 601.622 C 1128.91 599.985 1125.69 598.083 1122.39 595.936 L 1124.75 588.601 L 1124.1 586.961 C 1124.04 585.715 1123.98 584.461 1123.85 583.221 C 1123.44 579.23 1121.96 578.418 1119.12 576.178 L 1119.06 575.327 C 1123.86 575.257 1128.27 575.468 1133.01 575.593 z"/>
<path transform="translate(0,0)" fill="rgb(236,51,49)" d="M 1140.07 603.91 C 1139.32 596.824 1139.34 582.62 1142.92 576.377 L 1144.89 576.13 L 1146.77 577.816 C 1145.35 586.382 1144.59 596.086 1141.28 604.135 L 1140.07 603.91 z"/>
<path transform="translate(0,0)" fill="rgb(253,142,140)" d="M 1148.61 575.901 C 1150.21 575.001 1150.48 575.036 1152.25 574.909 C 1155 574.712 1155.36 574.53 1157.74 575.851 C 1160.32 581.516 1155.38 591.184 1156.52 597.639 L 1157.58 597.947 C 1160.14 593.839 1159.02 584.013 1158.54 579.067 C 1159.82 577.162 1160.49 576.209 1162.97 575.783 C 1163.73 575.654 1164.65 575.89 1165.39 576.035 C 1169.57 581.284 1164.85 590.096 1168.72 593.417 C 1174.54 593.571 1176.05 587.547 1181.84 588.401 C 1176.72 592.656 1171.76 595.998 1165.77 598.981 L 1163.44 600.171 L 1154.75 602.72 L 1150.25 603.845 L 1141.28 604.135 C 1144.59 596.086 1145.35 586.382 1146.77 577.816 L 1148.61 575.901 z"/>
<path transform="translate(0,0)" fill="rgb(236,51,49)" d="M 1163.44 600.171 C 1160.94 597.602 1160.45 595.741 1160.29 592.282 C 1160.07 587.496 1160.2 582.976 1163.5 579.231 L 1164.72 580.036 C 1165.79 586.287 1165.67 592.658 1165.77 598.981 L 1163.44 600.171 z"/>
<path transform="translate(0,0)" fill="rgb(236,51,49)" d="M 1150.25 603.845 C 1150.03 603.177 1149.65 602.162 1149.53 601.415 C 1148.6 595.384 1150.67 582.052 1154.46 577.164 C 1158.39 582.401 1152.71 595.004 1154.32 601.534 C 1154.42 601.943 1154.61 602.324 1154.75 602.72 L 1150.25 603.845 z"/>
<path transform="translate(0,0)" fill="rgb(23,21,49)" d="M 1336.71 699.841 C 1338.73 702.495 1339.52 723.976 1340.42 729.361 C 1343 744.775 1348.08 760.242 1353.49 774.904 C 1368.44 815.475 1387.71 836.779 1410.92 871.248 C 1400.93 872.651 1390.72 874.14 1380.61 873.555 C 1364.34 872.189 1348.87 868.273 1335.31 858.787 C 1318.59 847.082 1309.22 828.761 1305.85 808.944 C 1299.02 768.738 1314 732.151 1336.71 699.841 z"/>
<path transform="translate(0,0)" fill="rgb(23,21,49)" d="M 792.361 622.214 C 785.872 619.039 779.305 615.922 773.304 611.873 C 744.887 592.697 724.872 559.997 718.433 526.551 C 707.695 470.78 726.571 424.027 752.178 375.98 C 763.678 354.403 776.295 332.626 789.992 312.367 L 791.313 314.174 L 791.858 312.21 L 790.927 311.294 L 792.092 311.107 C 790.869 316.692 785.46 323.452 782.639 328.636 C 777.832 337.469 773.905 346.372 771.432 356.139 C 763.924 385.78 763.291 416.362 779.14 443.134 A 252.836 252.836 0 0 0 778.556 468.037 C 779.925 506.495 794.426 531.432 822.014 556.993 C 825.649 634.645 832.268 667.894 891.254 721.713 C 918.253 746.347 948.24 770.146 980.844 786.897 C 986.06 786.664 991.065 786.236 996.234 785.438 C 998.592 787.717 998.304 789.976 998.38 793.189 C 998.734 808.215 997.717 823.321 998.19 838.334 C 995.943 854.177 993.507 870.758 979.742 881.097 C 970.17 888.288 950.174 894.661 938.196 893.039 C 921.032 885.781 904.362 877.495 887.213 870.291 C 871.452 868.701 851.836 881.037 836.621 885.906 L 832.159 887.228 A 292.564 292.564 0 0 1 779.691 896.444 L 778.071 895.75 C 776.923 892.142 786.642 862.457 787.734 854.785 C 791.854 825.849 779.699 761.232 761.829 737.765 C 769.038 718.251 772.469 697.237 776.636 676.903 C 762.376 664.235 749.836 649.604 737.374 635.213 C 734.333 671.551 724.208 715.892 701.844 745.61 C 697.116 751.892 686.313 757.31 683.248 762.263 C 683.096 762.509 683.002 762.788 682.879 763.051 C 665.879 770.097 649.306 775.714 630.964 778.109 C 589.808 783.483 544.949 775.774 511.463 806.235 C 503.995 813.027 497.376 821.374 493.627 830.812 C 488.206 844.459 488.838 859.66 492.458 873.655 C 491.449 876.978 490.554 879.934 488.715 882.896 C 483.346 878.443 478.886 873.495 474.632 867.995 C 475.156 867.276 475.864 866.66 476.203 865.837 C 477.341 863.08 475.431 853.17 475.144 849.806 C 474.274 839.608 473.953 829.999 475.751 819.868 A 76.8932 76.8932 0 0 1 494.826 780.961 C 528.144 745.006 577.715 757.377 620.691 749.419 A 121.946 121.946 0 0 0 669.725 728.74 C 702.01 706.003 725.488 667.92 732.245 629.172 A 416.428 416.428 0 0 1 727.917 620.948 C 723.476 612.247 707.839 578.917 710.625 570.24 C 716.588 572.581 723.732 583.321 728.589 588.062 C 744.662 603.754 768.892 617.434 790.96 621.94 L 792.361 622.214 z"/>
<path transform="translate(0,0)" fill="rgb(254,205,184)" d="M 944.028 243.394 C 963.33 250.048 979.908 257.13 994.722 271.529 C 1011.64 261.215 1025.43 257.353 1044.95 254.496 C 1045.77 255.461 1046.03 255.638 1046.55 256.999 C 1047.9 260.54 1047.6 266.3 1048.32 270.181 C 1049.61 277.147 1051.74 284.26 1053.88 291.007 C 1058.72 306.336 1065.31 321.473 1073.93 335.065 C 1061.62 339.281 1041.63 343.637 1035.19 356.056 C 1032.05 362.113 1033.17 368.019 1034.51 374.399 C 1050.88 365.174 1066.63 358.101 1084.47 352.101 C 1106.04 379.09 1125.35 396.553 1155.91 413.154 C 1135.15 390.091 1125.84 373.395 1109.72 347.685 C 1124.94 349.543 1138.99 350.594 1153.88 354.758 C 1159.36 362.215 1165.4 369.119 1171.48 376.086 C 1173.76 388.04 1204.05 427.775 1214.41 435.296 C 1212.28 456.85 1207.26 489.669 1189.58 504.06 C 1185.21 507.622 1178.67 511.359 1172.79 510.578 C 1170.77 510.309 1171.6 510.615 1170.05 508.874 L 1168.07 509.489 L 1168.47 510.23 L 1167.46 511.39 C 1163.98 511.806 1160.39 510.638 1157 509.851 C 1156.46 510.953 1155.99 512.257 1155.19 513.19 C 1153.35 521.101 1151.2 529.071 1144.01 533.878 C 1139.49 536.899 1132.43 536.461 1127.44 535.149 C 1126.44 534.887 1125.94 534.664 1124.92 534.282 C 1119.89 534.772 1114.74 535.515 1109.68 535.538 L 1107.32 534.906 L 1106.46 536.136 C 1109.04 545.619 1115.89 555.834 1124.6 560.75 C 1126.45 561.79 1128.3 562.563 1130.3 563.234 C 1122.72 567.018 1108.7 562.573 1100.87 560.236 C 1099.41 560.519 1098.47 560.853 1097.12 561.485 C 1094.4 562.757 1091.51 562.929 1088.74 564.042 C 1091.99 564.988 1094.57 565.655 1097.98 565.481 C 1100.1 563.522 1101.11 562.838 1104.1 562.937 C 1109.03 563.1 1116.39 565.92 1121.83 566.74 L 1122.4 567.478 C 1120.2 568.348 1118.74 568.626 1116.38 568.779 C 1113.42 568.972 1111.67 569.819 1109.44 571.824 L 1110.38 578.461 C 1110.69 578.064 1110.98 577.655 1111.3 577.27 C 1112.43 575.916 1113 575.522 1114.56 574.862 L 1119.06 575.327 L 1119.12 576.178 C 1121.96 578.418 1123.44 579.23 1123.85 583.221 C 1123.98 584.461 1124.04 585.715 1124.1 586.961 L 1124.75 588.601 L 1122.39 595.936 L 1121.17 594.451 C 1118.08 590.726 1115.84 587.669 1114.01 583.157 L 1112.47 586.164 C 1114.24 595.431 1117.43 601.284 1122.84 608.956 C 1130.29 614.202 1136.32 619.563 1144.9 623.161 C 1149.63 624.679 1154.28 626.081 1159.14 627.138 C 1182.83 629.349 1200.5 623.525 1220.08 610.431 C 1228.04 603.16 1235.38 595.594 1242.7 587.691 L 1246.45 582.349 C 1246.6 579.693 1257.16 565.026 1259.43 561.473 C 1259.8 558.765 1260.97 556.424 1262.06 553.946 C 1266.09 545.536 1269.69 537.191 1272.61 528.331 C 1286.4 533.302 1297.73 540.004 1304.12 553.956 C 1310.68 568.266 1309.3 584.732 1303.7 599.068 C 1294.86 621.712 1275.51 640.255 1253.36 649.86 C 1242.64 654.506 1229.39 657.624 1218.11 653.329 C 1214.31 651.882 1211.34 649.601 1208.34 646.925 L 1207.05 645.965 C 1201.77 650.492 1197.63 656.238 1192.84 661.283 A 425.733 425.733 0 0 1 1164.76 688.493 C 1158.38 694.203 1130.29 716.143 1126.76 721.165 C 1113.55 729.245 1100.83 738.098 1087.42 745.843 A 460.71 460.71 0 0 1 996.234 785.438 C 991.065 786.236 986.06 786.664 980.844 786.897 C 948.24 770.146 918.253 746.347 891.254 721.713 C 832.268 667.894 825.649 634.645 822.014 556.993 C 824.825 557.999 826.567 558.829 828.883 560.706 C 837.39 564.724 845.881 567.47 855.119 569.246 C 861.194 569.913 870.905 570.724 876.407 567.956 L 877.157 565.416 C 867.136 562.667 858.149 559.911 849.465 554.028 C 827.34 539.04 812.737 513.409 807.978 487.446 C 802.832 459.38 805.026 424.077 821.574 399.868 C 830.533 391.04 847.454 362.443 851.561 350.372 L 854.349 349.379 C 856.278 356.346 855.166 366.165 855.405 373.528 C 855.853 387.366 857.264 401.324 860.851 414.714 C 862.29 391.962 869.175 371.249 875.97 349.687 C 884.828 352.064 896.003 354.517 904.139 358.646 C 911.146 362.201 918.533 369.032 925.971 371.151 C 927.969 371.72 927.757 371.412 929.45 370.545 C 931.021 366.425 932.334 362.328 931.052 357.921 C 927.405 345.378 907.127 338.226 895.83 335.323 C 891.584 334.232 886.702 333.955 882.795 332.03 L 882.919 330.9 C 892.339 308.135 908.321 285.174 923.571 266.026 C 928.753 258.986 935.321 251.801 941.75 245.892 L 944.028 243.394 z"/>
<path transform="translate(0,0)" fill="rgb(171,36,113)" d="M 1259.43 561.473 C 1259.8 558.765 1260.97 556.424 1262.06 553.946 C 1270.13 555.398 1276.21 557.614 1281.3 564.514 C 1284.83 569.293 1285.77 575.655 1284.84 581.427 C 1284.63 582.709 1284.25 583.842 1283.73 585.028 C 1283.27 584.436 1282.84 583.97 1282.61 583.205 C 1280.86 577.473 1279.66 571.566 1275.5 566.835 C 1271.37 562.136 1265.22 561.82 1259.43 561.473 z"/>
<path transform="translate(0,0)" fill="rgb(171,36,113)" d="M 948.32 573.189 C 950.328 568.227 953.236 557.864 957.565 554.74 L 958.847 555.583 C 959.601 560.768 957.663 564.371 955.556 569.029 L 951.648 581.839 C 951.783 582.126 951.914 582.417 952.054 582.702 C 954.143 586.941 962.582 594.797 961.615 599.069 C 957.922 598.791 954.19 596.011 951.874 593.109 C 950.088 590.871 948.629 588.289 947.149 585.841 C 945.288 580.778 946.428 577.991 948.32 573.189 z"/>
<path transform="translate(0,0)" fill="rgb(248,122,119)" d="M 941.75 245.892 C 939.727 256.953 931.281 264.84 925.215 273.891 C 915.497 288.696 902.361 314.996 890.315 326.704 C 888.215 328.746 885.587 329.791 882.919 330.9 C 892.339 308.135 908.321 285.174 923.571 266.026 C 928.753 258.986 935.321 251.801 941.75 245.892 z"/>
<path transform="translate(0,0)" fill="rgb(253,142,140)" d="M 828.883 560.706 C 837.39 564.724 845.881 567.47 855.119 569.246 C 861.194 569.913 870.905 570.724 876.407 567.956 L 877.157 565.416 L 879.651 563.668 L 881.275 564.981 C 881.39 567.111 881.884 567.917 880.629 569.721 C 877.471 570.001 868.549 570.027 866.196 571.882 L 866.942 573.737 L 867.928 571.086 C 866.962 571.929 867.086 572.549 866.812 573.767 L 868.219 574.274 L 865.064 575.052 C 865.16 581.368 859.442 594.52 857.501 601.104 C 856.104 602.368 855.978 602.429 854.003 602.856 L 853.223 601.283 C 850.607 600.46 848.578 599.439 846.212 598.099 L 844.759 597.899 L 843.54 595.778 L 842.208 595.562 C 838.835 594.993 839.115 594.841 837.099 592.023 C 835.411 592.417 834.786 591.881 833.19 591.312 L 833.092 596.258 C 832.628 595.188 831.856 593.687 831.689 592.491 C 830.224 582.028 839.416 576.858 844.198 569.356 C 838.995 567.424 833.985 565.608 829.219 562.702 L 828.883 560.706 z"/>
<path transform="translate(0,0)" fill="rgb(236,51,49)" d="M 833.19 591.312 C 835.054 585.368 838.418 576.408 843.816 572.807 C 844.346 572.454 844.976 572.28 845.555 572.016 C 844.842 578.733 839.705 585.708 837.099 592.023 C 835.411 592.417 834.786 591.881 833.19 591.312 z"/>
<path transform="translate(0,0)" fill="rgb(236,51,49)" d="M 854.269 570.996 L 856.056 574.353 C 851.822 581.889 849.98 590.389 846.212 598.099 L 844.759 597.899 L 843.54 595.778 C 845.154 586.399 848.796 578.695 854.269 570.996 z"/>
<path transform="translate(0,0)" fill="rgb(236,51,49)" d="M 859.76 577.874 C 861.713 575.387 861.905 575.638 865.064 575.052 C 865.16 581.368 859.442 594.52 857.501 601.104 C 856.104 602.368 855.978 602.429 854.003 602.856 L 853.223 601.283 C 854.626 593.142 857.11 585.672 859.76 577.874 z"/>
<path transform="translate(0,0)" fill="rgb(236,51,49)" d="M 920.574 533.354 C 924.002 527.308 926.031 515.17 929.75 511.288 C 932.697 511.972 933.226 513.597 935.035 515.947 C 934.868 527.968 933.26 536.968 927.579 547.723 C 922.487 553.326 915.77 561.168 907.501 561.034 C 906.47 561.017 906.061 560.893 905.13 560.695 C 900.034 557.584 896.162 553.788 892.451 549.177 C 889.506 545.519 883.97 539.416 884.488 534.546 L 885.974 533.376 L 887.155 533.777 C 887.667 533.946 888.186 534.094 888.693 534.277 C 889.13 534.434 889.538 534.67 889.985 534.794 C 894.16 535.954 900.085 532.666 903.893 530.984 C 908.453 532.776 915.612 532.773 920.574 533.354 z"/>
<path transform="translate(0,0)" fill="rgb(248,122,119)" d="M 1259.43 561.473 C 1265.22 561.82 1271.37 562.136 1275.5 566.835 C 1279.66 571.566 1280.86 577.473 1282.61 583.205 C 1282.84 583.97 1283.27 584.436 1283.73 585.028 C 1279.83 597.913 1273.11 607.946 1261.03 614.605 C 1254.95 617.952 1247.29 620.263 1240.33 619.982 C 1238.07 620.642 1236.85 621.605 1235.1 623.117 C 1233.46 624.537 1233.27 624.938 1231.09 625.372 C 1229.46 622.909 1227.88 620.375 1225.94 618.142 L 1224.89 616.958 C 1223.58 614.628 1221.72 612.544 1220.08 610.431 C 1228.04 603.16 1235.38 595.594 1242.7 587.691 L 1246.45 582.349 C 1246.6 579.693 1257.16 565.026 1259.43 561.473 z"/>
<path transform="translate(0,0)" fill="rgb(115,15,86)" d="M 1246.45 582.349 C 1250.29 586.814 1250.34 588.837 1250.17 594.698 C 1248.71 594.619 1247.27 594.468 1245.82 594.333 L 1244.21 590.616 L 1242.7 587.691 L 1246.45 582.349 z"/>
<path transform="translate(0,0)" fill="rgb(254,185,166)" d="M 1242.7 587.691 L 1244.21 590.616 L 1245.82 594.333 C 1247.27 594.468 1248.71 594.619 1250.17 594.698 C 1249.63 602.164 1247.5 609.4 1242.74 615.33 L 1240.33 619.982 C 1238.07 620.642 1236.85 621.605 1235.1 623.117 C 1233.46 624.537 1233.27 624.938 1231.09 625.372 C 1229.46 622.909 1227.88 620.375 1225.94 618.142 L 1224.89 616.958 C 1223.58 614.628 1221.72 612.544 1220.08 610.431 C 1228.04 603.16 1235.38 595.594 1242.7 587.691 z"/>
<path transform="translate(0,0)" fill="rgb(171,36,113)" d="M 1244.21 590.616 L 1245.82 594.333 C 1247.27 594.468 1248.71 594.619 1250.17 594.698 C 1249.63 602.164 1247.5 609.4 1242.74 615.33 L 1240.33 619.982 C 1238.07 620.642 1236.85 621.605 1235.1 623.117 C 1233.46 624.537 1233.27 624.938 1231.09 625.372 C 1229.46 622.909 1227.88 620.375 1225.94 618.142 L 1224.89 616.958 C 1225.23 616.866 1225.58 616.778 1225.92 616.683 L 1227.57 616.217 C 1234.27 614.378 1237.51 611.908 1242.19 606.743 C 1243.26 601.307 1243.94 596.155 1244.21 590.616 z"/>
<path transform="translate(0,0)" fill="rgb(236,51,49)" d="M 989.306 708.747 C 989.526 707.308 989.726 705.923 990.222 704.546 C 995.272 690.522 1009.96 678.585 1023.12 672.574 C 1037.93 665.808 1052.11 665.484 1067.31 671.016 C 1061.26 688.676 1052.05 704.099 1034.76 712.746 C 1024.77 717.74 1013.91 719.369 1003.2 715.727 A 53.2972 53.2972 0 0 1 989.306 708.747 z"/>
<path transform="translate(0,0)" fill="rgb(253,141,122)" d="M 1084.56 581.488 C 1086.2 579.723 1088.01 578.082 1089.84 576.512 C 1093.25 573.587 1097.88 571.026 1102.53 571.595 C 1104.79 571.871 1103.72 571.879 1105.7 571.845 C 1106.95 571.824 1108.19 571.809 1109.44 571.824 L 1110.38 578.461 C 1110.69 578.064 1110.98 577.655 1111.3 577.27 C 1112.43 575.916 1113 575.522 1114.56 574.862 L 1119.06 575.327 L 1119.12 576.178 C 1121.96 578.418 1123.44 579.23 1123.85 583.221 C 1123.98 584.461 1124.04 585.715 1124.1 586.961 L 1124.75 588.601 L 1122.39 595.936 L 1121.17 594.451 C 1118.08 590.726 1115.84 587.669 1114.01 583.157 L 1112.47 586.164 C 1114.24 595.431 1117.43 601.284 1122.84 608.956 C 1130.29 614.202 1136.32 619.563 1144.9 623.161 C 1149.63 624.679 1154.28 626.081 1159.14 627.138 C 1150.44 629.033 1134.47 640.91 1126.65 638.873 C 1127.67 637.015 1129.47 636.908 1131.42 636.203 C 1129.44 635.412 1127.52 634.738 1125.72 633.583 C 1124.62 633.971 1123.53 634.339 1122.39 634.608 C 1113.43 636.73 1095 630.162 1087.28 625.445 C 1080.08 621.05 1075.19 614.977 1073.33 606.71 L 1074.6 605.511 C 1077.97 606.739 1082.93 616.11 1085.51 619.339 C 1080.04 605.989 1080.49 595.055 1084.56 581.488 z"/>
<path transform="translate(0,0)" fill="rgb(236,51,49)" d="M 1100.88 596.155 C 1100.38 588.392 1101.63 581.844 1105.51 575.067 L 1107.1 574.74 C 1108.42 577.486 1107.8 579.377 1107.53 582.374 C 1106.9 584.379 1106.25 586.371 1105.66 588.388 C 1104.66 591.842 1103.43 593.642 1100.88 596.155 z"/>
<path transform="translate(0,0)" fill="rgb(248,122,119)" d="M 1111.74 586.309 C 1111.79 583.434 1112.16 581.184 1112.87 578.395 C 1115.38 576.016 1115.8 576.357 1119.12 576.178 C 1121.96 578.418 1123.44 579.23 1123.85 583.221 C 1123.98 584.461 1124.04 585.715 1124.1 586.961 L 1124.75 588.601 L 1122.39 595.936 L 1121.17 594.451 C 1118.08 590.726 1115.84 587.669 1114.01 583.157 L 1112.47 586.164 C 1114.24 595.431 1117.43 601.284 1122.84 608.956 C 1122.68 608.886 1122.52 608.813 1122.36 608.747 C 1119.01 607.357 1117.64 605.258 1115.48 602.388 L 1114.59 601.183 C 1109.75 600.066 1105.19 598.691 1100.88 596.155 C 1103.43 593.642 1104.66 591.842 1105.66 588.388 C 1106.25 586.371 1106.9 584.379 1107.53 582.374 L 1111.74 586.309 z"/>
<path transform="translate(0,0)" fill="rgb(253,141,122)" d="M 868.219 574.274 C 872.284 574.555 878.901 574.355 881.938 577.365 C 883.085 581.065 882.918 586.073 885.004 589.121 C 885.041 586.058 886.174 580.497 888.153 578.329 L 889.833 577.837 C 892.097 576.895 893.796 576.389 896.246 576.21 L 897.615 577.609 L 897.201 582.369 L 899.18 583.583 C 900.469 581.841 900.603 581.151 901.027 579.091 C 902.651 579.549 904.181 581.531 904.713 583.214 C 904.859 583.678 904.858 584.176 904.931 584.656 L 902.093 586.267 C 905.989 600.001 909.115 604.77 901.848 617.775 A 1095.97 1095.97 0 0 1 895.441 629.059 C 903.341 621.371 912.789 610.493 914.717 599.486 C 914.821 598.888 915.177 597.938 915.4 597.312 L 916.577 598.544 A 49.5412 49.5412 0 0 1 899.127 631.599 C 891.697 637.721 881.886 641.764 872.124 640.597 C 864.081 639.637 845.355 633.834 840.077 627.57 C 839.869 627.323 839.717 627.034 839.537 626.767 L 840.512 623.99 C 837.355 619.453 834.072 614.979 831.345 610.166 C 832.095 606.448 834.168 599.76 833.092 596.258 L 833.19 591.312 C 834.786 591.881 835.411 592.417 837.099 592.023 C 839.115 594.841 838.835 594.993 842.208 595.562 L 843.54 595.778 L 844.759 597.899 L 846.212 598.099 C 848.578 599.439 850.607 600.46 853.223 601.283 L 854.003 602.856 C 855.978 602.429 856.104 602.368 857.501 601.104 C 859.442 594.52 865.16 581.368 865.064 575.052 L 868.219 574.274 z"/>
<path transform="translate(0,0)" fill="rgb(236,51,49)" d="M 890.247 578.761 L 892.288 580.479 C 892.336 585.963 891.105 594.773 887.147 598.866 C 886.891 599.13 886.576 599.33 886.29 599.563 C 884.397 599.365 885.097 599.724 884.024 598.904 C 885.504 592.775 886.54 583.796 890.247 578.761 z"/>
<path transform="translate(0,0)" fill="rgb(253,142,140)" d="M 868.219 574.274 C 872.284 574.555 878.901 574.355 881.938 577.365 C 883.085 581.065 882.918 586.073 885.004 589.121 C 885.041 586.058 886.174 580.497 888.153 578.329 L 889.833 577.837 L 890.247 578.761 C 886.54 583.796 885.504 592.775 884.024 598.904 L 881.365 598.711 L 879.509 598.6 C 878.971 595.967 879.277 593.271 879.407 590.605 L 876.657 591.669 C 875.198 595.635 874.804 598.999 871.653 601.926 L 867.267 602.881 C 865.496 604.334 866.494 603.977 864.305 604.045 C 862.005 603.175 859.755 602.091 857.501 601.104 C 859.442 594.52 865.16 581.368 865.064 575.052 L 868.219 574.274 z"/>
<path transform="translate(0,0)" fill="rgb(236,51,49)" d="M 864.305 604.045 C 864.974 596.827 866.154 585.215 869.819 578.911 C 870.767 577.281 871.156 577.622 872.869 577.191 C 871.941 586.413 870.388 594.112 867.267 602.881 C 865.496 604.334 866.494 603.977 864.305 604.045 z"/>
<path transform="translate(0,0)" fill="rgb(246,245,249)" d="M 837.939 465.658 C 846.244 466.666 861.089 457.951 872.577 458.015 C 877.07 458.04 883.507 458.786 886.788 462.09 C 877.529 482.381 877.879 498.069 879.319 519.942 C 884.583 515.557 887.862 513.145 894.92 513.872 C 898.526 514.243 901.948 515.535 903.93 518.791 C 906.23 522.569 905.625 526.306 904.198 530.235 C 904.106 530.488 903.995 530.734 903.893 530.984 C 900.085 532.666 894.16 535.954 889.985 534.794 C 889.538 534.67 889.13 534.434 888.693 534.277 C 888.186 534.094 887.667 533.946 887.155 533.777 L 885.974 533.376 L 884.488 534.546 C 883.97 539.416 889.506 545.519 892.451 549.177 C 896.162 553.788 900.034 557.584 905.13 560.695 C 902.157 563.287 900.177 562.818 896.338 563.065 C 888.54 561.261 880.956 558.805 874.132 554.529 C 856.918 543.741 843.468 521.215 839.578 501.477 C 838.401 495.503 838.801 489.161 837.318 483.28 C 837.182 482.74 837.035 482.204 836.894 481.666 C 836.396 476.293 837.293 470.989 837.939 465.658 z"/>
<path transform="translate(0,0)" fill="rgb(115,15,86)" d="M 952.001 649.832 C 993.596 648.091 1031.29 639.788 1070.87 627.308 C 1071.15 642.176 1070.62 656.492 1067.31 671.016 C 1052.11 665.484 1037.93 665.808 1023.12 672.574 C 1009.96 678.585 995.272 690.522 990.222 704.546 C 989.726 705.923 989.526 707.308 989.306 708.747 C 969.741 693.869 958.569 673.086 952.001 649.832 z"/>
<path transform="translate(0,0)" fill="rgb(246,245,249)" d="M 1061.89 633.103 L 1064.35 633.366 L 1064.23 634.951 C 1057.17 645.035 1046.2 652.455 1034.93 657.131 C 1018.08 664.123 993.157 669.159 975.787 662.002 C 971.598 658.787 969.018 655.628 966.016 651.351 C 999.183 649.674 1030.39 643.437 1061.89 633.103 z"/>
<path transform="translate(0,0)" fill="rgb(52,2,49)" d="M 834.396 438.846 C 827.312 432.908 819.498 425.351 818.457 415.62 C 818.171 412.948 818.841 411.156 819.905 408.745 L 821.902 407.543 C 826.352 408.844 836.393 424.37 841.577 428.893 C 852.469 421.395 862.977 417.067 876.491 419.628 C 894.694 423.077 908.893 436.558 918.727 451.594 C 931.341 470.879 935.998 493.099 935.035 515.947 C 933.226 513.597 932.697 511.972 929.75 511.288 C 926.031 515.17 924.002 527.308 920.574 533.354 C 915.612 532.773 908.453 532.776 903.893 530.984 C 903.995 530.734 904.106 530.488 904.198 530.235 C 905.625 526.306 906.23 522.569 903.93 518.791 C 901.948 515.535 898.526 514.243 894.92 513.872 C 887.862 513.145 884.583 515.557 879.319 519.942 C 877.879 498.069 877.529 482.381 886.788 462.09 C 883.507 458.786 877.07 458.04 872.577 458.015 C 861.089 457.951 846.244 466.666 837.939 465.658 C 837.293 470.989 836.396 476.293 836.894 481.666 C 831.13 482.137 826.837 484.606 821.839 487.273 C 822.138 470.11 824.155 453.208 834.396 438.846 z"/>
<path transform="translate(0,0)" fill="rgb(206,200,229)" d="M 837.939 465.658 C 838.474 463.454 839.241 461.492 840.195 459.428 C 844.627 449.836 851.481 442.123 861.747 438.772 C 875.776 434.194 887.854 438.947 900.119 445.473 C 894.916 450.534 890.939 456.162 886.788 462.09 C 883.507 458.786 877.07 458.04 872.577 458.015 C 861.089 457.951 846.244 466.666 837.939 465.658 z"/>
<path transform="translate(0,0)" fill="rgb(52,2,49)" d="M 1153.65 430.245 C 1161.76 423.331 1168.1 415.987 1174.58 407.595 L 1176.36 407.837 C 1178.46 411.261 1178.65 414.949 1177.82 418.831 C 1176 427.328 1169.02 433.509 1162.98 439.239 C 1178.64 457.681 1183.25 473.941 1185.92 497.611 C 1182.37 495.135 1175.75 489.293 1171.57 489.41 C 1169.28 494.815 1171.55 502.787 1170.05 508.874 L 1168.07 509.489 L 1168.47 510.23 L 1167.46 511.39 C 1163.98 511.806 1160.39 510.638 1157 509.851 C 1156.46 510.953 1155.99 512.257 1155.19 513.19 C 1153.35 521.101 1151.2 529.071 1144.01 533.878 C 1139.49 536.899 1132.43 536.461 1127.44 535.149 C 1126.44 534.887 1125.94 534.664 1124.92 534.282 C 1119.89 534.772 1114.74 535.515 1109.68 535.538 L 1107.32 534.906 L 1106.46 536.136 C 1109.04 545.619 1115.89 555.834 1124.6 560.75 C 1126.45 561.79 1128.3 562.563 1130.3 563.234 C 1122.72 567.018 1108.7 562.573 1100.87 560.236 C 1089.34 554.063 1079.71 546.552 1072.21 535.685 C 1060.86 519.238 1054.98 494.095 1058.71 474.417 L 1053.21 470.739 C 1049.25 476.44 1045.38 482.23 1041.3 487.847 C 1048.17 462.179 1054.61 439.906 1079.11 425.762 A 67.5025 67.5025 0 0 1 1131.2 419.553 C 1139.39 421.851 1146.64 425.464 1153.65 430.245 z"/>
<path transform="translate(0,0)" fill="rgb(96,63,93)" d="M 1157 509.851 C 1155.02 507.647 1152.33 505.432 1151.94 502.379 C 1156.23 502.485 1163.96 507.495 1168.07 509.489 L 1168.47 510.23 L 1167.46 511.39 C 1163.98 511.806 1160.39 510.638 1157 509.851 z"/>
<path transform="translate(0,0)" fill="rgb(206,200,229)" d="M 1053.21 470.739 C 1063.7 455.887 1073.54 443.708 1091.47 437.647 C 1108.5 431.893 1123.63 434.074 1139.42 441.85 C 1127.86 445.185 1121.81 449.529 1113.71 458.152 C 1105.37 454.224 1087.24 458.437 1078.82 461.512 C 1070.82 464.435 1064.64 468.332 1058.71 474.417 L 1053.21 470.739 z"/>
<path transform="translate(0,0)" fill="rgb(246,245,249)" d="M 1058.71 474.417 C 1064.64 468.332 1070.82 464.435 1078.82 461.512 C 1087.24 458.437 1105.37 454.224 1113.71 458.152 C 1101.71 478.831 1098.96 495.103 1101.14 518.811 C 1106.42 515.142 1110.48 512.474 1117.19 513.594 C 1120.89 514.212 1123.62 515.971 1125.57 519.257 C 1127.68 522.821 1127.27 527.938 1125.96 531.693 C 1125.66 532.571 1125.28 533.425 1124.92 534.282 C 1119.89 534.772 1114.74 535.515 1109.68 535.538 L 1107.32 534.906 L 1106.46 536.136 C 1109.04 545.619 1115.89 555.834 1124.6 560.75 C 1126.45 561.79 1128.3 562.563 1130.3 563.234 C 1122.72 567.018 1108.7 562.573 1100.87 560.236 C 1089.34 554.063 1079.71 546.552 1072.21 535.685 C 1060.86 519.238 1054.98 494.095 1058.71 474.417 z"/>
<path transform="translate(0,0)" fill="rgb(246,245,249)" d="M 1126.76 721.165 C 1130.29 716.143 1158.38 694.203 1164.76 688.493 A 425.733 425.733 0 0 0 1192.84 661.283 C 1197.63 656.238 1201.77 650.492 1207.05 645.965 L 1208.34 646.925 C 1208.31 647.247 1208.29 647.569 1208.25 647.89 C 1206.61 664.721 1200.91 681.704 1198.1 698.47 C 1189.41 750.335 1184.62 808.133 1194.16 860.173 C 1198.06 875.974 1202.06 891.003 1216.88 900.184 C 1219.74 901.955 1222.75 903.315 1225.85 904.606 C 1236.95 898.729 1251.15 899.89 1262.42 894.817 C 1277.4 894.653 1294.52 909.299 1308.09 915.511 L 1311.75 917.233 C 1340.92 930.036 1370.91 933.168 1401.42 940.845 C 1422.66 945.694 1447.62 955.401 1462.58 972.03 L 1465.92 975.425 C 1505.45 1014.33 1513.72 1071.05 1517.96 1123.84 C 1519.43 1142.12 1520.86 1160.58 1521 1178.94 C 1521.12 1194.21 1519.55 1210.13 1520.7 1225.31 C 1522.1 1243.82 1537.37 1296.25 1543.77 1314.75 L 1545.21 1319.69 L 1547.75 1320.96 C 1547.62 1321.56 1547.47 1322.16 1547.37 1322.77 C 1546.52 1327.48 1547.8 1332.43 1548.87 1337.01 C 1555.92 1367.25 1561.38 1373.51 1533.35 1394.95 C 1519.18 1405.79 1500.07 1412.74 1487.5 1425.1 C 1476.57 1427.62 1464.62 1434.64 1454.36 1439.36 C 1454.04 1447.18 1448.63 1472.4 1451.26 1477.7 C 1447.29 1486.98 1448.67 1498.89 1447.18 1508.84 C 1442.55 1539.63 1440.9 1571.44 1438.81 1602.51 C 1437.62 1620.22 1437.46 1638.83 1433.3 1656.13 C 1427.71 1679.38 1416.62 1702.63 1406.02 1723.97 C 1399.73 1736.64 1392.78 1754.58 1378.49 1759.92 C 1374.51 1761.41 1370.36 1762.13 1366.19 1762.82 C 1369.16 1793.89 1397.15 1814.45 1404.05 1843.54 C 1411.14 1873.48 1399.38 1918.84 1400.58 1952.13 L 1401.5 1955.71 C 1405.7 1971.48 1411.26 1988.06 1412.59 2004.33 C 1411.02 2005.9 1410.84 2006.15 1408.47 2006.09 C 1403.5 2005.95 1397.92 2004.17 1393.01 2003.2 C 1395.93 2014.3 1399.87 2025.18 1403.51 2036.06 L 1405.97 2041.94 L 1407.4 2048 L 1342.13 2048 L 1331.17 2048 L 1066.6 2048 L 1060.65 2048 L 993.945 2048 L 987.91 2048 L 633.454 2048 L 579.514 2048 L 581.017 2043.13 L 582.445 2035.75 L 585.353 2023.36 L 587.148 2016.11 C 590.36 2002.46 593.059 1988.53 595.425 1974.7 C 589.302 1970.85 584.222 1975.19 577.806 1975.3 C 575.54 1975.34 575.402 1975.36 573.816 1973.67 C 571.577 1961.72 584.202 1921.32 587.366 1906.93 L 588.594 1902.66 C 588.932 1893.27 589.927 1883.98 589.927 1874.56 C 589.925 1850.27 586.453 1822.22 593.741 1798.89 C 596.449 1790.22 601.528 1782.56 607.608 1775.9 C 622.383 1759.7 639.559 1746.07 651.458 1727.32 C 660.411 1713.22 668.023 1696.97 674.065 1681.36 C 679.215 1668.06 683.453 1654.76 690.202 1642.11 C 695.136 1632.87 700.69 1622.81 702.122 1612.28 C 703.766 1600.19 703.069 1587.43 703.232 1575.22 C 703.867 1527.77 699.651 1481.26 696.748 1433.97 C 695.934 1420.71 697.492 1400 693.25 1387.78 C 692.309 1385.07 690.087 1383.74 687.65 1382.4 C 678.221 1377.18 667.284 1373.88 657.289 1369.84 C 646.249 1365.38 635.595 1360.12 624.917 1354.87 C 625.654 1354.86 626.911 1354.87 627.601 1354.7 C 632.912 1353.4 652.471 1312.53 657.045 1305.52 C 669.878 1310.53 682.948 1319.45 696.119 1323.05 C 698.08 1323.59 697.222 1323.69 698.902 1322.73 C 693.967 1315.84 668.469 1307.29 659.515 1301.65 C 659.176 1301.43 658.842 1301.21 658.506 1300.99 C 665.96 1287.19 673.598 1272.68 679.164 1258.03 C 670.569 1228 665.957 1199.06 664.722 1167.87 C 675.493 1180.68 685.477 1189.07 699.846 1197.78 C 704.093 1182.78 707.491 1168.26 709.606 1152.79 C 704.469 1137.98 696.937 1124.14 692.405 1109.06 C 688.8 1099.25 684.958 1089.11 683.12 1078.79 C 675.55 1050.7 673.862 1022.84 673.956 993.907 C 673.939 985.139 675.055 976.392 676.649 967.784 C 678.196 962.925 679.255 957.485 679.72 952.409 C 682.742 952.28 685.722 952.149 688.747 952.303 A 103.83 103.83 0 0 0 764.101 912.393 C 767.095 908.527 771.607 899.557 775.647 897.229 C 776.447 896.768 778.694 896.637 779.691 896.444 A 292.564 292.564 0 0 0 832.159 887.228 L 836.621 885.906 C 851.836 881.037 871.452 868.701 887.213 870.291 C 904.362 877.495 921.032 885.781 938.196 893.039 C 950.174 894.661 970.17 888.288 979.742 881.097 C 993.507 870.758 995.943 854.177 998.19 838.334 C 997.717 823.321 998.734 808.215 998.38 793.189 C 998.304 789.976 998.592 787.717 996.234 785.438 A 460.71 460.71 0 0 0 1087.42 745.843 C 1100.83 738.098 1113.55 729.245 1126.76 721.165 z"/>
<path transform="translate(0,0)" fill="rgb(164,152,207)" d="M 679.72 952.409 C 682.742 952.28 685.722 952.149 688.747 952.303 C 686.55 953.25 684.207 953.571 683.125 955.909 C 682.017 958.302 682.115 962.26 681.935 964.933 C 680.531 973.865 680.193 983.28 678.499 992.07 L 676.299 989.846 L 673.956 993.907 C 673.939 985.139 675.055 976.392 676.649 967.784 C 678.196 962.925 679.255 957.485 679.72 952.409 z"/>
<path transform="translate(0,0)" fill="rgb(164,152,207)" d="M 692.405 1109.06 C 692.562 1107.67 692.497 1106.31 692.473 1104.9 L 692.932 1105.45 L 692.167 1102.86 L 692.3 1102.8 L 693.34 1103.88 L 694.927 1104.29 A 4885.73 4885.73 0 0 1 716.226 1154.33 C 719.973 1161.92 723.587 1169.61 727.696 1177.01 C 729.06 1179.71 730.34 1181.19 730.032 1184.25 L 727.512 1186.54 C 723.397 1176.14 711.646 1162.4 709.606 1152.79 C 704.469 1137.98 696.937 1124.14 692.405 1109.06 z"/>
<path transform="translate(0,0)" fill="rgb(150,144,187)" d="M 673.956 993.907 L 676.299 989.846 L 678.499 992.07 C 677.025 1018.01 680.352 1043.38 685.103 1068.82 C 687.905 1080.68 692.525 1092.49 694.927 1104.29 L 693.34 1103.88 L 692.3 1102.8 L 692.167 1102.86 L 692.932 1105.45 L 692.473 1104.9 C 692.497 1106.31 692.562 1107.67 692.405 1109.06 C 688.8 1099.25 684.958 1089.11 683.12 1078.79 C 675.55 1050.7 673.862 1022.84 673.956 993.907 z"/>
<path transform="translate(0,0)" fill="rgb(206,200,229)" d="M 1401.42 940.845 C 1422.66 945.694 1447.62 955.401 1462.58 972.03 C 1457.94 983.837 1458.82 998.72 1452.42 1009.7 C 1445.44 1001.81 1441.52 983.052 1432.63 971.889 C 1425.87 963.389 1403.44 947.897 1401.42 940.845 z"/>
<path transform="translate(0,0)" fill="rgb(164,152,207)" d="M 780.897 1082.34 C 766.574 1117.19 751.832 1151.73 738.025 1186.81 C 729.578 1208.27 720.235 1229.86 715.576 1252.53 L 714.99 1247.47 C 716.131 1245.21 716.048 1244.2 715.635 1241.73 C 714.284 1244.25 713.756 1247.2 713.014 1249.95 C 711.902 1238.1 724.418 1206.82 726.629 1192.02 C 726.902 1190.19 727.209 1188.36 727.512 1186.54 L 730.032 1184.25 C 730.34 1181.19 729.06 1179.71 727.696 1177.01 C 723.587 1169.61 719.973 1161.92 716.226 1154.33 C 723.978 1151.75 732.975 1151.5 741.098 1150.63 C 753.263 1129.96 767.309 1101.15 780.897 1082.34 z"/>
<path transform="translate(0,0)" fill="rgb(206,200,229)" d="M 716.226 1154.33 C 723.978 1151.75 732.975 1151.5 741.098 1150.63 C 737.506 1158.42 733.381 1170.94 727.696 1177.01 C 723.587 1169.61 719.973 1161.92 716.226 1154.33 z"/>
<path transform="translate(0,0)" fill="rgb(164,152,207)" d="M 1462.58 972.03 L 1465.92 975.425 C 1462.73 983.902 1461.81 993.264 1459.8 1002.08 C 1457.95 1010.19 1455.29 1018.04 1453.29 1026.09 C 1447.23 1043.07 1441.83 1060.2 1435.23 1076.99 C 1421.08 1110.99 1405.06 1143.21 1384.8 1174.03 C 1375.37 1188.37 1364.76 1201.84 1355.2 1216.06 C 1354.06 1218.93 1354.08 1219.15 1354.79 1222.16 C 1360.43 1232.53 1366.96 1279.76 1367.68 1293.58 L 1367.17 1294.23 C 1363.42 1286.01 1363.15 1274.75 1360.73 1265.79 C 1357.99 1255.6 1353.99 1246.49 1350.47 1236.66 C 1347.49 1227.68 1323.16 1133.14 1323.6 1130.04 C 1334.43 1156.32 1343.3 1183.22 1353.36 1209.79 C 1384.7 1174.57 1412.65 1120.64 1430.24 1077 C 1439.23 1055.02 1447.08 1032.88 1452.42 1009.7 C 1458.82 998.72 1457.94 983.837 1462.58 972.03 z"/>
<path transform="translate(0,0)" fill="rgb(164,152,207)" d="M 832.159 887.228 L 836.621 885.906 C 839.779 919.865 847.862 951.536 863.307 982.153 C 885.787 1019.38 912.188 1052.8 948.824 1077.15 A 325.294 325.294 0 0 0 972.584 1091.21 C 976.005 1093.07 980.979 1094.89 983.9 1097.31 C 994.857 1101.73 1005.84 1105.22 1017.04 1108.92 C 1057.14 1116.12 1097.69 1107.52 1135.06 1092.17 C 1195.37 1067.41 1256.12 1022.67 1288.05 964.792 C 1296.54 949.4 1300.54 933.307 1307.28 917.382 L 1308.09 915.511 L 1311.75 917.233 C 1311.54 917.563 1311.3 917.877 1311.11 918.224 C 1309.07 922 1308.41 927.774 1307.04 931.977 C 1303.29 943.473 1298.98 954.032 1293.06 964.617 C 1256.94 1029.19 1191 1076.81 1122.13 1101.38 C 1088.33 1113.43 1042.35 1125.41 1007.63 1110.66 C 1007.36 1110.55 1007.1 1110.4 1006.84 1110.28 C 999.586 1108.42 992.815 1105.73 985.887 1102.93 A 274.995 274.995 0 0 1 880.634 1016.6 C 871.862 1004.73 864.264 991.941 856.344 979.492 C 854.708 972.702 851.017 965.659 848.407 959.136 A 264.615 264.615 0 0 1 837.737 927.152 C 834.876 916.246 834.994 895.133 832.159 887.228 z"/>
<path transform="translate(0,0)" fill="rgb(206,200,229)" d="M 836.621 885.906 C 851.836 881.037 871.452 868.701 887.213 870.291 C 881.67 879.752 880.223 888.914 879.597 899.653 C 880.821 912.147 885.484 923.299 887.264 935.373 C 888.743 938.426 890.078 941.405 892.193 944.076 C 896.177 956.572 904.89 967.977 912.354 978.621 L 912.368 979.363 C 897.423 984.492 878.949 979.804 863.307 982.153 C 847.862 951.536 839.779 919.865 836.621 885.906 z"/>
<path transform="translate(0,0)" fill="rgb(236,51,49)" d="M 1259.92 1319.51 C 1260.25 1304.32 1261.37 1289.14 1262.09 1273.96 C 1262.68 1261.71 1262.23 1248.47 1264.97 1236.48 C 1265.81 1232.82 1266.97 1229.84 1269.79 1227.28 C 1273.58 1223.85 1279.23 1221.85 1284.35 1222.38 C 1288.63 1222.82 1292.87 1225.27 1295.43 1228.71 C 1298.34 1232.61 1299.52 1237.31 1299.78 1242.1 C 1300.75 1260.2 1297.58 1279.85 1296.62 1298.06 L 1293.98 1344.53 C 1293.65 1351.53 1294.13 1359.09 1292.94 1365.98 A 19.7626 19.7626 0 0 1 1284.64 1379.08 C 1280.92 1381.64 1276.34 1382.8 1271.88 1381.86 C 1267.35 1380.9 1263.01 1377.62 1260.53 1373.75 C 1254.62 1365.02 1258.6 1330.68 1259.92 1319.51 z"/>
<path transform="translate(0,0)" fill="rgb(236,51,49)" d="M 1046.86 1205.16 C 1048.57 1205.05 1050.3 1204.94 1052.02 1204.97 C 1057.06 1205.07 1062.22 1206.47 1065.63 1210.42 C 1068.19 1213.4 1069.32 1216.48 1069.51 1220.38 C 1070.05 1231.91 1067.49 1244.73 1066.26 1256.25 A 6348.55 6348.55 0 0 0 1058.52 1330.88 C 1075.53 1331.72 1093.17 1332.89 1110.02 1335.3 C 1110.09 1335.35 1110.17 1335.41 1110.24 1335.47 C 1113.89 1338.21 1116.68 1340.37 1118.27 1344.77 C 1119.82 1349.06 1119.86 1353.82 1117.79 1357.93 C 1115.14 1363.21 1110.98 1365.39 1105.58 1367.16 A 95.0558 95.0558 0 0 1 1102.71 1367.14 C 1087.59 1366.7 1045.07 1364.25 1032.34 1360.24 C 1029.51 1359.35 1027.12 1357.73 1025.15 1355.52 C 1022.54 1352.6 1021.6 1349.22 1021.44 1345.37 C 1020.89 1332.59 1023.89 1318.43 1025.39 1305.64 C 1028.84 1276.28 1033.06 1246.5 1034.44 1216.98 C 1037.92 1211.28 1040.79 1208.08 1046.86 1205.16 z"/>
<path transform="translate(0,0)" fill="rgb(206,200,229)" d="M 832.159 887.228 C 834.994 895.133 834.876 916.246 837.737 927.152 A 264.615 264.615 0 0 0 848.407 959.136 C 851.017 965.659 854.708 972.702 856.344 979.492 C 833.657 982.43 786.098 974.042 763.229 968.2 C 753.214 965.642 742.978 961.011 732.718 959.755 C 717.711 957.917 698.432 965.22 681.935 964.933 C 682.115 962.26 682.017 958.302 683.125 955.909 C 684.207 953.571 686.55 953.25 688.747 952.303 A 103.83 103.83 0 0 0 764.101 912.393 C 767.095 908.527 771.607 899.557 775.647 897.229 C 776.447 896.768 778.694 896.637 779.691 896.444 A 292.564 292.564 0 0 0 832.159 887.228 z"/>
<path transform="translate(0,0)" fill="rgb(236,51,49)" d="M 914.366 1187.07 C 917.285 1187 919.862 1187.02 922.653 1187.99 C 934.624 1192.18 950.81 1235.47 956.561 1248.28 C 966.972 1236.76 991.743 1202.66 1006.54 1200.28 C 1010.66 1199.61 1014.61 1201.28 1017.86 1203.72 C 1021.37 1206.36 1024.38 1210.5 1024.78 1214.98 C 1025.71 1225.71 984.351 1266.27 975.687 1275.67 C 957.665 1293.87 971.137 1332.69 955.376 1347.26 C 951.865 1350.5 947.177 1351.32 942.539 1350.95 C 938.58 1350.63 935.01 1348.99 932.491 1345.87 C 923.624 1334.89 933.078 1293.97 934.622 1279.18 C 928.731 1268.17 923.678 1256.49 918.239 1245.23 C 911.712 1231.71 903.868 1217.87 899.547 1203.5 L 899.924 1202.43 C 902.983 1194.01 906.283 1190.8 914.366 1187.07 z"/>
<path transform="translate(0,0)" fill="rgb(236,51,49)" d="M 1134.04 1213.16 C 1139.26 1212.54 1145.34 1212.09 1150 1214.95 C 1152.84 1216.7 1154.6 1219.04 1155.96 1222.04 C 1160.45 1231.92 1162.4 1244.05 1165.11 1254.58 A 5221.67 5221.67 0 0 1 1180.88 1316.75 C 1188.38 1297.81 1196.52 1279.08 1204.43 1260.31 C 1208.8 1249.95 1212.76 1237.64 1218.94 1228.24 C 1220.64 1225.65 1222.71 1223.76 1225.49 1222.39 C 1229.35 1220.49 1234.22 1219.91 1238.29 1221.46 C 1243.15 1223.32 1247.67 1226.57 1249.5 1231.61 C 1253.76 1243.31 1240.32 1265.24 1235.3 1276.31 C 1222.43 1303.65 1211.63 1332.15 1198.05 1359.14 C 1194.73 1365.73 1190.35 1372.11 1182.89 1374.26 A 17.9604 17.9604 0 0 1 1168.35 1372.31 C 1164.99 1370.18 1162.44 1367.16 1160.74 1363.58 C 1154.6 1350.64 1151.52 1334.33 1147.57 1320.53 C 1138.69 1289.51 1129.58 1258.58 1122.13 1227.18 C 1125.35 1220.84 1127.96 1216.99 1134.04 1213.16 z"/>
<path transform="translate(0,0)" fill="rgb(236,51,49)" d="M 842.576 1179.34 C 844.924 1179.26 847.16 1179.29 849.504 1179.49 C 861.997 1180.55 880.426 1185.76 888.52 1195.86 C 891.515 1199.59 892.761 1204.03 891.98 1208.77 C 891.298 1212.91 889.21 1218.36 885.451 1220.67 C 875.904 1226.54 860.857 1215.69 850.918 1213.57 C 846.63 1212.65 842.103 1212.62 838.37 1215.21 C 835.675 1217.07 833.479 1220.76 833.353 1224.05 C 832.894 1236.11 863.437 1246.37 873.24 1256.17 C 881.253 1264.18 884.385 1273.93 884.232 1285.14 C 884.043 1298.97 878.519 1312.62 868.493 1322.23 C 855.924 1334.28 840.357 1337.32 823.664 1337.23 C 810.621 1335.07 796.699 1330.22 785.934 1322.4 C 781.188 1318.95 776.292 1314.24 775.522 1308.12 C 774.95 1303.57 777.147 1299.42 780.01 1296.05 C 794.752 1278.7 814.445 1304.36 832.12 1302.72 C 836.552 1302.31 841.113 1300.51 843.882 1296.9 C 846.143 1293.95 847.226 1289.71 846.333 1286.06 C 843.449 1274.27 823.956 1267.58 814.712 1261.04 C 805.01 1254.18 798.124 1245.72 796.411 1233.69 A 45.7857 45.7857 0 0 1 806.146 1198.15 C 815.819 1186.05 827.587 1181.29 842.576 1179.34 z"/>
<path transform="translate(0,0)" fill="rgb(246,245,249)" d="M 1262.42 894.817 C 1277.4 894.653 1294.52 909.299 1308.09 915.511 L 1307.28 917.382 C 1300.54 933.307 1296.54 949.4 1288.05 964.792 C 1256.12 1022.67 1195.37 1067.41 1135.06 1092.17 C 1097.69 1107.52 1057.14 1116.12 1017.04 1108.92 C 1005.84 1105.22 994.857 1101.73 983.9 1097.31 C 980.979 1094.89 976.005 1093.07 972.584 1091.21 A 325.294 325.294 0 0 1 948.824 1077.15 C 912.188 1052.8 885.787 1019.38 863.307 982.153 C 878.949 979.804 897.423 984.492 912.368 979.363 C 927.573 1004.32 964.973 1033.23 990.312 1047.61 C 1031.88 1071.19 1046.09 1072.84 1091.19 1060.38 C 1135.3 1048.19 1177.03 1026.7 1210.84 995.637 C 1218.44 988.657 1226.59 981.112 1231.72 972.062 C 1234.45 970.145 1236.04 968.198 1237.98 965.501 C 1242.92 959.105 1247.96 952.085 1251.43 944.784 C 1256.16 937.145 1259.8 928.642 1263.26 920.361 C 1266.41 911.261 1265.3 903.72 1262.42 894.817 z"/>
<path transform="translate(0,0)" fill="rgb(206,200,229)" d="M 709.606 1152.79 C 711.646 1162.4 723.397 1176.14 727.512 1186.54 C 727.209 1188.36 726.902 1190.19 726.629 1192.02 C 724.418 1206.82 711.902 1238.1 713.014 1249.95 C 713.756 1247.2 714.284 1244.25 715.635 1241.73 C 716.048 1244.2 716.131 1245.21 714.99 1247.47 L 715.576 1252.53 L 715.595 1253.87 C 715.635 1263.31 713.393 1273.77 712.282 1283.2 A 554.182 554.182 0 0 0 708.451 1330.73 C 705.021 1410.36 719.463 1500.08 750.607 1573.59 C 766.032 1609.99 785.53 1645.34 811.823 1675.09 C 813.9 1677.44 823.624 1686.95 823.798 1689.46 C 823.824 1689.83 822.126 1691.55 821.794 1691.85 C 815.112 1697.96 799.678 1702.61 790.96 1704.88 C 763.694 1696.46 736.26 1684.85 711.156 1671.26 C 653.076 1737.18 639.601 1774.13 645.113 1861.84 C 645.406 1866.51 645.229 1872.51 647.051 1876.8 C 633.836 1884.99 604.113 1897.69 588.594 1902.66 C 588.932 1893.27 589.927 1883.98 589.927 1874.56 C 589.925 1850.27 586.453 1822.22 593.741 1798.89 C 596.449 1790.22 601.528 1782.56 607.608 1775.9 C 622.383 1759.7 639.559 1746.07 651.458 1727.32 C 660.411 1713.22 668.023 1696.97 674.065 1681.36 C 679.215 1668.06 683.453 1654.76 690.202 1642.11 C 695.136 1632.87 700.69 1622.81 702.122 1612.28 C 703.766 1600.19 703.069 1587.43 703.232 1575.22 C 703.867 1527.77 699.651 1481.26 696.748 1433.97 C 695.934 1420.71 697.492 1400 693.25 1387.78 C 692.309 1385.07 690.087 1383.74 687.65 1382.4 C 678.221 1377.18 667.284 1373.88 657.289 1369.84 C 646.249 1365.38 635.595 1360.12 624.917 1354.87 C 625.654 1354.86 626.911 1354.87 627.601 1354.7 C 632.912 1353.4 652.471 1312.53 657.045 1305.52 C 669.878 1310.53 682.948 1319.45 696.119 1323.05 C 698.08 1323.59 697.222 1323.69 698.902 1322.73 C 693.967 1315.84 668.469 1307.29 659.515 1301.65 C 659.176 1301.43 658.842 1301.21 658.506 1300.99 C 665.96 1287.19 673.598 1272.68 679.164 1258.03 C 670.569 1228 665.957 1199.06 664.722 1167.87 C 675.493 1180.68 685.477 1189.07 699.846 1197.78 C 704.093 1182.78 707.491 1168.26 709.606 1152.79 z"/>
<path transform="translate(0,0)" fill="rgb(254,205,184)" d="M 1194.16 860.173 C 1198.06 875.974 1202.06 891.003 1216.88 900.184 C 1219.74 901.955 1222.75 903.315 1225.85 904.606 C 1236.95 898.729 1251.15 899.89 1262.42 894.817 C 1265.3 903.72 1266.41 911.261 1263.26 920.361 C 1259.8 928.642 1256.16 937.145 1251.43 944.784 C 1247.96 952.085 1242.92 959.105 1237.98 965.501 C 1236.04 968.198 1234.45 970.145 1231.72 972.062 C 1226.59 981.112 1218.44 988.657 1210.84 995.637 C 1177.03 1026.7 1135.3 1048.19 1091.19 1060.38 C 1046.09 1072.84 1031.88 1071.19 990.312 1047.61 C 964.973 1033.23 927.573 1004.32 912.368 979.363 L 912.354 978.621 C 904.89 967.977 896.177 956.572 892.193 944.076 C 890.078 941.405 888.743 938.426 887.264 935.373 C 909.217 939.349 931.964 950.297 950.73 962.042 C 956.344 965.556 961.996 970.532 967.73 973.589 C 980.366 970.998 993.202 969.75 1005.86 967.031 C 1059.65 955.474 1110.16 934.117 1153.21 899.345 C 1167.68 887.661 1178.92 871.778 1193.44 860.704 C 1193.68 860.524 1193.92 860.35 1194.16 860.173 z"/>
<path transform="translate(0,0)" fill="rgb(253,142,140)" d="M 1248.35 915.465 C 1253.51 916.755 1258.3 918.447 1263.26 920.361 C 1259.8 928.642 1256.16 937.145 1251.43 944.784 C 1250.51 942.567 1250.74 943.7 1250.75 941.156 C 1250.79 932.401 1249.86 924.081 1248.35 915.465 z"/>
<path transform="translate(0,0)" fill="rgb(164,152,207)" d="M 1225.85 904.606 C 1236.95 898.729 1251.15 899.89 1262.42 894.817 C 1265.3 903.72 1266.41 911.261 1263.26 920.361 C 1258.3 918.447 1253.51 916.755 1248.35 915.465 C 1241.35 913.571 1231 909.749 1225.85 904.606 z"/>
<path transform="translate(0,0)" fill="rgb(171,36,113)" d="M 887.264 935.373 C 909.217 939.349 931.964 950.297 950.73 962.042 C 956.344 965.556 961.996 970.532 967.73 973.589 C 979.232 983.003 989.997 992.366 997.314 1005.45 C 999.115 1008.67 999.484 1009.61 998.481 1013.16 L 996.702 1013.75 C 991.672 1010.2 987.966 1001.86 984.222 996.752 C 978.268 988.633 966.86 978.715 957.719 974.22 C 957.468 974.096 957.211 973.983 956.957 973.864 C 944.211 962.219 909.428 944.56 892.193 944.076 C 890.078 941.405 888.743 938.426 887.264 935.373 z"/>
<path transform="translate(0,0)" fill="rgb(171,36,113)" d="M 1140.75 974.01 C 1165.82 966.667 1211.84 963.373 1237.98 965.501 C 1236.04 968.198 1234.45 970.145 1231.72 972.062 C 1210.59 968.215 1182.15 974.44 1160.78 976.165 C 1155.96 978.536 1146.6 979.036 1140.98 980.219 C 1128.67 982.812 1115.76 985.55 1103.84 989.61 C 1094.06 992.942 1080.65 1003.44 1070.74 1003.32 L 1070.7 1001.9 C 1083.95 987.277 1121.26 976.79 1140.75 974.01 z"/>
<path transform="translate(0,0)" fill="rgb(248,122,119)" d="M 892.193 944.076 C 909.428 944.56 944.211 962.219 956.957 973.864 C 942.581 977.826 926.088 974.099 912.354 978.621 C 904.89 967.977 896.177 956.572 892.193 944.076 z"/>
<path transform="translate(0,0)" fill="rgb(248,122,119)" d="M 1126.76 721.165 C 1130.29 716.143 1158.38 694.203 1164.76 688.493 A 425.733 425.733 0 0 0 1192.84 661.283 C 1197.63 656.238 1201.77 650.492 1207.05 645.965 L 1208.34 646.925 C 1208.31 647.247 1208.29 647.569 1208.25 647.89 C 1206.61 664.721 1200.91 681.704 1198.1 698.47 C 1189.41 750.335 1184.62 808.133 1194.16 860.173 C 1193.92 860.35 1193.68 860.524 1193.44 860.704 C 1178.92 871.778 1167.68 887.661 1153.21 899.345 C 1110.16 934.117 1059.65 955.474 1005.86 967.031 C 993.202 969.75 980.366 970.998 967.73 973.589 C 961.996 970.532 956.344 965.556 950.73 962.042 C 931.964 950.297 909.217 939.349 887.264 935.373 C 885.484 923.299 880.821 912.147 879.597 899.653 C 880.223 888.914 881.67 879.752 887.213 870.291 C 904.362 877.495 921.032 885.781 938.196 893.039 C 950.174 894.661 970.17 888.288 979.742 881.097 C 993.507 870.758 995.943 854.177 998.19 838.334 C 997.717 823.321 998.734 808.215 998.38 793.189 C 998.304 789.976 998.592 787.717 996.234 785.438 A 460.71 460.71 0 0 0 1087.42 745.843 C 1100.83 738.098 1113.55 729.245 1126.76 721.165 z"/>
<path transform="translate(0,0)" fill="rgb(164,152,207)" d="M 887.213 870.291 C 904.362 877.495 921.032 885.781 938.196 893.039 C 924.828 900.216 895.355 899.82 879.597 899.653 C 880.223 888.914 881.67 879.752 887.213 870.291 z"/>
<path transform="translate(0,0)" fill="rgb(171,36,113)" d="M 996.234 785.438 A 460.71 460.71 0 0 0 1087.42 745.843 C 1100.83 738.098 1113.55 729.245 1126.76 721.165 C 1122.94 728.764 1116.1 735.795 1110.72 742.378 C 1085.28 773.513 1057.53 802.502 1024.15 825.25 C 1017.69 829.653 1009.96 835.17 1002.48 837.614 C 1001.07 838.074 999.658 838.23 998.19 838.334 C 997.717 823.321 998.734 808.215 998.38 793.189 C 998.304 789.976 998.592 787.717 996.234 785.438 z"/>
<path transform="translate(0,0)" fill="rgb(206,200,229)" d="M 1465.92 975.425 C 1505.45 1014.33 1513.72 1071.05 1517.96 1123.84 C 1519.43 1142.12 1520.86 1160.58 1521 1178.94 C 1521.12 1194.21 1519.55 1210.13 1520.7 1225.31 C 1522.1 1243.82 1537.37 1296.25 1543.77 1314.75 L 1545.21 1319.69 L 1547.75 1320.96 C 1547.62 1321.56 1547.47 1322.16 1547.37 1322.77 C 1546.52 1327.48 1547.8 1332.43 1548.87 1337.01 C 1555.92 1367.25 1561.38 1373.51 1533.35 1394.95 C 1519.18 1405.79 1500.07 1412.74 1487.5 1425.1 C 1476.57 1427.62 1464.62 1434.64 1454.36 1439.36 C 1454.04 1447.18 1448.63 1472.4 1451.26 1477.7 C 1447.29 1486.98 1448.67 1498.89 1447.18 1508.84 C 1442.55 1539.63 1440.9 1571.44 1438.81 1602.51 C 1437.62 1620.22 1437.46 1638.83 1433.3 1656.13 C 1427.71 1679.38 1416.62 1702.63 1406.02 1723.97 C 1399.73 1736.64 1392.78 1754.58 1378.49 1759.92 C 1374.51 1761.41 1370.36 1762.13 1366.19 1762.82 C 1369.16 1793.89 1397.15 1814.45 1404.05 1843.54 C 1411.14 1873.48 1399.38 1918.84 1400.58 1952.13 L 1401.5 1955.71 C 1405.7 1971.48 1411.26 1988.06 1412.59 2004.33 C 1411.02 2005.9 1410.84 2006.15 1408.47 2006.09 C 1403.5 2005.95 1397.92 2004.17 1393.01 2003.2 C 1395.93 2014.3 1399.87 2025.18 1403.51 2036.06 L 1405.97 2041.94 L 1407.4 2048 L 1342.13 2048 L 1331.17 2048 L 1066.6 2048 L 1060.65 2048 L 993.945 2048 L 987.91 2048 L 633.454 2048 L 579.514 2048 L 581.017 2043.13 L 582.445 2035.75 L 585.353 2023.36 L 587.148 2016.11 C 590.36 2002.46 593.059 1988.53 595.425 1974.7 C 589.302 1970.85 584.222 1975.19 577.806 1975.3 C 575.54 1975.34 575.402 1975.36 573.816 1973.67 C 571.577 1961.72 584.202 1921.32 587.366 1906.93 L 588.594 1902.66 C 604.113 1897.69 633.836 1884.99 647.051 1876.8 C 681.585 1860.51 718.814 1847.42 754.721 1834.4 C 797.358 1817.84 855.067 1799.26 899.306 1789.47 C 906.188 1786.7 914.552 1785.43 921.838 1783.83 C 951.419 1777.3 979.616 1773.05 1009.96 1772.86 C 1015.29 1772.11 1020.63 1772.15 1026 1772.1 C 1038.86 1763.31 1053.76 1755.95 1067.64 1748.78 C 976.418 1710.54 870.183 1619.4 813.871 1538.45 C 803.303 1523.26 794.816 1506.99 786.078 1490.72 C 804.879 1509.59 822.125 1530.01 840.923 1548.91 C 901.617 1609.93 969.291 1666.08 1046.93 1704.25 C 1066.34 1713.79 1086.27 1721.13 1106.25 1729.27 C 1141.55 1710.75 1172.25 1687.36 1202.42 1661.48 C 1184.76 1666.56 1165.6 1669.7 1147.17 1668.84 C 1080.18 1665.73 981.989 1621.52 936.772 1571.97 C 966.386 1581.89 994.904 1589.74 1026.36 1591.6 C 1108.47 1596.43 1225.18 1569.66 1287.25 1513.74 C 1339.36 1466.78 1354.84 1373.32 1353.98 1305.99 C 1353.7 1283.64 1349.13 1260.72 1350.35 1238.55 L 1350.47 1236.66 C 1353.99 1246.49 1357.99 1255.6 1360.73 1265.79 C 1363.15 1274.75 1363.42 1286.01 1367.17 1294.23 L 1367.68 1293.58 C 1366.96 1279.76 1360.43 1232.53 1354.79 1222.16 C 1354.08 1219.15 1354.06 1218.93 1355.2 1216.06 C 1364.76 1201.84 1375.37 1188.37 1384.8 1174.03 C 1405.06 1143.21 1421.08 1110.99 1435.23 1076.99 C 1441.83 1060.2 1447.23 1043.07 1453.29 1026.09 C 1455.29 1018.04 1457.95 1010.19 1459.8 1002.08 C 1461.81 993.264 1462.73 983.902 1465.92 975.425 z"/>
<path transform="translate(0,0)" fill="rgb(164,152,207)" d="M 1543.77 1314.75 L 1545.21 1319.69 C 1540.15 1321.08 1511.62 1344.47 1503.23 1349.6 C 1477.64 1365.24 1449.51 1375.91 1420.62 1383.63 C 1411.47 1386.08 1372.83 1395.9 1367.04 1392.55 L 1367.51 1390.99 C 1379.59 1386.67 1394.92 1385.86 1407.65 1383.34 C 1433.39 1378.25 1460.42 1368.36 1483.81 1356.7 A 212.786 212.786 0 0 0 1521.53 1333.1 C 1528.79 1327.32 1535.58 1318.88 1543.77 1314.75 z"/>
<path transform="translate(0,0)" fill="rgb(164,152,207)" d="M 1009.96 1772.86 A 183.858 183.858 0 0 1 1085.11 1789.64 C 1121.09 1806.57 1149.08 1829.39 1181.56 1851.4 C 1234.63 1887.38 1290.37 1916.47 1350.99 1937.47 C 1367.17 1943.08 1383.78 1948.66 1400.58 1952.13 L 1401.5 1955.71 C 1325.49 1940.66 1248.97 1901.72 1185.29 1858.43 C 1147.2 1832.54 1121.61 1811.02 1078.76 1791.37 C 1058.64 1783.43 1036.34 1777.74 1014.64 1777.12 C 976.339 1777.32 939.646 1784.21 902.529 1793.11 C 900.299 1792.72 899.116 1792.97 897.472 1791.33 L 900.653 1790.65 L 899.306 1789.47 C 906.188 1786.7 914.552 1785.43 921.838 1783.83 C 951.419 1777.3 979.616 1773.05 1009.96 1772.86 z"/>
<path transform="translate(0,0)" fill="rgb(246,245,249)" d="M 1453.29 1026.09 C 1460.39 1039.29 1450.56 1093.02 1446.25 1107.28 C 1434.43 1146.37 1410.08 1196.78 1372.39 1216.93 C 1367 1219.81 1360.96 1222 1354.79 1222.16 C 1354.08 1219.15 1354.06 1218.93 1355.2 1216.06 C 1364.76 1201.84 1375.37 1188.37 1384.8 1174.03 C 1405.06 1143.21 1421.08 1110.99 1435.23 1076.99 C 1441.83 1060.2 1447.23 1043.07 1453.29 1026.09 z"/>
<path transform="translate(0,0)" fill="rgb(206,200,229)" d="M 1014.64 1777.12 C 1036.34 1777.74 1058.64 1783.43 1078.76 1791.37 C 1121.61 1811.02 1147.2 1832.54 1185.29 1858.43 C 1248.97 1901.72 1325.49 1940.66 1401.5 1955.71 C 1405.7 1971.48 1411.26 1988.06 1412.59 2004.33 C 1411.02 2005.9 1410.84 2006.15 1408.47 2006.09 C 1403.5 2005.95 1397.92 2004.17 1393.01 2003.2 C 1386.08 1999.85 1376.16 1998.73 1368.6 1996.85 A 971.753 971.753 0 0 1 1335.64 1987.73 C 1312.92 1981.11 1291.02 1972.46 1268.88 1964.19 L 1258.2 1959.24 C 1254.54 1956.16 1247.73 1954.44 1243.2 1952.8 L 1235.26 1949.19 C 1229.45 1944.54 1211.64 1936.91 1203.89 1932.72 L 1199.53 1930.31 C 1181.36 1918.46 1162.96 1907.15 1145.58 1894.11 C 1121.67 1876.17 1098.3 1850.36 1070.16 1839.36 C 1069.53 1839.16 1068.85 1839.06 1068.26 1838.76 C 1066.55 1837.89 1065.07 1836.35 1063.27 1835.44 C 1036.25 1821.78 1005.57 1816 975.506 1816.31 C 963.991 1816.43 950.798 1818.3 939.527 1816 C 951.102 1806.34 1010.52 1786.85 1014.64 1777.12 z"/>
<path transform="translate(0,0)" fill="rgb(248,122,119)" d="M 1351.23 1460.98 C 1386.12 1461.73 1421.44 1449.31 1454.36 1439.36 C 1454.04 1447.18 1448.63 1472.4 1451.26 1477.7 C 1447.29 1486.98 1448.67 1498.89 1447.18 1508.84 C 1442.55 1539.63 1440.9 1571.44 1438.81 1602.51 C 1437.62 1620.22 1437.46 1638.83 1433.3 1656.13 C 1427.71 1679.38 1416.62 1702.63 1406.02 1723.97 C 1399.73 1736.64 1392.78 1754.58 1378.49 1759.92 C 1374.51 1761.41 1370.36 1762.13 1366.19 1762.82 L 1365.4 1762.62 L 1363.85 1764.36 L 1362.5 1764.17 C 1356.77 1758.39 1353.49 1749.97 1350.34 1742.6 A 508.523 508.523 0 0 1 1335.51 1703.35 C 1329.72 1685.5 1326.35 1665.71 1314.9 1650.45 C 1319.1 1585.26 1333.78 1523.65 1351.23 1460.98 z"/>
<path transform="translate(0,0)" fill="rgb(23,21,49)" d="M 902.529 1793.11 C 939.646 1784.21 976.339 1777.32 1014.64 1777.12 C 1010.52 1786.85 951.102 1806.34 939.527 1816 C 950.798 1818.3 963.991 1816.43 975.506 1816.31 C 1005.57 1816 1036.25 1821.78 1063.27 1835.44 C 1065.07 1836.35 1066.55 1837.89 1068.26 1838.76 C 1068.85 1839.06 1069.53 1839.16 1070.16 1839.36 C 1098.3 1850.36 1121.67 1876.17 1145.58 1894.11 C 1162.96 1907.15 1181.36 1918.46 1199.53 1930.31 L 1203.89 1932.72 C 1211.64 1936.91 1229.45 1944.54 1235.26 1949.19 L 1243.2 1952.8 C 1247.73 1954.44 1254.54 1956.16 1258.2 1959.24 L 1268.88 1964.19 C 1291.02 1972.46 1312.92 1981.11 1335.64 1987.73 A 971.753 971.753 0 0 0 1368.6 1996.85 C 1376.16 1998.73 1386.08 1999.85 1393.01 2003.2 C 1395.93 2014.3 1399.87 2025.18 1403.51 2036.06 L 1405.97 2041.94 L 1407.4 2048 L 1342.13 2048 L 1331.17 2048 L 1066.6 2048 L 1060.65 2048 L 993.945 2048 L 987.91 2048 L 633.454 2048 L 579.514 2048 L 581.017 2043.13 L 582.445 2035.75 L 585.353 2023.36 L 587.148 2016.11 C 590.36 2002.46 593.059 1988.53 595.425 1974.7 C 589.302 1970.85 584.222 1975.19 577.806 1975.3 C 575.54 1975.34 575.402 1975.36 573.816 1973.67 C 571.577 1961.72 584.202 1921.32 587.366 1906.93 L 588.594 1902.66 C 604.113 1897.69 633.836 1884.99 647.051 1876.8 C 681.585 1860.51 718.814 1847.42 754.721 1834.4 C 797.358 1817.84 855.067 1799.26 899.306 1789.47 L 900.653 1790.65 L 897.472 1791.33 C 899.116 1792.97 900.299 1792.72 902.529 1793.11 z"/>
<path transform="translate(0,0)" fill="rgb(43,41,68)" d="M 581.017 2043.13 C 590.819 2039.61 627.906 2036.86 640.101 2035.95 A 826.908 826.908 0 0 1 633.454 2048 L 579.514 2048 L 581.017 2043.13 z"/>
<path transform="translate(0,0)" fill="rgb(43,41,68)" d="M 769.049 1887.16 C 776.665 1883.23 784.65 1879.95 792.484 1876.48 C 793.126 1881.65 791.998 1902.17 790.378 1906.79 C 785.001 1905.02 774.409 1908.73 768.523 1910.05 A 274.815 274.815 0 0 0 769.049 1887.16 z"/>
<path transform="translate(0,0)" fill="rgb(53,62,92)" d="M 768.523 1910.05 C 774.409 1908.73 785.001 1905.02 790.378 1906.79 C 789.73 1917.94 789.652 1929.47 787.581 1940.45 C 780.469 1939.46 773.559 1938.02 766.562 1936.42 C 766.727 1927.7 766.908 1918.64 768.523 1910.05 z"/>
<path transform="translate(0,0)" fill="rgb(43,41,68)" d="M 585.353 2023.36 C 596.706 2018.48 613.118 2019.26 625.52 2017.3 C 635.43 2015.74 645.446 2012.62 655.445 2012.03 C 652.794 2015.84 645.929 2023.74 645.879 2027.99 L 646.793 2028.69 C 628.635 2032.7 600.714 2037.88 582.445 2035.75 L 585.353 2023.36 z"/>
<path transform="translate(0,0)" fill="rgb(43,41,68)" d="M 703.719 1919.04 L 762.187 1890.54 C 764.988 1900.77 762.132 1916.12 760.269 1926.61 C 745.198 1924.76 715.481 1926.5 703.719 1919.04 z"/>
<path transform="translate(0,0)" fill="rgb(53,62,92)" d="M 655.445 2012.03 C 685.454 2000.63 714.542 1987.66 736.447 1963.34 C 739.682 1959.75 755.056 1938.66 758.113 1937.94 C 758.961 1937.74 759.855 1937.93 760.726 1937.93 C 762.248 1940.52 761.822 1942.61 761.067 1945.43 C 753.716 1972.91 727.548 1994.92 703.503 2008.01 C 685.505 2017.81 666.742 2024.22 646.793 2028.69 L 645.879 2027.99 C 645.929 2023.74 652.794 2015.84 655.445 2012.03 z"/>
<path transform="translate(0,0)" fill="rgb(53,62,92)" d="M 993.659 1939.95 C 1015.62 1942.15 1038.48 1941.02 1060.57 1941.02 L 1060.65 2048 L 993.945 2048 C 992.618 2012.09 993.771 1975.89 993.659 1939.95 z"/>
<path transform="translate(0,0)" fill="rgb(43,41,68)" d="M 657.99 1940.82 C 670.333 1935.28 682.265 1928.86 694.627 1923.35 C 695.923 1924.55 697.199 1925.86 698.936 1926.4 C 711.901 1930.44 739.302 1929.65 754.519 1932.23 C 751.496 1936.11 748.459 1940.98 745.059 1944.44 C 724.18 1971.61 697.576 1989.61 665.73 2001.7 C 650.362 2008.72 602.931 2019.01 587.148 2016.11 C 590.36 2002.46 593.059 1988.53 595.425 1974.7 C 597.221 1972.9 597.816 1970.33 598.71 1967.97 C 618.271 1958.49 638.547 1950.59 657.99 1940.82 z"/>
<path transform="translate(0,0)" fill="rgb(53,62,92)" d="M 665.73 2001.7 C 665.175 2001.27 664.858 2000.6 664.456 2000.02 C 674.842 1982.56 693.052 1959.02 711.109 1949.4 C 720.241 1944.54 735.135 1941.36 745.059 1944.44 C 724.18 1971.61 697.576 1989.61 665.73 2001.7 z"/>
<path transform="translate(0,0)" fill="rgb(53,62,92)" d="M 797.252 1903.18 C 816.928 1899.64 836.185 1893.35 855.581 1888.5 C 884.168 1881.34 912.986 1874.99 941.678 1868.26 C 950.382 1866.22 964.72 1860.13 973.3 1861.52 L 974.42 1864.76 C 973.957 1888.28 974.606 1911.79 974.253 1935.31 C 955.648 1932.09 932.251 1933.91 913.007 1933.3 A 2371.52 2371.52 0 0 1 795.23 1926.84 C 796.08 1918.98 796.592 1911.06 797.252 1903.18 z"/>
<path transform="translate(0,0)" fill="rgb(53,62,92)" d="M 979.976 1858.82 C 1008.13 1852.31 1025.52 1847.65 1053.74 1857 C 1067.37 1861.52 1079.88 1867.89 1092.04 1875.49 C 1102.11 1881.78 1167.16 1928.71 1169.22 1931.87 C 1108.7 1935.42 1048.59 1934.2 988.052 1934.82 C 985.243 1934.65 982.912 1934.63 980.37 1933.25 C 979.2 1923.36 979.942 1912.89 980.017 1902.91 A 2670.1 2670.1 0 0 0 979.976 1858.82 z"/>
<path transform="translate(0,0)" fill="rgb(246,245,249)" d="M 1015.84 1866.25 C 1018.82 1866.51 1021.8 1866.73 1024.6 1867.87 C 1029.96 1870.06 1034.42 1874.36 1036.4 1879.84 C 1038.18 1884.73 1037.75 1890.04 1035.51 1894.71 C 1032.38 1901.23 1027.3 1904.3 1020.75 1906.73 C 1016.8 1906.51 1012.99 1906.15 1009.45 1904.24 C 1004.26 1901.44 1000.11 1896.57 998.602 1890.82 C 997.272 1885.76 997.965 1880.21 1000.83 1875.79 C 1004.37 1870.33 1009.69 1867.7 1015.84 1866.25 z"/>
<path transform="translate(0,0)" fill="rgb(43,41,68)" d="M 939.527 1816 C 950.798 1818.3 963.991 1816.43 975.506 1816.31 C 1005.57 1816 1036.25 1821.78 1063.27 1835.44 C 1065.07 1836.35 1066.55 1837.89 1068.26 1838.76 C 1068.85 1839.06 1069.53 1839.16 1070.16 1839.36 C 1098.3 1850.36 1121.67 1876.17 1145.58 1894.11 C 1162.96 1907.15 1181.36 1918.46 1199.53 1930.31 C 1190.79 1933.1 1178.52 1931.43 1169.22 1931.87 C 1167.16 1928.71 1102.11 1881.78 1092.04 1875.49 C 1079.88 1867.89 1067.37 1861.52 1053.74 1857 C 1025.52 1847.65 1008.13 1852.31 979.976 1858.82 C 980.014 1853.43 981.328 1846.42 979.594 1841.42 C 977.382 1839.99 977.426 1840.1 974.802 1840.48 C 973.271 1848.35 976.13 1857.16 974.42 1864.76 L 973.3 1861.52 C 964.72 1860.13 950.382 1866.22 941.678 1868.26 C 912.986 1874.99 884.168 1881.34 855.581 1888.5 C 836.185 1893.35 816.928 1899.64 797.252 1903.18 C 797.896 1895.22 799.624 1886.27 799.178 1878.37 C 799.036 1875.85 798.839 1875.66 797.058 1874.08 C 826.154 1860.8 856.041 1845.63 886.379 1835.45 C 904.254 1829.31 921.168 1821.16 939.527 1816 z"/>
<path transform="translate(0,0)" fill="rgb(164,152,207)" d="M 939.527 1816 C 950.798 1818.3 963.991 1816.43 975.506 1816.31 C 1005.57 1816 1036.25 1821.78 1063.27 1835.44 C 1065.07 1836.35 1066.55 1837.89 1068.26 1838.76 C 1068.85 1839.06 1069.53 1839.16 1070.16 1839.36 C 1035.85 1842.36 1000.24 1840.14 965.816 1839.06 C 939.525 1838.23 912.524 1838.28 886.379 1835.45 C 904.254 1829.31 921.168 1821.16 939.527 1816 z"/>
<path transform="translate(0,0)" fill="rgb(246,245,249)" d="M 902.529 1793.11 C 939.646 1784.21 976.339 1777.32 1014.64 1777.12 C 1010.52 1786.85 951.102 1806.34 939.527 1816 C 921.168 1821.16 904.254 1829.31 886.379 1835.45 C 856.041 1845.63 826.154 1860.8 797.058 1874.08 L 792.484 1876.48 C 784.65 1879.95 776.665 1883.23 769.049 1887.16 L 762.187 1890.54 L 703.719 1919.04 L 694.627 1923.35 C 682.265 1928.86 670.333 1935.28 657.99 1940.82 C 638.547 1950.59 618.271 1958.49 598.71 1967.97 C 597.816 1970.33 597.221 1972.9 595.425 1974.7 C 589.302 1970.85 584.222 1975.19 577.806 1975.3 C 575.54 1975.34 575.402 1975.36 573.816 1973.67 C 571.577 1961.72 584.202 1921.32 587.366 1906.93 L 588.594 1902.66 C 604.113 1897.69 633.836 1884.99 647.051 1876.8 C 681.585 1860.51 718.814 1847.42 754.721 1834.4 C 797.358 1817.84 855.067 1799.26 899.306 1789.47 L 900.653 1790.65 L 897.472 1791.33 C 899.116 1792.97 900.299 1792.72 902.529 1793.11 z"/>
<path transform="translate(0,0)" fill="rgb(164,152,207)" d="M 754.721 1834.4 C 797.358 1817.84 855.067 1799.26 899.306 1789.47 L 900.653 1790.65 L 897.472 1791.33 C 899.116 1792.97 900.299 1792.72 902.529 1793.11 C 853.56 1804.54 804.26 1820.18 757.07 1837.56 L 754.721 1834.4 z"/>
<path transform="translate(0,0)" fill="rgb(164,152,207)" d="M 647.051 1876.8 C 681.585 1860.51 718.814 1847.42 754.721 1834.4 L 757.07 1837.56 A 2787.02 2787.02 0 0 0 673.602 1870.15 C 665.003 1873.74 654.595 1877 646.729 1881.78 C 628.028 1888.22 604.708 1902.78 587.366 1906.93 L 588.594 1902.66 C 604.113 1897.69 633.836 1884.99 647.051 1876.8 z"/>
<path transform="translate(0,0)" fill="rgb(206,200,229)" d="M 587.366 1906.93 C 604.708 1902.78 628.028 1888.22 646.729 1881.78 C 649.895 1900.55 650.898 1923.21 657.99 1940.82 C 638.547 1950.59 618.271 1958.49 598.71 1967.97 C 597.816 1970.33 597.221 1972.9 595.425 1974.7 C 589.302 1970.85 584.222 1975.19 577.806 1975.3 C 575.54 1975.34 575.402 1975.36 573.816 1973.67 C 571.577 1961.72 584.202 1921.32 587.366 1906.93 z"/>
<path transform="translate(0,0)" fill="rgb(53,62,92)" d="M 795.151 1932.03 C 821.215 1936.24 849.647 1936.31 876.095 1937.3 C 913.309 1938.69 950.76 1940.23 988.001 1940.07 C 986.713 1975.88 987.514 2012.16 987.91 2048 L 633.454 2048 A 826.908 826.908 0 0 0 640.101 2035.95 C 684.479 2026.45 731.449 2007.11 757.258 1967.53 A 85.2265 85.2265 0 0 0 768.37 1943.03 C 774.029 1944.45 783.243 1947.96 788.803 1945.29 A 9.1136 9.1136 0 0 0 793.701 1939.51 C 794.366 1937.08 794.74 1934.51 795.151 1932.03 z"/>
<path transform="translate(0,0)" fill="rgb(53,62,92)" d="M 1203.89 1932.72 C 1211.64 1936.91 1229.45 1944.54 1235.26 1949.19 L 1243.2 1952.8 C 1247.73 1954.44 1254.54 1956.16 1258.2 1959.24 L 1268.88 1964.19 C 1291.02 1972.46 1312.92 1981.11 1335.64 1987.73 A 971.753 971.753 0 0 0 1368.6 1996.85 C 1376.16 1998.73 1386.08 1999.85 1393.01 2003.2 C 1395.93 2014.3 1399.87 2025.18 1403.51 2036.06 L 1405.97 2041.94 L 1407.4 2048 L 1342.13 2048 L 1331.17 2048 L 1066.6 2048 C 1065.65 2034.67 1066.12 2021.07 1066.12 2007.71 L 1066.22 1940.17 C 1080.15 1941.52 1094.87 1940.33 1108.9 1939.97 A 3453.03 3453.03 0 0 0 1181.84 1937.48 C 1188.27 1936.84 1199.34 1937.67 1203.89 1932.72 z"/>
<path transform="translate(0,0)" fill="rgb(43,41,68)" d="M 1203.89 1932.72 C 1211.64 1936.91 1229.45 1944.54 1235.26 1949.19 C 1233.9 1957.15 1240.79 1964.64 1242.74 1972.09 C 1242.23 1972.07 1241.73 1972.07 1241.22 1972.03 C 1231.81 1971.31 1188.37 1945.01 1181.84 1937.48 C 1188.27 1936.84 1199.34 1937.67 1203.89 1932.72 z"/>
<path transform="translate(0,0)" fill="url(#Gradient2)" d="M 1235.26 1949.19 L 1243.2 1952.8 C 1247.73 1954.44 1254.54 1956.16 1258.2 1959.24 L 1268.88 1964.19 L 1268.78 1969.38 L 1265.59 1970.11 C 1264.96 1971.22 1264.58 1971.9 1264.31 1973.17 C 1283.53 2002.77 1314.06 2020.36 1346.17 2032.69 C 1345.55 2036.27 1345.31 2043.56 1342.69 2046.12 L 1342.13 2048 L 1331.17 2048 C 1323.63 2042.97 1314.26 2040.16 1306.38 2035.5 C 1278.63 2019.13 1261.1 1997.91 1242.74 1972.09 C 1240.79 1964.64 1233.9 1957.15 1235.26 1949.19 z"/>
<path transform="translate(0,0)" fill="rgb(23,21,49)" d="M 1258.2 1959.24 L 1268.88 1964.19 L 1268.78 1969.38 L 1265.59 1970.11 C 1264.96 1971.22 1264.58 1971.9 1264.31 1973.17 C 1263.8 1972.77 1264.07 1973.01 1263.38 1972.12 C 1260.58 1968.51 1257.55 1964.01 1258.2 1959.24 z"/>
<path transform="translate(0,0)" fill="rgb(23,21,49)" d="M 1235.26 1949.19 L 1243.2 1952.8 C 1245.13 1974.17 1269.97 2000.71 1285.72 2013.87 C 1302.69 2028.05 1322.33 2037.8 1342.69 2046.12 L 1342.13 2048 L 1331.17 2048 C 1323.63 2042.97 1314.26 2040.16 1306.38 2035.5 C 1278.63 2019.13 1261.1 1997.91 1242.74 1972.09 C 1240.79 1964.64 1233.9 1957.15 1235.26 1949.19 z"/>
<path transform="translate(0,0)" fill="rgb(43,41,68)" d="M 1268.88 1964.19 C 1291.02 1972.46 1312.92 1981.11 1335.64 1987.73 A 971.753 971.753 0 0 0 1368.6 1996.85 C 1376.16 1998.73 1386.08 1999.85 1393.01 2003.2 C 1395.93 2014.3 1399.87 2025.18 1403.51 2036.06 L 1405.97 2041.94 L 1407.4 2048 L 1342.13 2048 L 1342.69 2046.12 C 1345.31 2043.56 1345.55 2036.27 1346.17 2032.69 C 1314.06 2020.36 1283.53 2002.77 1264.31 1973.17 C 1264.58 1971.9 1264.96 1971.22 1265.59 1970.11 L 1268.78 1969.38 L 1268.88 1964.19 z"/>
<path transform="translate(0,0)" fill="url(#Gradient3)" d="M 1264.31 1973.17 C 1264.58 1971.9 1264.96 1971.22 1265.59 1970.11 L 1268.78 1969.38 C 1289.32 2001.77 1326.66 2022.6 1363.41 2030.68 C 1376.05 2033.46 1390.61 2036.66 1403.51 2036.06 L 1405.97 2041.94 L 1407.4 2048 L 1342.13 2048 L 1342.69 2046.12 C 1345.31 2043.56 1345.55 2036.27 1346.17 2032.69 C 1314.06 2020.36 1283.53 2002.77 1264.31 1973.17 z"/>
<path transform="translate(0,0)" fill="rgb(43,41,68)" d="M 1346.17 2032.69 C 1365.6 2036.9 1386.07 2041.46 1405.97 2041.94 L 1407.4 2048 L 1342.13 2048 L 1342.69 2046.12 C 1345.31 2043.56 1345.55 2036.27 1346.17 2032.69 z"/>
</svg>